<svg width="335" height="267" viewBox="0 0 335 267" fill="none" xmlns="http://www.w3.org/2000/svg">
<path d="M68.8287 4.4207L83.512 117.074C84.4273 123.885 82.4749 130.074 78.5871 134.565C74.6994 139.057 62.4791 141.84 55.6683 141.84H43.4174C43.2011 141.84 42.9895 141.835 42.7781 141.83C37.1343 141.687 31.6829 139.642 27.1295 136.315C26.3758 135.767 25.649 135.182 24.9493 134.565C19.8547 130.074 16.24 123.885 15.3249 117.074L0.641677 4.4207C0.624671 4.29422 0.607671 4.16774 0.596641 4.04597L0.588135 3.98305H68.7645C68.7898 4.13069 68.8086 4.27304 68.8287 4.4207Z" fill="white"/>
<path d="M62.0737 142.428H43.4173C43.1965 142.428 42.9807 142.423 42.7645 142.418C37.1543 142.276 31.6282 140.33 26.7827 136.79C26.031 136.244 25.2834 135.644 24.5602 135.006C19.1325 130.222 15.6457 123.88 14.7417 117.152L0.0582046 4.49661C0.0405101 4.36426 0.0225918 4.22952 0.010868 4.10011L0.00512646 4.06013C-0.0373864 3.73778 0.189185 3.44246 0.511346 3.4001C0.831219 3.35834 1.12899 3.58365 1.17129 3.90601L1.17958 3.96954C1.19287 4.10542 1.20899 4.22365 1.22458 4.34248L15.9083 116.998C16.7739 123.443 20.1231 129.526 25.338 134.124C26.0334 134.736 26.7528 135.314 27.4753 135.839C32.128 139.238 37.4245 141.105 42.793 141.241C42.9996 141.247 43.2061 141.251 43.4173 141.251H62.0737C68.4886 141.251 74.1946 138.741 78.1424 134.181C82.0913 129.618 83.7914 123.571 82.929 117.152L68.2451 4.49661C68.2268 4.35779 68.2086 4.22189 68.1845 4.0813C68.1304 3.76071 68.3463 3.45718 68.6663 3.40306C68.9898 3.34776 69.2904 3.56482 69.3445 3.88484C69.371 4.03955 69.391 4.18777 69.4116 4.34248L84.0955 116.998C85.0032 123.753 83.2049 130.129 79.0318 134.951C74.8576 139.772 68.8345 142.428 62.0737 142.428Z" fill="#495998"/>
<path d="M77.473 107.171H20.249L17.8347 89.3241L16.6632 80.6703L10.8186 37.4292H68.0427L73.6876 79.2156L74.8594 87.8693L77.473 107.171Z" fill="white"/>
<path d="M64.5361 95.3331H21.0681L20.777 93.2071H64.2449L64.5361 95.3331Z" fill="#BAF0FF"/>
<path d="M72.5498 88.597H20.1535L19.8721 86.471H72.2587L72.5498 88.597Z" fill="#BAF0FF"/>
<path d="M73.5081 79.9426H16.8548L13.9241 58.2662L11.1113 37.4292H67.7644L70.3157 56.2909L73.5081 79.9426Z" fill="#F37458"/>
<path d="M20.763 106.583H76.7994L67.5286 38.0174H11.4914L20.763 106.583ZM77.473 107.759H20.249C19.9547 107.759 19.7055 107.542 19.6658 107.25L10.2354 37.508C10.2126 37.3398 10.2639 37.1697 10.3756 37.0421C10.4872 36.9139 10.6488 36.8409 10.8186 36.8409H68.0427C68.3368 36.8409 68.5863 37.0586 68.6257 37.3503L78.0559 107.092C78.0789 107.26 78.0277 107.43 77.9159 107.558C77.8041 107.686 77.643 107.759 77.473 107.759Z" fill="#495998"/>
<path d="M67.3856 32.3873H10.2666L8.80284 21.6323L7.40051 11.2938H64.519L65.7938 20.6523L67.3856 32.3873Z" fill="#92F6E6"/>
<path d="M10.7805 31.7991H66.7121L64.0056 11.8821H8.07405L10.7805 31.7991ZM67.3856 32.9756H10.2666C9.97251 32.9756 9.72368 32.7579 9.68392 32.4668L6.81755 11.3727C6.79484 11.2044 6.84585 11.0344 6.9575 10.9068C7.06897 10.7785 7.23074 10.7056 7.40057 10.7056H64.5191C64.8132 10.7056 65.0626 10.9227 65.102 11.2144L67.9686 32.3085C67.9915 32.4767 67.9404 32.6462 67.8286 32.7744C67.7168 32.9026 67.5556 32.9756 67.3856 32.9756Z" fill="#495998"/>
<path d="M21.0497 123.071L19.8721 114.305H76.9358L77.3905 117.688C78.2576 124.144 81.2536 130.459 86.0472 135.423C90.6438 140.183 94.8486 141.77 95.1304 141.832C95.1363 141.838 95.1416 141.838 95.1416 141.838H43.8237C38.18 141.695 32.7286 139.65 28.1754 136.324C27.3374 135.714 26.5324 135.059 25.7615 134.366C25.7573 134.361 25.7535 134.357 25.7493 134.352C23.2883 131.063 21.6035 127.194 21.0497 123.071Z" fill="#AAEDFF"/>
<path d="M26.1912 133.961C26.9456 134.637 27.7296 135.272 28.5215 135.848C33.1739 139.247 38.4703 141.114 43.8383 141.25H92.4934C90.3815 140.078 87.1979 137.877 83.979 134.025C80.0913 129.374 77.6153 123.78 76.8182 117.847L76.4212 114.893H20.5447L21.6328 122.993C22.153 126.865 23.7289 130.656 26.1912 133.961ZM95.1417 142.426H43.8238C38.2003 142.284 32.6742 140.339 27.8285 136.799C26.992 136.191 26.1639 135.518 25.3679 134.803C25.3507 134.787 25.3342 134.771 25.319 134.753C25.3089 134.742 25.2873 134.716 25.2783 134.705C22.6794 131.231 21.0156 127.235 20.4666 123.15L19.2889 114.383C19.2667 114.215 19.3177 114.045 19.4291 113.918C19.5408 113.79 19.7024 113.716 19.8721 113.716H76.9359C77.2306 113.716 77.4794 113.934 77.5188 114.226L77.9842 117.691C78.7512 123.403 81.1366 128.79 84.8814 133.27C90.0709 139.479 95.2193 141.248 95.267 141.26C95.2834 141.265 95.2999 141.27 95.3164 141.275C95.5564 141.35 95.7299 141.574 95.7299 141.838C95.7299 142.162 95.4664 142.426 95.1417 142.426Z" fill="#495998"/>
<path d="M141.053 108.706L142.177 117.072C142.596 120.193 142.413 123.182 141.718 125.934C141.713 125.981 141.698 126.023 141.688 126.066C140.859 129.276 139.333 132.159 137.252 134.563C136.719 135.18 136.149 135.765 135.542 136.313C134.936 136.861 134.299 137.378 133.629 137.847C130.094 140.372 125.678 141.838 120.739 141.838H55.6677C62.4784 141.838 68.2933 139.054 72.181 134.563C76.0694 130.072 78.0212 123.883 77.1059 117.072L65.9673 34.1573C65.9473 34.0097 65.9285 33.8673 65.9032 33.7197H66.0138L64.8902 25.3542C63.9755 18.5434 65.9273 12.3544 69.8151 7.86316C70.3492 7.24666 70.9186 6.66136 71.5251 6.11311C75.1846 2.78654 80.0865 0.741776 85.692 0.598831C92.3104 0.736481 98.6635 3.48775 103.627 7.86316C107.83 11.5691 111.023 16.4239 112.526 21.8376C112.749 22.6394 112.936 23.4459 113.079 24.2683C113.143 24.6265 113.202 24.9901 113.251 25.3542L124.389 108.269C124.409 108.416 124.428 108.559 124.443 108.706H141.053Z" fill="white"/>
<path d="M63.1567 141.25H120.739C125.393 141.25 129.733 139.907 133.287 137.369C133.908 136.933 134.533 136.432 135.148 135.877C135.727 135.353 136.286 134.781 136.808 134.178C138.868 131.798 140.318 129.02 141.118 125.919L141.708 125.99L141.136 125.851C141.139 125.82 141.14 125.82 141.147 125.789C141.843 123.033 141.994 120.126 141.594 117.151L140.538 109.295H124.443C124.141 109.295 123.888 109.066 123.858 108.765C123.844 108.628 123.826 108.494 123.808 108.357L112.668 25.4324C112.62 25.0771 112.562 24.7218 112.499 24.3718C112.365 23.5947 112.189 22.8188 111.959 21.9959C110.516 16.7969 107.5 12.0627 103.238 8.30435C98.1787 3.84483 91.9433 1.31711 85.6802 1.1871C80.3983 1.3224 75.6311 3.17598 71.921 6.54842C71.3416 7.07196 70.7833 7.64374 70.2598 8.24846C66.3109 12.8103 64.6108 18.8576 65.4732 25.2754L66.5973 33.6415C66.6132 33.7609 66.5921 33.8821 66.5379 33.9874C66.5415 34.0144 66.545 34.0415 66.5491 34.0691L77.6894 116.994C78.5971 123.751 76.7988 130.128 72.6257 134.948C70.0751 137.894 66.8344 140.032 63.1567 141.25ZM120.739 142.426H55.6677C55.3429 142.426 55.0794 142.162 55.0794 141.838C55.0794 141.512 55.3429 141.25 55.6677 141.25C62.0819 141.25 67.7891 138.738 71.7369 134.178C75.6852 129.616 77.3853 123.57 76.5229 117.151L65.3844 34.2356C65.3644 34.0885 65.3467 33.9562 65.3232 33.8191C65.3014 33.6897 65.3232 33.5579 65.3838 33.4438L64.3073 25.4324C63.3996 18.6752 65.1973 12.2992 69.3704 7.47845C69.9251 6.83725 70.5175 6.23134 71.1304 5.67662C75.0517 2.11299 80.0824 0.153564 85.6772 0.0112C92.2451 0.1465 98.7482 2.77834 104.015 7.42198C108.45 11.3315 111.589 16.2616 113.092 21.6806C113.332 22.5412 113.517 23.3547 113.658 24.1677C113.723 24.5318 113.784 24.9036 113.834 25.2754L124.962 108.118H141.053C141.348 108.118 141.597 108.336 141.636 108.628L142.76 116.994C143.179 120.107 143.022 123.151 142.296 126.044C142.289 126.094 142.278 126.141 142.264 126.187C141.412 129.49 139.877 132.429 137.697 134.948C137.144 135.588 136.552 136.194 135.937 136.749C135.286 137.338 134.623 137.869 133.967 138.329C130.215 141.008 125.639 142.426 120.739 142.426Z" fill="#495998"/>
<path d="M136.865 91.5823H79.6407L78.3412 81.9644L77.4271 75.2284L75.6076 61.7563L70.2104 21.8405H127.434L132.349 58.185L134.17 71.6477L135.368 80.5003L136.865 91.5823Z" fill="white"/>
<path d="M119.472 55.8802H87.8608L85.8784 41.1987L83.5819 24.2683H115.193L117.367 40.3481L119.472 55.8802Z" fill="#AAEDFF"/>
<path d="M132.989 79.0362L133.28 81.1615H80.8836L80.6019 79.0362H132.989Z" fill="#BAF0FF"/>
<path d="M132.084 72.3001L132.365 74.4254H79.9689L79.6877 72.3001H132.084Z" fill="#BAF0FF"/>
<path d="M130.263 58.8374L130.546 60.9533H78.15L77.8665 58.8374H130.263Z" fill="#BAF0FF"/>
<path d="M122.239 65.5734L122.532 67.6894H79.0642L78.7712 65.5734H122.239Z" fill="#BAF0FF"/>
<path d="M108.338 85.7722L108.629 87.8976H81.7978L81.5066 85.7722H108.338Z" fill="#BAF0FF"/>
<path d="M95.8457 44.9111C97.0764 44.5711 98.7793 43.5699 100.076 40.7828C98.3758 38.4775 96.7346 37.4292 95.6204 36.9568C94.9934 36.6921 94.4869 36.5786 94.1733 36.5409C94.1639 36.5409 94.1639 36.5409 94.1639 36.5409C93.9898 36.5127 93.8127 36.5033 93.6422 36.5033C91.2803 36.5033 89.6291 38.421 89.9409 40.7734C90.2603 43.1352 92.4351 45.0529 94.7969 45.0529C95.1563 45.0529 95.5057 45.0059 95.8457 44.9111ZM109.08 45.0153C111.698 45.3365 113.637 43.3052 113.295 40.7734C112.984 38.421 110.799 36.5033 108.447 36.5033C108.088 36.5033 107.728 36.5503 107.4 36.6356C106.168 36.9851 104.464 37.9863 103.169 40.764C104.87 43.0693 106.501 44.1176 107.625 44.59C108.241 44.8641 108.749 44.9682 109.07 45.0153H109.08ZM116.007 40.7734C116.527 44.6282 113.82 47.7553 109.966 47.7553C109.682 47.7553 109.374 47.7365 109.08 47.6983C109.061 47.6983 109.051 47.6983 109.034 47.6889C108.325 47.5948 107.585 47.3771 106.835 47.0653C105.557 46.5177 103.798 45.4406 101.973 43.3335C100.391 46.0359 98.3987 47.113 96.8864 47.5377C96.3293 47.6795 95.7469 47.7553 95.161 47.7553C91.3068 47.7553 87.7591 44.6282 87.239 40.7734C86.7173 36.928 89.4256 33.7915 93.2704 33.7915C93.5633 33.7915 93.8716 33.8109 94.1663 33.8485C94.1757 33.8485 94.1928 33.8579 94.2116 33.8579C94.9181 33.9615 95.6604 34.1697 96.4087 34.4909C97.6775 35.0385 99.4476 36.1062 101.263 38.2133C102.853 35.5203 104.838 34.4344 106.357 34.0185C106.917 33.8673 107.489 33.7915 108.084 33.7915C111.93 33.7915 115.484 36.928 116.007 40.7734Z" fill="white"/>
<path d="M80.1548 90.9941H136.191L126.92 22.4288H70.8834L80.1548 90.9941ZM136.864 92.1706H79.6407C79.3465 92.1706 79.0971 91.9529 79.0577 91.6612L69.6269 21.9194C69.6045 21.7511 69.6551 21.5811 69.7669 21.4535C69.8787 21.3252 70.0404 21.2523 70.2098 21.2523H127.434C127.728 21.2523 127.977 21.47 128.017 21.7617L137.447 91.5035C137.47 91.6718 137.419 91.8412 137.307 91.9694C137.196 92.0971 137.033 92.1706 136.864 92.1706Z" fill="#495998"/>
<path d="M138.91 123.071L137.732 114.305H80.6683L81.1224 117.688C81.9901 124.144 80.6907 130.459 77.2306 135.423C73.9134 140.183 70.1345 141.77 69.8698 141.832C69.8651 141.838 69.8598 141.838 69.8598 141.838H121.178C126.783 141.695 131.685 139.65 135.344 136.324C136.019 135.714 136.648 135.059 137.232 134.366C137.235 134.361 137.238 134.357 137.241 134.352C138.818 131.063 139.463 127.194 138.91 123.071Z" fill="#F37458"/>
<path d="M72.2434 141.25H121.178C126.471 141.115 131.238 139.261 134.949 135.888C135.577 135.321 136.18 134.697 136.744 134.032C138.29 130.791 138.846 127.014 138.327 123.15L137.217 114.893H81.3407L81.7166 117.691C82.516 123.641 81.536 129.26 78.8824 133.938C76.7276 137.738 74.0999 140.025 72.2434 141.25ZM69.8598 142.426C69.5351 142.426 69.2715 142.162 69.2715 141.838C69.2715 141.608 69.4033 141.408 69.5957 141.312C69.6392 141.289 69.6857 141.271 69.7345 141.26C69.7639 141.251 74.3429 139.558 77.8594 133.358C80.3854 128.905 81.3154 123.541 80.5501 117.847L80.0848 114.383C80.0624 114.215 80.1136 114.045 80.2254 113.918C80.3371 113.79 80.4983 113.716 80.6683 113.716H137.732C138.027 113.716 138.276 113.934 138.315 114.226L139.493 122.993C140.044 127.094 139.449 131.109 137.771 134.607C137.762 134.626 137.752 134.645 137.74 134.664C137.725 134.688 137.7 134.723 137.682 134.745C137.073 135.466 136.42 136.145 135.739 136.76C131.817 140.324 126.787 142.284 121.193 142.426H69.8598Z" fill="#495998"/>
<path d="M69.8598 142.426C69.5351 142.426 69.2715 142.162 69.2715 141.838C69.2715 141.611 69.3998 141.414 69.588 141.316C69.7998 141.2 70.0692 141.223 70.2604 141.393C70.5033 141.608 70.5251 141.981 70.3092 142.223C70.1974 142.349 70.028 142.426 69.8598 142.426Z" fill="#495998"/>
<path d="M119.808 103.878L114.788 111.341L107.768 103.878H110.357L109.209 95.3331H116.066L117.215 103.878H119.808Z" fill="#AAEDFF"/>
<path d="M91.4116 103.878L86.3926 111.341L79.3724 103.878H81.9613L80.8131 95.3331H87.6709L88.8186 103.878H91.4116Z" fill="#AAEDFF"/>
<path d="M105.459 103.878L100.439 111.341L93.4193 103.878H96.0081L94.8605 95.3331H101.718L102.865 103.878H105.459Z" fill="#AAEDFF"/>
<path d="M195.849 167.773L176.64 24.783C176.293 22.2011 173.91 20.1005 171.328 20.1005H100.503C97.9147 20.1005 96.1029 22.2011 96.4493 24.783L115.659 167.773C116.005 170.354 118.382 172.455 120.97 172.455H191.795C194.377 172.455 196.195 170.354 195.849 167.773ZM179.202 24.783L198.411 167.773C198.948 171.77 196.137 175.017 192.139 175.017H121.314C117.317 175.017 113.633 171.77 113.096 167.773L93.8869 24.783C93.351 20.7923 96.1617 17.5381 100.159 17.5381H170.984C174.981 17.5381 178.666 20.7923 179.202 24.783Z" fill="white"/>
<path d="M152.114 26.0318C151.977 25.0071 151.018 24.1612 149.992 24.1612H122.923C122.411 24.1612 121.971 24.373 121.678 24.7124C121.383 25.0518 121.235 25.5195 121.304 26.0318C121.442 27.063 122.401 27.9025 123.425 27.9025H150.495C151.008 27.9025 151.447 27.6907 151.741 27.3513C152.035 27.0183 152.183 26.5442 152.114 26.0318ZM192.646 167.773L173.437 24.783C173.328 23.9694 172.572 23.3029 171.758 23.3029H164.642C163.579 23.3029 162.636 23.6812 161.954 24.3218C161.265 24.9624 160.829 25.8654 160.764 26.9095C160.642 28.9978 159.013 30.509 156.886 30.509H117.729C116.666 30.509 115.629 30.1313 114.767 29.4908C113.906 28.8501 113.222 27.9537 112.883 26.9095C112.199 24.8148 110.163 23.3029 108.037 23.3029H100.933C100.126 23.3029 99.5447 23.9824 99.6523 24.783L118.861 167.773C118.969 168.573 119.732 169.252 120.54 169.252H191.365C192.179 169.252 192.755 168.586 192.646 167.773ZM176.64 24.783L195.849 167.773C196.195 170.354 194.377 172.455 191.795 172.455H120.97C118.382 172.455 116.005 170.354 115.659 167.773L96.4493 24.783C96.1028 22.2012 97.9146 20.1005 100.503 20.1005H171.328C173.91 20.1005 176.293 22.2012 176.64 24.783Z" fill="#495998"/>
<path d="M173.437 24.783L192.646 167.773C192.755 168.586 192.179 169.252 191.365 169.252H120.54C119.732 169.252 118.969 168.573 118.861 167.773L99.6524 24.783C99.5447 23.9824 100.126 23.303 100.933 23.303H108.037C110.163 23.303 112.199 24.8148 112.883 26.9095C113.222 27.9537 113.906 28.8502 114.767 29.4908C115.629 30.1314 116.666 30.509 117.729 30.509H156.886C159.013 30.509 160.642 28.9978 160.765 26.9095C160.829 25.8654 161.265 24.9624 161.954 24.3218C162.636 23.6812 163.579 23.303 164.642 23.303H171.758C172.572 23.303 173.328 23.9695 173.437 24.783Z" fill="#AAEDFF"/>
<path d="M149.992 24.1612C151.018 24.1612 151.977 25.0071 152.114 26.0319C152.183 26.5442 152.035 27.0183 151.741 27.3513C151.447 27.6907 151.008 27.9025 150.495 27.9025H123.425C122.401 27.9025 121.442 27.0631 121.304 26.0319C121.235 25.5195 121.383 25.0518 121.678 24.7124C121.971 24.373 122.411 24.1612 122.923 24.1612H149.992Z" fill="#AAEDFF"/>
<path d="M100.503 20.6888C99.4329 20.6888 98.4846 21.0994 97.8323 21.8447C97.1705 22.6018 96.8864 23.6171 97.0322 24.7042L116.242 167.694C116.55 169.995 118.672 171.866 120.97 171.866H191.795C192.864 171.866 193.812 171.455 194.464 170.709C195.127 169.951 195.412 168.936 195.266 167.85L176.057 24.8613C175.748 22.5606 173.627 20.6888 171.328 20.6888H100.503ZM191.795 173.043H120.97C118.105 173.043 115.46 170.713 115.075 167.85L95.8663 24.8613C95.6746 23.4324 96.0581 22.0865 96.947 21.07C97.8258 20.0652 99.0888 19.5123 100.503 19.5123H171.328C174.194 19.5123 176.838 21.8412 177.223 24.7042L196.432 167.694C196.624 169.121 196.24 170.467 195.35 171.483C194.471 172.489 193.208 173.043 191.795 173.043ZM100.158 18.1264C98.4111 18.1264 96.8593 18.8011 95.7869 20.0264C94.6998 21.27 94.2322 22.9312 94.4704 24.7042L113.679 167.694C114.178 171.408 117.603 174.429 121.314 174.429H192.139C193.888 174.429 195.441 173.754 196.513 172.529C197.599 171.287 198.066 169.626 197.828 167.85L178.619 24.8613C178.12 21.1476 174.695 18.1264 170.984 18.1264H100.158ZM192.139 175.606H121.314C117.036 175.606 113.087 172.127 112.513 167.85L93.3039 24.8613C93.0204 22.7465 93.5875 20.7547 94.9016 19.2523C96.1999 17.7675 98.067 16.9499 100.158 16.9499H170.984C175.262 16.9499 179.21 20.4288 179.785 24.7042L198.994 167.694C199.278 169.81 198.711 171.803 197.398 173.304C196.101 174.788 194.233 175.606 192.139 175.606Z" fill="#495998"/>
<path d="M122.923 24.75C122.601 24.75 122.316 24.8736 122.122 25.0971C121.926 25.3236 121.843 25.6271 121.887 25.9536C121.986 26.6907 122.691 27.3142 123.426 27.3142H150.495C150.817 27.3142 151.102 27.1907 151.297 26.966C151.491 26.746 151.575 26.4359 151.531 26.1101C151.432 25.373 150.728 24.75 149.993 24.75H122.923ZM150.495 28.4907H123.426C122.111 28.4907 120.897 27.4224 120.721 26.1101C120.632 25.4453 120.814 24.8124 121.233 24.3271C121.648 23.8476 122.264 23.5735 122.923 23.5735H149.993C151.308 23.5735 152.521 24.6412 152.697 25.9536C152.787 26.6177 152.598 27.2695 152.181 27.7413C151.77 28.2154 151.154 28.4907 150.495 28.4907ZM100.933 23.8912C100.719 23.8912 100.529 23.9735 100.398 24.1235C100.264 24.2771 100.206 24.4835 100.235 24.7047L119.445 167.694C119.512 168.201 120.035 168.664 120.539 168.664H191.365C191.584 168.664 191.775 168.582 191.905 168.434C192.037 168.284 192.094 168.076 192.063 167.85L172.854 24.8612C172.783 24.3353 172.281 23.8912 171.759 23.8912H164.642C163.759 23.8912 162.947 24.1965 162.356 24.7506C161.762 25.3042 161.405 26.083 161.351 26.946C161.21 29.3507 159.332 31.0978 156.886 31.0978H117.729C116.577 31.0978 115.4 30.6949 114.416 29.9625C113.43 29.229 112.686 28.209 112.324 27.0913C111.718 25.2377 109.914 23.8912 108.037 23.8912H100.933ZM191.365 169.84H120.539C119.44 169.84 118.426 168.948 118.278 167.85L99.0688 24.8612C98.9947 24.3071 99.1565 23.7559 99.5124 23.3488C99.8653 22.9459 100.383 22.7147 100.933 22.7147H108.037C110.409 22.7147 112.682 24.4018 113.443 26.7265C113.731 27.616 114.326 28.4295 115.119 29.019C115.901 29.6008 116.828 29.9213 117.729 29.9213H156.886C158.689 29.9213 160.073 28.6401 160.177 26.8748C160.249 25.7077 160.738 24.6488 161.553 23.8906C162.361 23.1329 163.459 22.7147 164.642 22.7147H171.759C172.858 22.7147 173.873 23.6076 174.02 24.7047L193.229 167.694C193.304 168.253 193.144 168.805 192.791 169.21C192.434 169.616 191.928 169.84 191.365 169.84ZM100.503 20.6887C99.4329 20.6887 98.4847 21.0993 97.8323 21.8447C97.1705 22.6017 96.8864 23.6171 97.0323 24.7041L116.242 167.694C116.55 169.995 118.672 171.866 120.97 171.866H191.795C192.864 171.866 193.812 171.455 194.464 170.709C195.127 169.951 195.412 168.936 195.266 167.85L176.057 24.8612C175.748 22.5606 173.627 20.6887 171.328 20.6887H100.503ZM191.795 173.043H120.97C118.105 173.043 115.46 170.713 115.075 167.85L95.8664 24.8612C95.6746 23.4323 96.0582 22.0864 96.947 21.0699C97.8258 20.0652 99.0888 19.5122 100.503 19.5122H171.328C174.194 19.5122 176.838 21.8411 177.223 24.7041L196.432 167.694C196.624 169.121 196.24 170.467 195.35 171.483C194.471 172.489 193.208 173.043 191.795 173.043Z" fill="#495998"/>
<path d="M100.933 23.8912C100.719 23.8912 100.529 23.9736 100.398 24.1236C100.264 24.2771 100.206 24.4836 100.235 24.7048L119.445 167.694C119.512 168.201 120.035 168.664 120.539 168.664H191.365C191.584 168.664 191.775 168.582 191.905 168.434C192.037 168.284 192.094 168.076 192.063 167.85L172.854 24.8612C172.783 24.3353 172.281 23.8912 171.759 23.8912H164.642C163.759 23.8912 162.947 24.1965 162.356 24.7507C161.762 25.3042 161.405 26.083 161.351 26.946C161.21 29.3508 159.332 31.0979 156.886 31.0979H117.729C116.577 31.0979 115.4 30.6949 114.416 29.9626C113.43 29.229 112.686 28.209 112.324 27.0913C111.718 25.2377 109.914 23.8912 108.037 23.8912H100.933ZM191.365 169.84H120.539C119.44 169.84 118.426 168.948 118.278 167.85L99.0688 24.8612C98.9947 24.3071 99.1564 23.7559 99.5123 23.3489C99.8647 22.9459 100.383 22.7147 100.933 22.7147H108.037C110.409 22.7147 112.682 24.4018 113.443 26.7266C113.731 27.616 114.326 28.4296 115.119 29.019C115.901 29.6008 116.827 29.9214 117.729 29.9214H156.886C158.689 29.9214 160.073 28.6402 160.177 26.8748C160.249 25.7077 160.738 24.6489 161.553 23.8906C162.361 23.133 163.459 22.7147 164.642 22.7147H171.759C172.858 22.7147 173.872 23.6077 174.02 24.7048L193.229 167.694C193.304 168.253 193.144 168.805 192.791 169.21C192.434 169.616 191.928 169.84 191.365 169.84Z" fill="#495998"/>
<path d="M122.923 24.75C122.601 24.75 122.316 24.8736 122.122 25.0971C121.926 25.3236 121.843 25.6271 121.887 25.9536C121.986 26.6907 122.691 27.3142 123.426 27.3142H150.495C150.817 27.3142 151.102 27.1907 151.297 26.966C151.491 26.746 151.575 26.436 151.531 26.1101C151.432 25.373 150.728 24.75 149.993 24.75H122.923ZM150.495 28.4907H123.426C122.111 28.4907 120.897 27.4225 120.721 26.1101C120.632 25.4454 120.813 24.8118 121.233 24.3271C121.648 23.8477 122.264 23.5735 122.923 23.5735H149.993C151.308 23.5735 152.521 24.6412 152.697 25.9536C152.787 26.6177 152.598 27.2695 152.181 27.7413C151.77 28.2154 151.154 28.4907 150.495 28.4907Z" fill="#495998"/>
<path d="M52.5775 116.833H52.5719L52.5635 116.768L52.5775 116.833Z" fill="white"/>
<path d="M178.322 25.3542L195.617 154.472C195.634 154.599 195.651 154.725 195.662 154.846L195.671 154.91H130.6C130.585 154.762 130.566 154.62 130.546 154.472L113.251 25.3542C112.336 18.5434 108.721 12.3545 103.627 7.86317C98.6635 3.48776 92.3104 0.736526 85.692 0.598877C85.9026 0.593582 86.1126 0.588852 86.3285 0.588852H150.23C150.445 0.588852 150.657 0.593582 150.869 0.598877C156.513 0.741821 161.964 2.78658 166.517 6.11313C167.271 6.66138 167.998 7.24669 168.698 7.86317C168.781 7.93729 168.865 8.01082 168.944 8.08495C173.909 12.5551 177.422 18.654 178.322 25.3542Z" fill="white"/>
<path d="M131.119 154.322H195.003L177.739 25.4318C176.887 19.0952 173.624 13.0898 168.55 8.52199C168.466 8.44316 168.387 8.37375 168.308 8.30493C167.615 7.69315 166.895 7.11604 166.172 6.58897C161.519 3.19006 156.223 1.32239 150.854 1.1871C150.625 1.18181 150.43 1.1765 150.23 1.1765H92.9369C96.9193 2.38654 100.711 4.50835 104.015 7.42195C109.443 12.2068 112.93 18.5475 113.834 25.2753L131.119 154.322ZM195.671 155.498H130.6C130.297 155.498 130.044 155.269 130.014 154.968C130 154.83 129.983 154.698 129.964 154.56L112.668 25.4318C111.801 18.9846 108.453 12.9021 103.238 8.30432C98.1788 3.8448 91.9433 1.31709 85.6802 1.1871C85.3608 1.18063 85.1049 0.919998 85.1043 0.599991C85.1037 0.280579 85.3584 0.0188141 85.6779 0.0111694C85.9126 0.0052948 86.1179 0 86.3285 0H150.23C150.44 0 150.645 0.0052948 150.851 0.0105896C156.494 0.152954 162.019 2.09828 166.864 5.63779C167.618 6.18604 168.365 6.78606 169.086 7.42195C169.175 7.50018 169.264 7.57843 169.347 7.65724C174.618 12.4021 178.016 18.6622 178.905 25.2753C178.905 25.2759 178.905 25.276 178.905 25.276L196.2 154.394C196.218 154.528 196.237 154.663 196.248 154.793L196.254 154.831C196.276 155 196.225 155.169 196.114 155.297C196.002 155.425 195.841 155.498 195.671 155.498Z" fill="#495998"/>
<path d="M184.912 102.839H127.688L125.282 85.0022L119 38.5298L118.266 33.1067H175.489L181.134 74.8931L182.015 81.4215L184.912 102.839Z" fill="white"/>
<path d="M179.987 84.2745H127.591L127.31 82.1486H179.706L179.987 84.2745Z" fill="#BAF0FF"/>
<path d="M171.974 91.0106H128.505L128.214 88.8852H171.682L171.974 91.0106Z" fill="#BAF0FF"/>
<path d="M172.88 97.7372H129.412L129.129 95.6213H172.597L172.88 97.7372Z" fill="#BAF0FF"/>
<path d="M181.2 75.6208H124.019L118.266 33.1068H175.446L181.2 75.6208Z" fill="#92F6E6"/>
<path d="M128.202 102.251H184.239L174.975 33.695H118.939L128.202 102.251ZM184.912 103.427H127.688C127.394 103.427 127.145 103.21 127.105 102.917L117.683 33.1856C117.66 33.0173 117.711 32.8479 117.823 32.7197C117.935 32.592 118.096 32.5185 118.266 32.5185H175.49C175.784 32.5185 176.033 32.7361 176.073 33.0279L185.495 102.76C185.517 102.929 185.467 103.098 185.355 103.226C185.244 103.354 185.082 103.427 184.912 103.427Z" fill="#495998"/>
<path d="M173.643 19.3658L174.821 28.1319H117.757L117.302 24.7483C116.435 18.2928 113.439 11.978 108.645 7.01371C104.049 2.25358 99.8441 0.667076 99.5623 0.604132C99.5564 0.598839 99.5511 0.598848 99.5511 0.598848H150.869C156.513 0.741793 161.964 2.78655 166.517 6.11311C167.355 6.72253 168.16 7.37783 168.931 8.07138C168.935 8.0755 168.939 8.08022 168.944 8.08492C171.404 11.3738 173.089 15.2433 173.643 19.3658Z" fill="#F37458"/>
<path d="M118.271 27.5437H174.148L173.06 19.444C172.54 15.5716 170.964 11.7797 168.501 8.47552C167.748 7.8008 166.965 7.16666 166.171 6.589C161.519 3.19009 156.223 1.3224 150.854 1.18711H102.198C104.311 2.3589 107.495 4.56071 110.714 8.41199C114.602 13.0627 117.077 18.657 117.875 24.5901L118.271 27.5437ZM174.821 28.7202H117.757C117.462 28.7202 117.213 28.5025 117.174 28.2101L116.709 24.7471C115.941 19.034 113.556 13.6462 109.811 9.16613C104.624 2.9595 99.4729 1.18886 99.4253 1.17592C99.4088 1.1718 99.3923 1.16651 99.3753 1.16062C99.1364 1.08591 98.9629 0.86298 98.9629 0.598856C98.9629 0.274141 99.2258 0.0106049 99.5511 0.0106049H150.869C156.494 0.152962 162.019 2.0983 166.864 5.6378C167.703 6.24841 168.531 6.92019 169.325 7.63373C169.342 7.64962 169.359 7.66609 169.374 7.68374C169.384 7.69492 169.405 7.72021 169.414 7.73198C172.013 11.2062 173.677 15.2016 174.226 19.2876L175.404 28.0537C175.426 28.2219 175.375 28.3919 175.264 28.519C175.151 28.6472 174.99 28.7202 174.821 28.7202Z" fill="#495998"/>
<path d="M99.5617 1.19238C99.4758 1.19238 99.39 1.17415 99.31 1.13591C99.1052 1.04356 98.9629 0.838265 98.9629 0.598847C98.9629 0.274133 99.2258 0.010597 99.5511 0.010597C99.6911 0.010597 99.8382 0.0664808 99.9453 0.15766C100.192 0.368841 100.22 0.740607 100.009 0.987084C99.8923 1.12297 99.7276 1.19238 99.5617 1.19238Z" fill="#495998"/>
<path d="M191.149 149.328H133.969L128.214 106.814H185.395L191.149 149.328Z" fill="#4379CB"/>
<path d="M134.483 148.74H190.476L184.881 107.402H128.888L134.483 148.74ZM191.15 149.916H133.969C133.674 149.916 133.425 149.699 133.386 149.407L127.632 106.893C127.608 106.725 127.66 106.555 127.771 106.427C127.883 106.299 128.045 106.226 128.214 106.226H185.395C185.689 106.226 185.939 106.444 185.979 106.736L191.733 149.249C191.755 149.417 191.705 149.587 191.593 149.715C191.481 149.843 191.32 149.916 191.15 149.916Z" fill="#495998"/>
<path d="M202.117 47.6783C201.698 47.6783 201.278 47.5518 200.919 47.2977L192.109 41.0699C191.172 40.4081 190.95 39.1122 191.612 38.1763C192.274 37.2404 193.569 37.0186 194.505 37.6792L202.118 43.0605L209.734 37.6792C210.671 37.0168 211.966 37.241 212.628 38.1763C213.289 39.1128 213.066 40.4087 212.13 41.0699L203.315 47.2977C202.956 47.5518 202.537 47.6783 202.117 47.6783Z" fill="#F37458"/>
<path d="M202.116 59.1851C201.696 59.1851 201.277 59.0586 200.917 58.8045L192.107 52.5766C191.171 51.9143 190.949 50.619 191.611 49.683C192.272 48.7466 193.568 48.5254 194.504 49.186L202.116 54.5667L209.733 49.186C210.669 48.523 211.965 48.7471 212.626 49.683C213.288 50.6195 213.065 51.9149 212.129 52.5766L203.314 58.8045C202.955 59.0586 202.536 59.1851 202.116 59.1851Z" fill="#F37458"/>
<path d="M202.116 72.156C201.696 72.156 201.277 72.0289 200.917 71.7748L192.107 65.547C191.171 64.8852 190.949 63.5899 191.611 62.6534C192.272 61.7175 193.568 61.4957 194.504 62.1563L202.116 67.5376L209.733 62.1563C210.669 61.4939 211.965 61.7181 212.626 62.6534C213.288 63.5899 213.065 64.8858 212.129 65.547L203.314 71.7748C202.955 72.0289 202.536 72.156 202.116 72.156Z" fill="#F37458"/>
<path d="M91.5616 163.049C91.5616 164.126 90.688 165 89.6109 165C88.5332 165 87.6603 164.126 87.6603 163.049C87.6603 161.971 88.5332 161.098 89.6109 161.098C90.688 161.098 91.5616 161.971 91.5616 163.049Z" fill="#495998"/>
<path d="M91.5616 153.626C91.5616 154.703 90.688 155.576 89.6109 155.576C88.5332 155.576 87.6603 154.703 87.6603 153.626C87.6603 152.548 88.5332 151.675 89.6109 151.675C90.688 151.675 91.5616 152.548 91.5616 153.626Z" fill="#495998"/>
<path d="M99.0335 165C97.9564 165 97.0829 164.126 97.0829 163.049C97.0829 161.971 97.9564 161.098 99.0335 161.098C100.111 161.098 100.985 161.971 100.985 163.049C100.985 164.126 100.111 165 99.0335 165Z" fill="#495998"/>
<path d="M89.6109 184.679C88.5332 184.679 87.6603 183.805 87.6603 182.728C87.6603 181.651 88.5332 180.778 89.6109 180.778C90.688 180.778 91.5616 181.651 91.5616 182.728C91.5616 183.805 90.688 184.679 89.6109 184.679Z" fill="#495998"/>
<path d="M99.0335 184.679C97.9564 184.679 97.0829 183.805 97.0829 182.728C97.0829 181.651 97.9564 180.778 99.0335 180.778C100.111 180.778 100.985 181.651 100.985 182.728C100.985 183.805 100.111 184.679 99.0335 184.679Z" fill="#495998"/>
<path d="M100.985 153.626C100.985 154.703 100.111 155.576 99.0335 155.576C97.9564 155.576 97.0829 154.703 97.0829 153.626C97.0829 152.548 97.9564 151.675 99.0335 151.675C100.111 151.675 100.985 152.548 100.985 153.626Z" fill="#495998"/>
<path d="M89.6109 175.256C88.5332 175.256 87.6603 174.382 87.6603 173.305C87.6603 172.228 88.5332 171.354 89.6109 171.354C90.688 171.354 91.5616 172.228 91.5616 173.305C91.5616 174.382 90.688 175.256 89.6109 175.256Z" fill="#495998"/>
<path d="M99.0335 175.256C97.9564 175.256 97.0829 174.382 97.0829 173.305C97.0829 172.228 97.9564 171.354 99.0335 171.354C100.111 171.354 100.985 172.228 100.985 173.305C100.985 174.382 100.111 175.256 99.0335 175.256Z" fill="#495998"/>
<path d="M108.457 184.679C107.38 184.679 106.506 183.805 106.506 182.728C106.506 181.651 107.38 180.778 108.457 180.778C109.534 180.778 110.407 181.651 110.407 182.728C110.407 183.805 109.534 184.679 108.457 184.679Z" fill="#495998"/>
<path d="M108.457 175.256C107.38 175.256 106.506 174.382 106.506 173.305C106.506 172.228 107.38 171.354 108.457 171.354C109.534 171.354 110.407 172.228 110.407 173.305C110.407 174.382 109.534 175.256 108.457 175.256Z" fill="#495998"/>
<path d="M58.4918 181.491L46.9843 195.75L35.4825 181.491H40.4312V153.36H53.537V181.491H58.4918Z" fill="#AAEDFF"/>
<path d="M35.2343 168.204L26.5426 178.975L17.8569 168.204H21.594V146.959H31.4915V168.204H35.2343Z" fill="#0F1630"/>
<path d="M18.7795 168.646L26.5428 178.273L34.3113 168.646H31.4915C31.2479 168.646 31.0503 168.448 31.0503 168.204V147.401H22.0349V168.204C22.0349 168.448 21.8373 168.646 21.5937 168.646H18.7795ZM26.5428 179.416C26.409 179.416 26.2831 179.356 26.1993 179.252L17.5134 168.481C17.4067 168.349 17.3856 168.167 17.4587 168.014C17.5322 167.861 17.6869 167.763 17.8569 167.763H21.1525V146.96C21.1525 146.716 21.3501 146.518 21.5937 146.518H31.4915C31.735 146.518 31.9326 146.716 31.9326 146.96V167.763H35.2344C35.4044 167.763 35.5591 167.861 35.6324 168.014C35.7057 168.167 35.6846 168.349 35.5777 168.481L26.8861 179.252C26.8024 179.356 26.676 179.416 26.5428 179.416Z" fill="#495998"/>
<path d="M76.1176 168.204L67.4256 178.975L58.7401 168.204H62.4773V146.959H72.3746V168.204H76.1176Z" fill="#0F1630"/>
<path d="M59.6625 168.646L67.4257 178.273L75.1947 168.646H72.3746C72.1311 168.646 71.9334 168.448 71.9334 168.204V147.401H62.9179V168.204C62.9179 168.448 62.7202 168.646 62.4767 168.646H59.6625ZM67.4257 179.416C67.2921 179.416 67.1662 179.356 67.0821 179.252L58.3966 168.481C58.2901 168.349 58.2684 168.167 58.3419 168.014C58.4154 167.861 58.5701 167.763 58.7401 167.763H62.0355V146.96C62.0355 146.716 62.2332 146.518 62.4767 146.518H72.3746C72.6181 146.518 72.8158 146.716 72.8158 146.96V167.763H76.1176C76.2876 167.763 76.4423 167.861 76.5159 168.014C76.5888 168.167 76.5676 168.349 76.4606 168.481L67.7692 179.252C67.6857 179.356 67.5592 179.416 67.4257 179.416Z" fill="#495998"/>
<path d="M255.269 258.723C255.269 258.723 234.443 202.126 232.94 199.446C231.437 196.766 213.58 176.775 211.555 172.683C209.53 168.591 207.295 146.637 207.295 146.637L203.891 142.976C203.891 142.976 201.173 148.624 198.081 149.367C194.988 150.112 187.903 134.82 185.666 132.289C183.428 129.757 190.086 107.616 191.081 106.06C192.075 104.505 199.801 102.61 199.801 102.61L200.52 101.16L198.761 97.4702L181.347 87.9558C181.347 87.9558 167.127 78.7567 168.98 72.666C168.98 72.666 170.096 68.4612 173.147 69.373C176.197 70.2842 199.748 81.3262 203.23 82.5609C206.711 83.7951 231.1 105.256 231.1 105.256C231.1 105.256 239.992 108.818 243.997 111.941C248.001 115.065 260.103 170.124 269.062 183.493C278.021 196.863 334.412 265.934 334.412 265.934L255.269 258.723Z" fill="white"/>
<path d="M255.693 258.171L333.071 265.221C325.847 256.358 276.829 196.141 268.573 183.821C263.495 176.242 257.36 155.208 252.431 138.308C248.734 125.631 245.243 113.659 243.635 112.405C239.743 109.369 230.97 105.837 230.882 105.802C230.819 105.777 230.762 105.742 230.712 105.697C223.951 99.749 205.801 84.0963 203.033 83.1151C201.409 82.5398 195.576 79.9026 189.401 77.112C182.457 73.9737 174.588 70.4171 172.978 69.9365C172.387 69.7606 171.867 69.8053 171.385 70.0742C170.106 70.7883 169.554 72.7978 169.548 72.8178C168.128 77.4855 177.815 84.971 181.666 87.4622L199.043 96.9537C199.151 97.0131 199.239 97.1055 199.291 97.2166L201.051 100.907C201.128 101.07 201.127 101.26 201.047 101.421L200.328 102.871C200.251 103.026 200.11 103.14 199.941 103.181C196.828 103.945 192.175 105.442 191.576 106.377C190.294 108.383 184.316 129.874 186.106 131.899C186.865 132.758 188.047 134.822 189.542 137.435C191.895 141.546 196.302 149.206 197.943 148.796C200.253 148.24 202.637 144.222 203.36 142.721C203.445 142.546 203.61 142.424 203.803 142.395C203.996 142.367 204.19 142.433 204.322 142.575L207.726 146.237C207.814 146.33 207.868 146.45 207.881 146.577C207.903 146.796 210.127 168.472 212.083 172.423C213.223 174.727 219.858 182.611 225.189 188.946C229.269 193.795 232.793 197.981 233.453 199.159C234.916 201.768 253.779 252.971 255.693 258.171ZM334.412 266.522C334.394 266.522 334.376 266.522 334.358 266.52L255.216 259.31C254.99 259.289 254.796 259.14 254.717 258.927C247.52 239.366 233.598 201.822 232.428 199.734C231.821 198.654 228.163 194.306 224.289 189.704C218.637 182.988 212.231 175.376 211.028 172.944C209.059 168.967 206.972 149.231 206.73 146.893L204.027 143.987C203.137 145.61 200.855 149.305 198.218 149.94C195.874 150.504 192.719 145.355 188.521 138.019C187.117 135.565 185.905 133.447 185.225 132.678C182.621 129.732 189.851 106.892 190.585 105.743C191.594 104.166 197.615 102.552 199.395 102.105L199.866 101.155L198.311 97.8949L181.065 88.4729C180.432 88.0646 166.458 78.9356 168.416 72.4948C168.438 72.4136 169.092 70.01 170.808 69.0494C171.572 68.6212 172.416 68.5406 173.314 68.8094C175 69.313 182.567 72.7325 189.885 76.0402C196.037 78.8209 201.849 81.4468 203.426 82.0068C206.91 83.241 229.649 103.197 231.413 104.748C232.432 105.16 240.511 108.476 244.359 111.478C246.177 112.895 248.901 122.003 253.56 137.978C258.467 154.801 264.574 175.738 269.551 183.166C278.392 196.36 334.304 264.871 334.867 265.561C335.017 265.745 335.043 266 334.931 266.21C334.828 266.403 334.628 266.522 334.412 266.522Z" fill="#495998"/>
<path d="M233.207 147.961C232.993 147.961 232.788 147.845 232.683 147.643C232.292 146.886 223.064 129.029 221.777 125.166C220.483 121.283 211.817 98.6273 210.474 96.6107C209.551 96.446 204.514 95.8401 201.02 101.471C200.849 101.746 200.486 101.831 200.21 101.66C199.933 101.489 199.849 101.126 200.02 100.85C203.637 95.0213 209.121 95.016 210.929 95.5054C211.332 95.6142 211.751 95.7272 216.923 108.945C219.658 115.934 222.264 122.907 222.893 124.794C224.152 128.571 233.633 146.918 233.729 147.103C233.878 147.391 233.765 147.746 233.476 147.896C233.39 147.94 233.298 147.961 233.207 147.961Z" fill="#495998"/>
<path d="M207.296 147.226C207.289 147.226 207.281 147.226 207.274 147.225C206.949 147.213 206.696 146.94 206.708 146.616C207.135 135.025 204.625 127.416 202.411 120.704C201.818 118.908 201.26 117.213 200.781 115.517C198.507 107.46 199.19 102.719 199.22 102.521C199.268 102.2 199.568 101.979 199.889 102.029C200.21 102.077 200.431 102.377 200.383 102.697C200.376 102.744 199.716 107.412 201.913 115.198C202.385 116.869 202.94 118.553 203.529 120.335C205.773 127.142 208.318 134.856 207.883 146.659C207.872 146.976 207.611 147.226 207.296 147.226Z" fill="#495998"/>
<path d="M203.891 143.564C203.882 143.564 203.873 143.564 203.864 143.564C203.54 143.55 203.289 143.274 203.303 142.95C203.362 141.621 203.244 137.942 202.009 136.895C200.2 135.364 198.565 130.191 198.384 129.606C198.351 129.499 198.35 129.386 198.379 129.277L200.89 120.081C200.908 120.014 200.938 119.951 200.979 119.895L201.95 118.531C202.138 118.267 202.504 118.205 202.77 118.394C203.035 118.582 203.096 118.949 202.908 119.214L201.998 120.492L199.559 129.421C200.073 131.035 201.504 134.926 202.77 135.998C204.664 137.603 204.503 142.454 204.479 143.003C204.464 143.318 204.204 143.564 203.891 143.564Z" fill="#495998"/>
<path d="M201.457 120.824C201.324 120.824 201.188 120.779 201.078 120.685L198.298 118.336C198.05 118.127 198.019 117.755 198.229 117.507C198.437 117.259 198.809 117.227 199.058 117.438L201.838 119.787C202.086 119.997 202.117 120.368 201.907 120.615C201.791 120.754 201.625 120.824 201.457 120.824Z" fill="#495998"/>
<path d="M198.947 130.021C198.899 130.021 198.851 130.015 198.803 130.003L193.547 128.684C193.231 128.605 193.039 128.285 193.119 127.97C193.198 127.655 193.52 127.463 193.832 127.543L199.09 128.862C199.405 128.941 199.596 129.261 199.517 129.576C199.45 129.843 199.21 130.021 198.947 130.021Z" fill="#495998"/>
<path d="M199.065 147.374C198.871 147.374 198.681 147.279 198.57 147.104C198.554 147.08 197.02 144.703 195.31 142.947C193.836 141.435 191.996 142.201 191.978 142.208C191.681 142.337 191.334 142.2 191.205 141.901C191.077 141.603 191.214 141.257 191.513 141.128C191.618 141.083 194.121 140.04 196.152 142.126C197.947 143.97 199.494 146.367 199.559 146.468C199.734 146.741 199.655 147.105 199.383 147.28C199.284 147.343 199.173 147.374 199.065 147.374Z" fill="#495998"/>
<path d="M208.398 112.791C206.686 112.791 205.147 111.986 204.077 110.5C201.39 106.768 201.477 101.054 201.482 100.812C201.486 100.666 201.543 100.526 201.643 100.42C201.806 100.249 205.676 96.2236 210.363 96.8831C210.685 96.9278 210.909 97.2254 210.863 97.5472C210.818 97.8684 210.522 98.0955 210.199 98.0478C206.596 97.5466 203.402 100.358 202.659 101.069C202.673 102.157 202.866 106.804 205.032 109.813C206.027 111.195 207.536 111.825 209.164 111.548C210.821 111.264 212.222 110.092 212.65 108.631C212.742 108.319 213.069 108.14 213.381 108.232C213.692 108.324 213.871 108.65 213.779 108.962C213.228 110.845 211.452 112.35 209.363 112.707C209.036 112.763 208.713 112.791 208.398 112.791Z" fill="#495998"/>
<path d="M236.767 112.352C236.603 112.352 236.44 112.283 236.324 112.149L230.657 105.642C230.443 105.397 230.469 105.025 230.714 104.812C230.957 104.599 231.33 104.623 231.544 104.87L237.211 111.377C237.425 111.622 237.399 111.993 237.154 112.206C237.042 112.304 236.905 112.352 236.767 112.352Z" fill="#495998"/>
<path d="M179.947 75.7178C177.497 75.7184 173.757 74.0448 172.601 72.896C171.194 71.4959 171.572 70.223 171.968 69.7453C172.176 69.4953 172.547 69.4612 172.797 69.6683C173.043 69.873 173.08 70.2359 172.883 70.4853C172.832 70.5553 172.484 71.1195 173.431 72.0618C174.46 73.0842 178.307 74.7178 180.283 74.526C180.734 74.4825 181.034 74.3531 181.176 74.1419C181.359 73.8731 181.723 73.8013 181.993 73.9837C182.263 74.1654 182.333 74.5313 182.152 74.8007C181.804 75.3161 181.214 75.6172 180.397 75.6972C180.253 75.7108 180.102 75.7178 179.947 75.7178Z" fill="#495998"/>
<path d="M198.76 98.0584C198.661 98.0584 198.561 98.0337 198.47 97.9814C198.187 97.8202 198.088 97.4608 198.25 97.179L200.415 93.3801C200.576 93.0977 200.934 92.9989 201.217 93.1601C201.499 93.3207 201.598 93.6801 201.437 93.9624L199.272 97.7614C199.164 97.9514 198.965 98.0584 198.76 98.0584Z" fill="#495998"/>
<path d="M212.861 10.0656C211.783 10.0656 210.911 9.19258 210.911 8.1149C210.911 7.03782 211.783 6.16427 212.861 6.16427C213.938 6.16427 214.812 7.03782 214.812 8.1149C214.812 9.19258 213.938 10.0656 212.861 10.0656Z" fill="#495998"/>
<path d="M222.284 10.0656C221.207 10.0656 220.333 9.19258 220.333 8.1149C220.333 7.03782 221.207 6.16427 222.284 6.16427C223.361 6.16427 224.234 7.03782 224.234 8.1149C224.234 9.19258 223.361 10.0656 222.284 10.0656Z" fill="#495998"/>
<path d="M210.911 17.5381C210.911 16.4611 211.783 15.5875 212.861 15.5875C213.938 15.5875 214.812 16.4611 214.812 17.5381C214.812 18.6158 213.938 19.4888 212.861 19.4888C211.783 19.4888 210.911 18.6158 210.911 17.5381Z" fill="#495998"/>
<path d="M191.231 8.1149C191.231 7.03782 192.104 6.16427 193.182 6.16427C194.259 6.16427 195.132 7.03782 195.132 8.1149C195.132 9.19258 194.259 10.0656 193.182 10.0656C192.104 10.0656 191.231 9.19258 191.231 8.1149Z" fill="#495998"/>
<path d="M191.231 17.5381C191.231 16.4611 192.104 15.5875 193.182 15.5875C194.259 15.5875 195.132 16.4611 195.132 17.5381C195.132 18.6158 194.259 19.4888 193.182 19.4888C192.104 19.4888 191.231 18.6158 191.231 17.5381Z" fill="#495998"/>
<path d="M222.284 19.4888C221.207 19.4888 220.333 18.6158 220.333 17.5381C220.333 16.4611 221.207 15.5875 222.284 15.5875C223.361 15.5875 224.234 16.4611 224.234 17.5381C224.234 18.6158 223.361 19.4888 222.284 19.4888Z" fill="#495998"/>
<path d="M200.654 8.1149C200.654 7.03782 201.527 6.16427 202.604 6.16427C203.682 6.16427 204.555 7.03782 204.555 8.1149C204.555 9.19258 203.682 10.0656 202.604 10.0656C201.527 10.0656 200.654 9.19258 200.654 8.1149Z" fill="#495998"/>
<path d="M200.654 17.5381C200.654 16.4611 201.527 15.5875 202.604 15.5875C203.682 15.5875 204.555 16.4611 204.555 17.5381C204.555 18.6158 203.682 19.4888 202.604 19.4888C201.527 19.4888 200.654 18.6158 200.654 17.5381Z" fill="#495998"/>
<path d="M191.231 26.9613C191.231 25.8842 192.104 25.0107 193.182 25.0107C194.259 25.0107 195.132 25.8842 195.132 26.9613C195.132 28.0384 194.259 28.9119 193.182 28.9119C192.104 28.9119 191.231 28.0384 191.231 26.9613Z" fill="#495998"/>
<path d="M200.654 26.9613C200.654 25.8842 201.527 25.0107 202.604 25.0107C203.682 25.0107 204.555 25.8842 204.555 26.9613C204.555 28.0384 203.682 28.9119 202.604 28.9119C201.527 28.9119 200.654 28.0384 200.654 26.9613Z" fill="#495998"/>
<g clip-path="url(#clip0_70_613)">
<path d="M160.316 113.591C152.962 113.917 147.264 120.143 147.591 127.497C147.917 134.851 154.143 140.549 161.497 140.223C168.851 139.897 174.549 133.67 174.223 126.316C173.897 118.962 167.67 113.264 160.316 113.591ZM164.965 131.987C164.415 132.719 163.68 133.23 162.808 133.51C162.429 133.631 162.263 133.842 162.303 134.241C162.337 134.635 162.337 135.024 162.349 135.419C162.365 135.77 162.192 135.964 161.848 135.99C161.623 136.006 161.399 136.021 161.174 136.031C160.977 136.04 160.78 136.049 160.582 136.052C160.209 136.063 160.024 135.857 160.008 135.496C159.99 135.211 159.977 134.92 159.965 134.635C159.931 134 159.908 133.979 159.296 133.907C158.512 133.816 157.737 133.675 157.009 133.361C156.438 133.112 156.372 132.977 156.504 132.379C156.605 131.935 156.707 131.491 156.824 131.052C156.909 130.73 156.996 130.583 157.166 130.576C157.264 130.571 157.392 130.615 157.566 130.695C158.374 131.071 159.222 131.264 160.109 131.335C160.258 131.345 160.406 131.349 160.554 131.342C160.965 131.324 161.362 131.23 161.744 131.043C162.706 130.572 162.809 129.43 161.951 128.788C161.661 128.57 161.331 128.414 160.99 128.281C160.113 127.941 159.207 127.696 158.374 127.244C157.024 126.513 156.143 125.471 156.171 123.866C156.2 122.053 157.175 120.879 158.808 120.202C159.482 119.925 159.488 119.931 159.457 119.218C159.446 118.977 159.43 118.736 159.43 118.489C159.422 117.951 159.506 117.854 160.042 117.814C160.103 117.811 160.168 117.809 160.229 117.806C160.333 117.801 160.437 117.797 160.541 117.792C160.585 117.79 160.629 117.788 160.667 117.786C161.686 117.741 161.688 117.785 161.742 118.886C161.784 119.697 161.784 119.697 162.595 119.787C163.219 119.858 163.813 120.013 164.394 120.24C164.713 120.363 164.843 120.577 164.759 120.916C164.638 121.415 164.524 121.92 164.392 122.415C164.306 122.715 164.219 122.856 164.044 122.864C163.945 122.868 163.823 122.835 163.666 122.765C162.86 122.417 162.024 122.267 161.158 122.305C161.049 122.31 160.934 122.321 160.825 122.331C160.568 122.359 160.317 122.403 160.081 122.518C159.242 122.928 159.147 123.877 159.902 124.426C160.282 124.705 160.713 124.895 161.154 125.056C161.924 125.335 162.694 125.603 163.429 125.966C165.743 127.126 166.484 129.965 164.965 131.987Z" fill="white"/>
</g>
<g clip-path="url(#clip1_70_613)">
<path d="M159.141 48.7248L142.613 49.735C142.189 49.7609 141.825 49.4381 141.799 49.0146C141.773 48.5911 142.095 48.2264 142.519 48.2004L156.001 47.3764L155.826 44.4991C155.801 44.0902 155.594 43.72 155.259 43.4841C154.923 43.2466 154.502 43.1792 154.111 43.2924L139.889 47.4116C139.283 47.5873 138.886 48.1514 138.924 48.7821L139.844 63.8228C139.889 64.5609 140.526 65.1258 141.264 65.0806L160.07 63.9312C160.808 63.8861 161.372 63.2486 161.327 62.5097L160.561 49.9818C160.516 49.2437 159.879 48.6796 159.141 48.7248ZM157.273 57.8433C156.555 57.8872 155.937 57.3389 155.893 56.6215C155.849 55.9041 156.397 55.2845 157.114 55.2407C157.832 55.1968 158.451 55.7451 158.494 56.4625C158.538 57.1799 157.991 57.7994 157.273 57.8433Z" fill="white"/>
</g>
<g clip-path="url(#clip2_70_613)">
<path d="M42.971 46.0468C44.5216 46.0076 45.8145 47.2366 45.8537 48.7873C45.8929 50.3379 44.6638 51.6308 43.1132 51.67C41.5625 51.7092 40.2697 50.4801 40.2305 48.9294C40.1913 47.3788 41.4203 46.086 42.971 46.0468Z" fill="white"/>
<path d="M33.3969 56.8391L33.4146 57.542C33.4366 58.4115 34.2163 59.0761 35.1672 58.8553C36.0227 55.616 38.9317 53.1824 42.4457 53.0935L47.1419 52.9748C47.3376 52.9699 47.5195 52.8835 47.6408 52.7383C48.2856 51.9705 49.2309 51.5153 50.2358 51.4899L52.3445 51.4366C52.8002 51.4251 53.1454 51.8427 53.0495 52.2883L52.4118 55.238C52.9458 55.7685 53.3951 56.3685 53.7525 57.0278C55.1601 56.9922 56.0266 57.9745 56.0545 59.0796L56.1072 61.1629C56.1409 62.4975 55.12 63.0108 54.0408 63.8149C53.6291 64.7561 53.0425 65.5944 52.294 66.3105C52.1927 66.4065 52.0247 66.6078 52.0314 66.8735L52.0734 68.5312C52.0901 69.1923 51.5662 69.7433 50.9052 69.7601L48.3818 69.8238C47.7246 69.8405 47.1721 69.4094 47.1478 68.4483L42.8367 68.5573C42.861 69.5184 42.3309 69.9768 41.6737 69.9934L39.1504 70.0572C38.4894 70.074 37.9383 69.5501 37.9216 68.8891C37.8948 67.8268 37.9968 67.1 37.236 66.3581C35.8409 64.9944 34.9621 63.1088 34.9093 61.0209C34.9033 60.7825 34.9119 60.5473 34.9272 60.3138C34.914 60.3143 34.9007 60.3185 34.8875 60.3188C33.3473 60.3578 32.0483 59.1371 32.0088 57.5775L31.9911 56.8746C31.9676 55.948 33.3734 55.9087 33.3969 56.8391ZM51.1342 59.204C51.5224 59.1942 51.8291 58.8715 51.8193 58.4833C51.8095 58.0951 51.4868 57.7884 51.0986 57.7982C50.7105 57.808 50.4037 58.1306 50.4135 58.5189C50.4233 58.9071 50.746 59.2138 51.1342 59.204ZM42.5524 57.3109L45.749 57.2301C46.6756 57.2067 46.6439 55.8008 45.7135 55.8243L42.5168 55.9051C41.5902 55.9286 41.622 57.3345 42.5524 57.3109Z" fill="white"/>
</g>
<defs>
<clipPath id="clip0_70_613">
<rect width="26.6584" height="26.6584" fill="white" transform="translate(147 114.181) rotate(-2.53959)"/>
</clipPath>
<clipPath id="clip1_70_613">
<rect width="24.5983" height="24.5983" fill="white" transform="translate(137 42.5007) rotate(-3.49772)"/>
</clipPath>
<clipPath id="clip2_70_613">
<rect width="24" height="24" fill="white" transform="matrix(-0.999681 0.0252744 0.0252744 0.999681 55.7169 45.7245)"/>
</clipPath>
</defs>
</svg>
