<svg width="258" height="266" viewBox="0 0 258 266" fill="none" xmlns="http://www.w3.org/2000/svg">
<path d="M240.194 226.184C240.188 226.276 240.171 226.357 240.159 226.444C240.159 226.461 240.153 226.484 240.147 226.519C240.136 226.588 240.113 226.663 240.095 226.738C240.078 226.831 240.043 226.924 240.009 227.016C239.98 227.103 239.945 227.195 239.905 227.282C239.864 227.38 239.812 227.478 239.76 227.571C239.72 227.646 239.679 227.715 239.633 227.785C239.569 227.889 239.5 227.987 239.425 228.08C239.361 228.16 239.304 228.236 239.234 228.311C239.165 228.398 239.09 228.473 239.009 228.559C238.934 228.634 238.847 228.71 238.76 228.791C238.679 228.86 238.604 228.929 238.517 228.993C238.488 229.016 238.46 229.039 238.431 229.062C238.257 229.201 238.061 229.328 237.864 229.45C237.645 229.594 237.402 229.727 237.147 229.848L168.397 263.912C164.512 265.842 158.426 265.432 154.802 263.016L25.4504 176.398C25.0169 176.109 24.6471 175.808 24.3232 175.491C24.1616 175.329 24.0171 175.178 23.8782 175.011C23.2078 174.19 22.8782 173.317 22.8782 172.462C22.8841 170.97 23.9071 169.531 25.9302 168.52L94.6808 134.456C98.5709 132.531 104.669 132.953 108.27 135.364L237.627 221.981C239.471 223.212 240.321 224.733 240.194 226.184Z" fill="#ABFFF2"/>
<path d="M72.5106 9.35423V65.2808C72.5106 66.4449 71.5591 67.3964 70.3886 67.3964H7.92968C6.7657 67.3964 5.81421 66.4449 5.81421 65.2808V9.35423C5.81421 8.1843 6.7594 7.23863 7.92968 7.23863H70.3886C71.5591 7.23863 72.5106 8.1843 72.5106 9.35423Z" fill="#495998"/>
<path d="M69.7013 5.76584V61.6924C69.7013 62.856 68.7499 63.8074 67.5793 63.8074H5.12054C3.95662 63.8074 3.00513 62.856 3.00513 61.6924V5.76584C3.00513 4.59533 3.95026 3.65025 5.12054 3.65025H67.5793C68.7499 3.65025 69.7013 4.59533 69.7013 5.76584Z" fill="#AAEDFF"/>
<path d="M67.1278 6.67677V58.4739C67.1278 59.6438 66.1793 60.5918 65.0094 60.5918H2.55166C1.38161 60.5918 0.433472 59.6438 0.433472 58.4739V6.67677H67.1278Z" fill="white"/>
<path d="M67.1273 2.55022V6.67505H0.433472V2.55022C0.433472 1.38029 1.38046 0.432906 2.55096 0.432906H65.0099C66.1805 0.432906 67.1273 1.38029 67.1273 2.55022Z" fill="#7FD8F0"/>
<path d="M59.8627 1.47565C60.9419 1.47565 61.8193 2.3531 61.8193 3.43228C61.8193 4.51493 60.9419 5.38892 59.8627 5.38892C58.78 5.38892 57.9026 4.51493 57.9026 3.43228C57.9026 2.3531 58.78 1.47565 59.8627 1.47565Z" fill="white"/>
<path d="M51.9552 1.47565C53.0378 1.47565 53.9152 2.3531 53.9152 3.43228C53.9152 4.51493 53.0378 5.38892 51.9552 5.38892C50.876 5.38892 49.9985 4.51493 49.9985 3.43228C49.9985 2.3531 50.876 1.47565 51.9552 1.47565Z" fill="#495998"/>
<path d="M44.0512 1.47565C45.1339 1.47565 46.0113 2.3531 46.0113 3.43228C46.0113 4.51493 45.1339 5.38892 44.0512 5.38892C42.9721 5.38892 42.0946 4.51493 42.0946 3.43228C42.0946 2.3531 42.9721 1.47565 44.0512 1.47565Z" fill="#AAEDFF"/>
<path d="M2.55147 0.867031C1.62281 0.867031 0.867043 1.62251 0.867043 2.55198V58.4739C0.867043 59.4028 1.62281 60.1583 2.55147 60.1583H65.0094C65.9383 60.1583 66.6938 59.4028 66.6938 58.4739V2.55198C66.6938 1.62251 65.9383 0.867031 65.0094 0.867031H2.55147ZM65.0094 61.0253H2.55147C1.14455 61.0253 0 59.8808 0 58.4739V2.55198C0 1.14506 1.14455 -1.14441e-05 2.55147 -1.14441e-05H65.0094C66.4163 -1.14441e-05 67.5608 1.14506 67.5608 2.55198V58.4739C67.5608 59.8808 66.4163 61.0253 65.0094 61.0253Z" fill="#495998"/>
<path d="M254.056 67.2681V123.195C254.056 124.359 253.105 125.31 251.935 125.31H189.476C188.312 125.31 187.36 124.359 187.36 123.195V67.2681C187.36 66.0981 188.305 65.1531 189.476 65.1531H251.935C253.105 65.1531 254.056 66.0981 254.056 67.2681Z" fill="#495998"/>
<path d="M251.247 63.6796V119.606C251.247 120.77 250.296 121.721 249.125 121.721H186.666C185.502 121.721 184.551 120.77 184.551 119.606V63.6796C184.551 62.5091 185.496 61.564 186.666 61.564H249.125C250.296 61.564 251.247 62.5091 251.247 63.6796Z" fill="#AAEDFF"/>
<path d="M248.673 64.5906V116.388C248.673 117.558 247.725 118.506 246.555 118.506H184.098C182.928 118.506 181.979 117.558 181.979 116.388V64.5906H248.673Z" fill="white"/>
<path d="M248.673 60.4641V64.5895H181.979V60.4641C181.979 59.2936 182.927 58.3468 184.097 58.3468H246.556C247.727 58.3468 248.673 59.2936 248.673 60.4641Z" fill="#F37458"/>
<path d="M241.409 59.3895C242.488 59.3895 243.365 60.267 243.365 61.3462C243.365 62.4288 242.488 63.3028 241.409 63.3028C240.326 63.3028 239.449 62.4288 239.449 61.3462C239.449 60.267 240.326 59.3895 241.409 59.3895Z" fill="white"/>
<path d="M233.501 59.3895C234.584 59.3895 235.461 60.267 235.461 61.3462C235.461 62.4288 234.584 63.3028 233.501 63.3028C232.422 63.3028 231.545 62.4288 231.545 61.3462C231.545 60.267 232.422 59.3895 233.501 59.3895Z" fill="#495998"/>
<path d="M225.597 59.3895C226.68 59.3895 227.557 60.267 227.557 61.3462C227.557 62.4288 226.68 63.3028 225.597 63.3028C224.518 63.3028 223.641 62.4288 223.641 61.3462C223.641 60.267 224.518 59.3895 225.597 59.3895Z" fill="#AAEDFF"/>
<path d="M184.097 58.7809C183.169 58.7809 182.413 59.5369 182.413 60.4658V116.388C182.413 117.317 183.169 118.073 184.097 118.073H246.555C247.484 118.073 248.24 117.317 248.24 116.388V60.4658C248.24 59.5369 247.484 58.7809 246.555 58.7809H184.097ZM246.555 118.94H184.097C182.691 118.94 181.546 117.795 181.546 116.388V60.4658C181.546 59.0583 182.691 57.9138 184.097 57.9138H246.555C247.962 57.9138 249.107 59.0583 249.107 60.4658V116.388C249.107 117.795 247.962 118.94 246.555 118.94Z" fill="#495998"/>
<path d="M51.7535 98.5775V121.544C51.7535 123.415 50.2223 124.954 48.3512 124.954H36.6639L39.9083 134.944L25.9051 124.954H4.19882C2.32 124.954 0.788452 123.415 0.788452 121.544V98.5775C0.788452 96.7064 2.32 95.1672 4.19882 95.1672H48.3512C50.2223 95.1672 51.7535 96.7064 51.7535 98.5775Z" fill="white"/>
<path d="M4.19864 95.6007C2.55715 95.6007 1.22202 96.9359 1.22202 98.5775V121.544C1.22202 123.185 2.55715 124.521 4.19864 124.521H25.9052C25.9955 124.521 26.0835 124.549 26.157 124.602L39.0899 133.827L36.2516 125.088C36.2088 124.956 36.2316 124.811 36.3131 124.7C36.3946 124.587 36.5251 124.521 36.664 124.521H48.3512C49.9882 124.521 51.32 123.185 51.32 121.544V98.5775C51.32 96.9359 49.9882 95.6007 48.3512 95.6007H4.19864ZM39.9084 135.377C39.8203 135.377 39.7318 135.35 39.6566 135.297L25.7663 125.388H4.19864C2.07912 125.388 0.35498 123.663 0.35498 121.544V98.5775C0.35498 96.4579 2.07912 94.7336 4.19864 94.7336H48.3512C50.4662 94.7336 52.187 96.4579 52.187 98.5775V121.544C52.187 123.663 50.4662 125.388 48.3512 125.388H37.2608L40.3207 134.81C40.3785 134.988 40.3155 135.182 40.1647 135.293C40.0883 135.349 39.9985 135.377 39.9084 135.377Z" fill="#495998"/>
<path d="M14.7021 104.776C14.7021 107.653 12.3701 109.985 9.49353 109.985C6.61691 109.985 4.28491 107.653 4.28491 104.776C4.28491 101.899 6.61691 99.5677 9.49353 99.5677C12.3701 99.5677 14.7021 101.899 14.7021 104.776Z" fill="#F37458"/>
<path d="M48.1206 103.623H17.219V102.154H48.1206V103.623Z" fill="#F37458"/>
<path d="M48.1206 119.178H4.34741V117.71H48.1206V119.178Z" fill="#ABFFF2"/>
<path d="M48.1575 113.935H4.3844V112.467H48.1575V113.935Z" fill="#ABFFF2"/>
<path d="M48.1206 108.691H17.219V107.223H48.1206V108.691Z" fill="#ABFFF2"/>
<path d="M240.194 212.311C240.188 212.403 240.171 212.484 240.159 212.571C240.159 212.588 240.153 212.612 240.147 212.646C240.136 212.716 240.113 212.791 240.095 212.866C240.078 212.958 240.043 213.051 240.009 213.143C239.98 213.23 239.945 213.323 239.905 213.409C239.864 213.508 239.812 213.606 239.76 213.698C239.72 213.773 239.679 213.843 239.633 213.912C239.569 214.016 239.5 214.114 239.425 214.207C239.361 214.288 239.304 214.363 239.234 214.438C239.165 214.525 239.09 214.6 239.009 214.687C238.934 214.762 238.847 214.837 238.76 214.918C238.679 214.987 238.604 215.057 238.517 215.12C238.488 215.143 238.46 215.166 238.431 215.19C238.257 215.328 238.061 215.455 237.864 215.577C237.645 215.721 237.402 215.854 237.147 215.976L168.397 250.039C164.512 251.969 158.426 251.559 154.802 249.143L25.4504 162.525C25.0169 162.236 24.6471 161.936 24.3232 161.618C24.1616 161.456 24.0171 161.306 23.8782 161.138C23.2078 160.317 22.8782 159.445 22.8782 158.589C22.8841 157.098 23.9071 155.658 25.9302 154.647L94.6808 120.584C98.5709 118.659 104.669 119.081 108.27 121.491L237.627 208.109C239.471 209.34 240.321 210.86 240.194 212.311Z" fill="white"/>
<path d="M240.192 212.312L239.716 219.179C239.62 220.593 238.597 221.943 236.668 222.901L237.15 215.976C237.401 215.854 237.639 215.719 237.864 215.578C238.064 215.455 238.25 215.327 238.43 215.192C238.462 215.166 238.488 215.14 238.52 215.121C238.603 215.057 238.681 214.986 238.758 214.916C238.848 214.838 238.932 214.761 239.009 214.684C239.092 214.607 239.169 214.523 239.233 214.44C239.305 214.362 239.369 214.286 239.427 214.208C239.497 214.112 239.568 214.015 239.632 213.913C239.677 213.842 239.723 213.771 239.761 213.7C239.812 213.604 239.864 213.508 239.902 213.411C239.947 213.321 239.986 213.231 240.012 213.141C240.05 213.045 240.076 212.954 240.095 212.864C240.121 212.794 240.134 212.717 240.147 212.646C240.153 212.614 240.159 212.588 240.159 212.569C240.179 212.485 240.186 212.395 240.192 212.312Z" fill="white"/>
<path d="M240.16 212.569C240.172 212.485 240.186 212.401 240.192 212.312C240.186 212.395 240.179 212.485 240.16 212.569Z" fill="white"/>
<path d="M240.095 212.864C240.115 212.794 240.134 212.717 240.147 212.646C240.134 212.717 240.121 212.794 240.095 212.864Z" fill="white"/>
<path d="M240.012 213.141C240.044 213.051 240.076 212.961 240.095 212.864C240.076 212.954 240.05 213.044 240.012 213.141Z" fill="white"/>
<path d="M239.902 213.411C239.947 213.321 239.98 213.231 240.012 213.141C239.986 213.231 239.947 213.321 239.902 213.411Z" fill="white"/>
<path d="M239.427 214.208C239.369 214.286 239.305 214.362 239.234 214.44C239.305 214.362 239.362 214.286 239.427 214.208Z" fill="white"/>
<path d="M239.009 214.684C239.092 214.601 239.163 214.523 239.234 214.44C239.169 214.523 239.092 214.607 239.009 214.684Z" fill="white"/>
<path d="M237.864 215.578C238.064 215.455 238.257 215.327 238.43 215.192C238.25 215.327 238.064 215.455 237.864 215.578Z" fill="white"/>
<path d="M237.15 215.976C237.401 215.854 237.646 215.719 237.864 215.578C237.639 215.719 237.401 215.854 237.15 215.976Z" fill="white"/>
<path d="M237.15 215.976L236.668 222.901L167.914 256.967L168.397 250.041L237.15 215.976Z" fill="white"/>
<path d="M231.934 212.484L163.183 246.548C162.397 246.941 161.131 246.854 160.403 246.368L31.0517 159.757C30.3232 159.265 30.3636 158.531 31.144 158.144L38.0399 154.728C40.1034 153.705 43.2536 153.734 45.5426 154.815C46.687 155.352 48.0396 155.624 49.3691 155.641C50.6928 155.653 51.9991 155.41 53.028 154.901L91.0392 136.058C93.1027 135.04 93.5189 133.243 92.016 131.786C91.2588 131.052 90.9929 130.243 91.1721 129.474C91.3398 128.717 91.9525 128.017 92.9871 127.503L99.9004 124.081C100.686 123.688 101.941 123.774 102.675 124.26L232.032 210.878C232.766 211.369 232.72 212.091 231.934 212.484ZM235.142 209.334L105.79 122.722C105.623 122.607 105.444 122.509 105.253 122.404C103.288 121.341 100.513 121.063 98.2992 121.659C97.8368 121.78 97.3975 121.942 96.9987 122.139L28.2482 156.208C25.7338 157.445 25.6008 159.728 27.9418 161.288L157.299 247.906C159.634 249.467 163.559 249.733 166.073 248.49L234.83 214.427C234.997 214.346 235.142 214.259 235.292 214.172C235.431 214.08 235.569 213.981 235.691 213.889C235.754 213.843 235.812 213.791 235.87 213.739C235.928 213.687 235.98 213.635 236.032 213.583C237.298 212.311 237.015 210.589 235.142 209.334Z" fill="white"/>
<path d="M235.871 213.739C235.929 213.687 235.98 213.636 236.032 213.584C235.987 213.636 235.929 213.687 235.871 213.739Z" fill="white"/>
<path d="M235.292 214.169C235.434 214.08 235.569 213.983 235.691 213.887C235.569 213.99 235.434 214.08 235.292 214.169Z" fill="white"/>
<path d="M231.939 212.484L163.185 246.549C162.4 246.942 161.134 246.852 160.407 246.37L148.731 238.551L145.947 236.686L69.6568 185.601L66.8343 183.711L39.334 165.296L36.3827 163.323L31.0524 159.754C30.3258 159.265 30.3644 158.532 31.1488 158.146L38.0415 154.726C40.1055 153.703 43.2559 153.735 45.5449 154.816C46.6894 155.349 48.0397 155.625 49.3709 155.639C50.6952 155.651 52.0004 155.407 53.0292 154.899L91.0421 136.06C93.1063 135.037 93.5242 133.244 92.0196 131.784C91.2612 131.051 90.9976 130.241 91.1774 129.475C91.3444 128.717 91.9554 128.016 92.9907 127.501L99.9027 124.081C100.687 123.689 101.941 123.773 102.68 124.261L107.162 127.264L109.895 129.096L122.677 137.648L125.365 139.455L181.027 176.722L184.827 179.268L187.862 181.3L191.354 183.634L199.668 189.202L202.542 191.125L203.859 192.012L206.734 193.934L209.37 195.703L212.058 197.503L232.035 210.877C232.768 211.366 232.723 212.093 231.939 212.484Z" fill="#AAEDFF"/>
<path d="M109.894 129.096C104.159 141.14 93.627 150.81 80.8578 155.137C75.0902 157.092 69.0203 157.96 63.1499 158.795C60.4429 159.182 57.6395 159.58 54.9262 160.082C48.6252 161.246 43.4616 162.969 39.3339 165.296L36.3826 163.323C41.0506 160.384 46.9916 158.275 54.3407 156.918C57.1187 156.41 59.9539 156.005 62.6996 155.613C68.4221 154.797 74.3376 153.954 79.8225 152.096C91.7108 148.064 101.78 138.69 107.162 127.264L109.894 129.096Z" fill="#7FD8F0"/>
<path d="M125.365 139.455C123.719 142.811 121.179 145.975 117.926 148.598C112.756 152.764 106.692 155.253 99.8703 157.85L99.2726 158.076C93.4409 160.294 87.4028 162.589 82.4202 166.261C76.0416 170.948 71.5151 177.944 69.6567 185.601L66.8342 183.711C69.033 175.777 73.8492 168.576 80.5167 163.669C85.8537 159.741 92.097 157.368 98.1281 155.073L98.7258 154.848C105.284 152.353 111.103 149.968 115.9 146.097C118.922 143.66 121.243 140.728 122.677 137.648L125.365 139.455Z" fill="#7FD8F0"/>
<path d="M212.058 197.503C209.91 200.171 207.994 203.161 206.194 206.19L205.268 207.758C200.895 215.16 196.375 222.811 188.808 227.177C183.722 230.102 177.838 231.137 172.238 231.819C171.319 231.928 170.405 232.031 169.486 232.14C165.017 232.648 160.388 233.169 156.144 234.59C154.189 235.246 151.296 236.461 148.731 238.551L145.947 236.686C148.396 234.513 151.502 232.751 155.122 231.543C159.687 230.012 164.484 229.472 169.126 228.945C170.033 228.842 170.939 228.739 171.846 228.63C177.112 227.987 182.616 227.029 187.2 224.386C194.042 220.451 198.336 213.166 202.496 206.119L203.429 204.55C205.248 201.49 207.184 198.454 209.37 195.703L212.058 197.503Z" fill="#7FD8F0"/>
<path d="M206.734 193.934L203.101 196.442C200.761 198.056 198.272 199.477 195.707 199.477C194.954 199.477 194.202 199.355 193.437 199.078C191.026 198.217 189.187 195.876 188.531 192.816C188.139 190.99 188.171 189.177 188.203 187.427C188.216 186.888 188.223 186.354 188.223 185.82C188.216 184.303 188.094 182.792 187.862 181.3L191.354 183.634C191.405 184.354 191.431 185.074 191.438 185.801C191.438 186.36 191.431 186.919 191.418 187.485C191.386 189.125 191.36 190.675 191.675 192.141C192.003 193.658 192.922 195.484 194.524 196.056C196.529 196.776 198.954 195.394 201.275 193.793L203.859 192.012L206.734 193.934Z" fill="#7FD8F0"/>
<path d="M168.397 250.041L167.914 256.967C164.031 258.889 157.942 258.484 154.328 256.06L154.804 249.141C158.424 251.559 164.513 251.971 168.397 250.041Z" fill="white"/>
<path d="M154.804 249.141L154.328 256.06L24.9733 169.45L25.4493 162.525L154.804 249.141Z" fill="white"/>
<path d="M82.9381 135.353C83.4075 135.668 83.626 136.048 83.6005 136.421C83.5809 136.787 83.3173 137.141 82.8225 137.392L56.5372 150.412C55.5407 150.9 53.9656 150.798 53.0332 150.174C52.5702 149.865 52.3448 149.479 52.3708 149.113C52.3962 148.746 52.6535 148.393 53.1552 148.142L79.4341 135.122C80.4306 134.626 82.0185 134.736 82.9381 135.353Z" fill="#7FD8F0"/>
<path d="M25.4493 162.525L24.9733 169.45C23.1539 168.235 22.3051 166.731 22.4015 165.296L22.8838 158.372C22.8773 158.443 22.8773 158.52 22.8773 158.59C22.8773 159.446 23.2051 160.32 23.8803 161.136C24.0155 161.304 24.1632 161.465 24.3239 161.619C24.6454 161.934 25.0185 162.236 25.4493 162.525Z" fill="white"/>
<path d="M23.8802 161.136C24.0155 161.304 24.1632 161.458 24.3239 161.619C24.1632 161.465 24.0155 161.304 23.8802 161.136Z" fill="white"/>
<path d="M100.714 121.785C100.326 121.785 99.9374 121.81 99.5467 121.856C99.1594 121.905 98.7767 121.978 98.4103 122.076C97.9663 122.194 97.5577 122.345 97.1947 122.528L28.4386 156.593C27.3742 157.119 26.7599 157.846 26.7084 158.642C26.6558 159.447 27.1803 160.26 28.1851 160.93L157.54 247.547C159.758 249.03 163.5 249.28 165.884 248.103L234.637 214.038C234.791 213.961 234.93 213.883 235.068 213.799C235.183 213.725 235.304 213.646 235.412 213.556C235.49 213.498 235.534 213.459 235.577 213.42C235.627 213.376 235.672 213.337 235.706 213.298C235.712 213.291 235.718 213.284 235.725 213.279C236.198 212.803 236.419 212.257 236.364 211.702C236.294 210.991 235.775 210.279 234.904 209.694L105.548 123.085C105.387 122.974 105.219 122.878 105.046 122.782C104.755 122.625 104.471 122.498 104.182 122.395C104.178 122.393 104.173 122.392 104.168 122.39C104.167 122.389 104.113 122.369 104.113 122.369C104.059 122.348 104.008 122.327 103.953 122.311C103.952 122.31 103.952 122.31 103.95 122.31C103.95 122.31 103.95 122.31 103.949 122.31C103.942 122.307 103.935 122.304 103.928 122.302C103.899 122.296 103.871 122.288 103.844 122.277C103.778 122.25 103.707 122.229 103.636 122.207C103.633 122.206 103.631 122.205 103.628 122.204C103.588 122.196 103.555 122.184 103.53 122.173C103.513 122.17 103.491 122.165 103.478 122.161C103.372 122.127 103.265 122.099 103.153 122.076C103.129 122.072 103.106 122.065 103.084 122.056C103.06 122.051 103.013 122.04 103.013 122.04C102.955 122.04 102.904 122.028 102.858 122.006C102.827 122.006 102.828 122.004 102.798 121.998C102.656 121.967 102.515 121.943 102.368 121.918C102.194 121.887 102.025 121.862 101.849 121.844C101.804 121.84 101.762 121.834 101.719 121.834C101.63 121.826 101.598 121.821 101.565 121.821C101.463 121.814 101.404 121.809 101.34 121.809C101.327 121.809 101.284 121.805 101.27 121.804C101.225 121.8 101.183 121.795 101.141 121.795C100.999 121.789 100.856 121.785 100.714 121.785ZM162.345 249.7C160.429 249.7 158.465 249.209 157.058 248.267L27.703 161.651C26.4302 160.802 25.7695 159.713 25.8429 158.586C25.9158 157.468 26.7009 156.484 28.0543 155.816L96.808 121.752C97.2218 121.544 97.6872 121.371 98.1877 121.239C98.5918 121.131 99.0137 121.05 99.4415 120.996C100.025 120.926 100.603 120.904 101.161 120.929C101.207 120.925 101.276 120.933 101.348 120.94C101.43 120.941 101.513 120.948 101.603 120.956C101.636 120.954 101.706 120.962 101.776 120.971C101.793 120.966 101.866 120.974 101.94 120.982C102.135 121.002 102.326 121.03 102.516 121.063C102.662 121.088 102.806 121.113 102.949 121.143C102.996 121.148 103.033 121.157 103.059 121.162C103.097 121.167 103.133 121.175 103.164 121.185C103.185 121.189 103.206 121.195 103.225 121.2C103.24 121.204 103.28 121.214 103.321 121.227V121.226C103.466 121.255 103.604 121.291 103.741 121.335C103.75 121.336 103.774 121.34 103.802 121.349C103.807 121.35 103.812 121.351 103.817 121.352C103.842 121.358 103.867 121.367 103.891 121.377C103.891 121.378 103.892 121.378 103.892 121.378V121.378C103.968 121.402 104.043 121.425 104.115 121.452C104.156 121.46 104.197 121.473 104.236 121.489C104.281 121.503 104.326 121.52 104.372 121.536C104.376 121.537 104.392 121.544 104.396 121.545C104.4 121.547 104.451 121.569 104.455 121.57C104.456 121.57 104.458 121.572 104.46 121.572C104.82 121.703 105.136 121.845 105.463 122.022C105.666 122.135 105.858 122.244 106.036 122.368L235.386 208.974C236.476 209.705 237.13 210.643 237.227 211.616C237.308 212.435 237.004 213.218 236.348 213.881C236.294 213.941 236.228 214.002 236.161 214.061C236.083 214.13 236.015 214.189 235.94 214.242C235.834 214.333 235.683 214.434 235.526 214.535C235.36 214.636 235.201 214.725 235.023 214.814L166.268 248.88C165.15 249.433 163.761 249.7 162.345 249.7ZM100.472 119.801C98.4501 119.801 96.4675 120.184 94.8716 120.972L26.124 155.038C24.3163 155.938 23.3167 157.201 23.3109 158.592C23.3109 159.36 23.6234 160.146 24.2147 160.861C24.3432 161.02 24.4812 161.163 24.6306 161.312C24.9343 161.61 25.2922 161.898 25.6907 162.165L155.046 248.782C158.552 251.122 164.456 251.515 168.204 249.653L236.958 215.588C237.182 215.479 237.408 215.353 237.633 215.21C237.823 215.094 238.002 214.975 238.163 214.85C238.216 214.805 238.255 214.775 238.298 214.749C238.329 214.722 238.397 214.658 238.464 214.597C238.557 214.516 238.632 214.447 238.702 214.377C238.777 214.303 238.839 214.234 238.902 214.16C238.905 214.157 238.941 214.116 238.943 214.113C238.96 214.087 239.004 214.037 239.026 214.015C239.029 214.011 239.09 213.935 239.093 213.932C239.147 213.856 239.209 213.772 239.264 213.684C239.306 213.617 239.346 213.556 239.379 213.494C239.428 213.403 239.469 213.328 239.5 213.251C239.552 213.143 239.578 213.069 239.604 212.995C239.625 212.944 239.632 212.917 239.639 212.891C239.644 212.872 239.65 212.854 239.657 212.836C239.66 212.828 239.677 212.752 239.68 212.743C239.693 212.692 239.709 212.628 239.721 212.568C239.721 212.536 239.73 212.504 239.737 212.472C239.751 212.415 239.754 212.353 239.758 212.295C239.879 210.923 239.036 209.571 237.386 208.466L108.03 121.851C106.018 120.504 103.21 119.801 100.472 119.801ZM162.617 251.684C159.702 251.684 156.711 250.936 154.564 249.502L25.208 162.886C24.765 162.588 24.3658 162.266 24.0208 161.929C23.8456 161.753 23.6875 161.588 23.5432 161.409C22.8252 160.54 22.4438 159.564 22.4438 158.59C22.4512 156.877 23.6523 155.301 25.7381 154.261L94.4866 120.196C98.4929 118.215 104.785 118.634 108.513 121.13L237.868 207.746C239.793 209.034 240.772 210.669 240.624 212.349C240.616 212.458 240.606 212.558 240.586 212.653C240.582 212.676 240.579 212.698 240.576 212.71C240.558 212.806 240.536 212.895 240.514 212.977C240.498 213.048 240.484 213.098 240.469 213.141C240.453 213.199 240.435 213.256 240.41 213.312C240.382 213.393 240.343 213.499 240.29 213.605C240.263 213.676 240.209 213.782 240.153 213.887C240.099 213.986 240.048 214.067 239.997 214.146C239.934 214.248 239.86 214.35 239.786 214.451C239.784 214.454 239.743 214.508 239.74 214.511C239.716 214.541 239.692 214.572 239.664 214.602C239.641 214.632 239.616 214.662 239.589 214.691C239.487 214.812 239.408 214.898 239.316 214.991C239.231 215.075 239.139 215.16 239.039 215.244C238.964 215.314 238.878 215.393 238.785 215.465L238.456 215.169L238.738 215.5C238.524 215.668 238.326 215.803 238.09 215.947C237.844 216.102 237.59 216.245 237.341 216.366L168.589 250.43C166.89 251.274 164.774 251.684 162.617 251.684Z" fill="#495998"/>
<path d="M23.1449 160.863L22.834 165.327C22.7437 166.668 23.5893 168.005 25.2143 169.089L154.569 255.699C158.065 258.044 163.966 258.439 167.722 256.578L236.476 222.512C238.197 221.658 239.194 220.463 239.284 219.149L239.593 214.687C239.591 214.688 239.59 214.69 239.589 214.691C239.498 214.806 239.405 214.908 239.304 215.002C239.231 215.075 239.139 215.16 239.039 215.244C238.964 215.314 238.878 215.393 238.785 215.465L238.456 215.169L238.738 215.5C238.524 215.668 238.326 215.803 238.09 215.947C237.844 216.102 237.59 216.245 237.341 216.366L168.589 250.43C164.594 252.415 158.302 251.997 154.564 249.502L25.208 162.885C24.765 162.588 24.3658 162.266 24.0208 161.929C23.8456 161.753 23.6875 161.588 23.5432 161.409C23.3962 161.231 23.2632 161.049 23.1449 160.863ZM162.136 258.606C159.219 258.606 156.229 257.857 154.087 256.42L24.7322 169.81C22.8385 168.546 21.8567 166.932 21.969 165.268L22.4477 158.395C22.449 158.374 22.4504 158.353 22.4519 158.332C22.4741 158.096 22.6831 157.919 22.9189 157.94C23.1557 157.959 23.333 158.165 23.3163 158.402L23.3127 158.456C23.3107 158.501 23.3109 158.547 23.3109 158.59C23.3109 159.36 23.6234 160.146 24.2147 160.861C24.3432 161.02 24.4812 161.163 24.6306 161.312C24.9343 161.61 25.2922 161.898 25.6907 162.165L155.045 248.782C158.552 251.122 164.456 251.515 168.204 249.653L236.958 215.588C237.182 215.479 237.408 215.353 237.633 215.21C237.823 215.094 238.002 214.975 238.163 214.85C238.216 214.805 238.255 214.775 238.298 214.749C238.329 214.722 238.397 214.659 238.464 214.597C238.557 214.516 238.632 214.447 238.702 214.377C238.78 214.305 238.839 214.24 238.89 214.174C238.897 214.167 238.936 214.121 238.943 214.113C238.96 214.087 239.004 214.037 239.026 214.015C239.029 214.011 239.09 213.935 239.093 213.932C239.147 213.856 239.209 213.772 239.264 213.684C239.306 213.617 239.346 213.556 239.379 213.494C239.428 213.403 239.469 213.328 239.499 213.251C239.547 213.151 239.576 213.087 239.595 213.021C239.625 212.944 239.632 212.917 239.639 212.891C239.644 212.872 239.65 212.854 239.657 212.836C239.66 212.828 239.677 212.752 239.68 212.743C239.703 212.675 239.709 212.628 239.717 212.584C239.718 212.583 239.73 212.52 239.73 212.52C239.751 212.415 239.754 212.353 239.758 212.295C239.758 212.292 239.759 212.29 239.759 212.287L239.76 212.282C239.786 212.05 239.996 211.876 240.224 211.888C240.461 211.906 240.641 212.103 240.624 212.342L240.149 219.208C240.038 220.843 238.869 222.292 236.861 223.289L168.107 257.355C166.405 258.198 164.29 258.606 162.136 258.606Z" fill="#495998"/>
<path d="M235.002 209.546C192.296 181.128 148.705 152.047 106.103 123.332C103.608 121.495 100.025 121.159 97.1969 122.389C93.6108 124.147 81.8376 129.969 78.0746 131.817C68.9799 136.316 45.1709 148.027 36.3494 152.391L29.3966 155.823C28.2848 156.368 26.9964 156.877 26.5509 158.1C26.1213 159.333 27.0134 160.507 28.0256 161.157C68.2735 188.15 116.785 220.875 156.827 247.513C158.908 249.047 161.653 249.485 164.163 249.03C165.442 248.836 166.557 248.146 167.722 247.588L171.194 245.863C180.084 241.452 203.668 229.677 212.834 225.119L226.713 218.203L233.653 214.745C236.21 213.71 238.012 211.734 235.002 209.546ZM235.286 209.123C238.325 211.276 237.171 213.918 233.865 215.169L226.909 218.596L212.999 225.449C203.678 230.046 180.25 241.577 171.268 246.012C170.109 246.632 167.174 248.001 166.052 248.586C164.273 249.414 162.218 249.501 160.311 249.15C159.032 248.916 157.799 248.39 156.755 247.62C131.787 230.806 104.339 212.454 79.4451 195.85L27.8513 161.417C26.7386 160.72 25.7458 159.353 26.2443 157.993C26.7135 156.658 28.0983 156.091 29.2474 155.521L36.1896 152.068L50.0726 145.159C61.2742 139.581 84.2445 128.145 95.1871 122.695L96.9253 121.83C98.7547 120.971 100.856 120.874 102.817 121.226C104.115 121.449 105.422 122.022 106.474 122.787C149.262 151.258 192.732 180.442 235.286 209.123Z" fill="#495998"/>
<path d="M235.871 214.173C235.752 214.173 235.634 214.124 235.547 214.028C235.473 213.945 235.438 213.842 235.438 213.739C235.438 213.62 235.487 213.501 235.583 213.416C235.634 213.37 235.68 213.324 235.725 213.278C235.892 213.113 236.158 213.108 236.328 213.268C236.499 213.428 236.512 213.695 236.357 213.871C236.302 213.934 236.231 213.999 236.16 214.062C236.077 214.136 235.973 214.173 235.871 214.173Z" fill="#495998"/>
<path d="M235.293 214.603C235.15 214.603 235.01 214.533 234.927 214.403C234.881 214.331 234.859 214.25 234.859 214.17C234.859 214.027 234.93 213.887 235.058 213.805C235.187 213.722 235.312 213.634 235.423 213.546C235.609 213.402 235.878 213.429 236.027 213.613C236.176 213.796 236.151 214.066 235.971 214.218C235.834 214.333 235.683 214.434 235.526 214.535C235.454 214.582 235.372 214.603 235.293 214.603Z" fill="#495998"/>
<path d="M234.83 214.86C234.671 214.86 234.518 214.773 234.442 214.62C234.41 214.558 234.396 214.492 234.396 214.427C234.396 214.268 234.484 214.115 234.636 214.039C234.791 213.961 234.93 213.883 235.068 213.799C235.272 213.674 235.538 213.74 235.663 213.945C235.706 214.015 235.726 214.093 235.726 214.17C235.726 214.316 235.651 214.459 235.517 214.54C235.36 214.636 235.201 214.725 235.023 214.814C234.961 214.846 234.895 214.86 234.83 214.86Z" fill="#495998"/>
<path d="M142.017 58.3323L145.184 59.8259C145.307 59.8837 145.395 59.9953 145.423 60.1276C145.451 60.2606 145.416 60.3982 145.328 60.501L138.857 68.0154L153.496 59.5149L148.081 57.5404C147.922 57.4826 147.811 57.3375 147.798 57.1693C147.784 57.0005 147.869 56.8392 148.016 56.756L160.442 49.7237L150.974 44.0301L142.017 58.3323ZM136.849 70.116C136.724 70.116 136.601 70.0616 136.516 69.9593C136.381 69.7963 136.382 69.5599 136.521 69.3998L144.299 60.3669L141.205 58.908C141.093 58.8548 141.009 58.7566 140.974 58.6375C140.939 58.519 140.957 58.3907 141.022 58.286L150.465 43.2093C150.591 43.0087 150.854 42.9457 151.056 43.0677L161.526 49.3636C161.658 49.4428 161.738 49.5867 161.736 49.7405C161.733 49.8948 161.649 50.0364 161.515 50.1121L149.261 57.0479L154.662 59.0178C154.821 59.075 154.931 59.219 154.946 59.3866C154.96 59.5542 154.877 59.7155 154.732 59.7999L137.067 70.057C136.999 70.0969 136.924 70.116 136.849 70.116Z" fill="#495998"/>
<path d="M157.5 65.1941L142.355 71.3963L158.582 69.1605L157.5 65.1941ZM139.021 72.7264C138.828 72.7264 138.654 72.5969 138.602 72.4056C138.546 72.1952 138.655 71.9749 138.857 71.8923L157.625 64.2062C157.74 64.1588 157.869 64.1635 157.981 64.2184C158.092 64.2733 158.175 64.3733 158.207 64.4929L159.548 69.4085C159.581 69.5287 159.56 69.657 159.492 69.7617C159.423 69.8651 159.312 69.9345 159.189 69.9518L139.08 72.7229C139.06 72.7252 139.04 72.7264 139.021 72.7264Z" fill="#495998"/>
<path d="M137.181 50.9463L136.265 64.0883L140.868 52.1151L137.181 50.9463ZM135.631 67.3785C135.6 67.3785 135.568 67.3756 135.538 67.3686C135.327 67.3218 135.183 67.1293 135.199 66.9149L136.355 50.3365C136.364 50.2041 136.433 50.0833 136.543 50.0081C136.653 49.933 136.791 49.9134 136.918 49.9538L141.568 51.4278C141.682 51.4642 141.776 51.5457 141.828 51.6532C141.88 51.7607 141.885 51.885 141.842 51.9966L136.036 67.101C135.97 67.271 135.807 67.3785 135.631 67.3785Z" fill="#495998"/>
<path d="M123.495 26.9639C121.979 26.9639 119.448 27.8864 116.284 29.6326C111.567 32.2349 105.889 36.3782 100.294 41.2984C94.6999 46.2192 89.8652 51.322 86.6815 55.667C83.7017 59.7346 82.4688 62.7831 83.3826 63.823C85.1786 65.8623 95.6808 60.6583 107.883 49.9272C120.085 39.1955 126.589 29.4436 124.794 27.4026C124.535 27.1084 124.094 26.9639 123.495 26.9639ZM84.7098 65.1276C83.8462 65.1276 83.1722 64.8964 82.7318 64.3953C81.1445 62.5912 83.6231 58.3745 85.982 55.1549C89.2017 50.7601 94.0814 45.6082 99.7218 40.6475C105.362 35.6869 111.095 31.5054 115.865 28.8737C119.36 26.9448 123.859 25.0269 125.446 26.8298C128.282 30.0551 118.809 41.473 108.455 50.5781C99.7096 58.2699 89.4074 65.1276 84.7098 65.1276Z" fill="#495998"/>
<path d="M123.049 37.2337C118.029 37.2337 110.945 38.0811 102.762 40.0227C95.5125 41.7429 88.849 43.981 83.9988 46.3244C79.459 48.518 76.9399 50.6318 77.259 51.9786C77.5792 53.326 80.7832 54.0884 85.8207 54.0029C91.2068 53.9173 98.1657 52.9231 105.415 51.2029C121.224 47.4515 131.543 41.8909 130.918 39.247C130.615 37.9707 127.73 37.2337 123.049 37.2337ZM85.1017 54.8757C81.2699 54.8757 76.937 54.3757 76.4156 52.1792C75.8607 49.8411 80.0277 47.2804 83.6219 45.544C88.5265 43.1741 95.253 40.9134 102.562 39.1794C115.978 35.9962 130.771 34.8678 131.761 39.0464C132.753 43.2255 119.03 48.8631 105.615 52.0468C98.3067 53.7809 91.282 54.7832 85.8346 54.8699C85.593 54.8734 85.3485 54.8757 85.1017 54.8757Z" fill="#495998"/>
<path d="M95.0368 60.5282C92.4108 63.2028 94.1564 67.0201 94.3281 67.3755C94.1686 67.0461 92.2593 63.2843 88.5166 63.686C91.1489 60.9924 89.3848 57.1681 89.2253 56.8392C89.3969 57.1942 91.3073 60.9236 95.0368 60.5282Z" fill="white"/>
<path d="M89.4479 63.2346C91.0999 63.3461 92.3525 64.2022 93.223 65.0923C93.0634 63.8571 93.1686 62.3438 94.1045 60.9791C92.4519 60.8652 91.1999 60.0097 90.3299 59.1202C90.4883 60.3542 90.3831 61.867 89.4479 63.2346ZM94.3287 67.8091C94.1675 67.8091 94.0131 67.7189 93.938 67.564C93.9374 67.5628 93.9368 67.5617 93.9363 67.5605C93.738 67.1519 91.9825 63.7548 88.5629 64.1172C88.3831 64.1363 88.2063 64.0403 88.1265 63.8756C88.0467 63.7109 88.0791 63.5137 88.2063 63.3831C90.6161 60.9178 89.0248 57.4196 88.8352 57.0283C88.7305 56.8127 88.8207 56.5531 89.0363 56.4491C89.2519 56.345 89.5115 56.4346 89.6155 56.6502C89.8051 57.0416 91.564 60.4595 94.9912 60.097C95.1721 60.0762 95.3478 60.1745 95.427 60.3398C95.5068 60.504 95.4744 60.7011 95.3461 60.8317C92.9351 63.2877 94.5287 66.7946 94.7183 67.1865C94.823 67.4021 94.7328 67.6611 94.5172 67.7657C94.4565 67.7952 94.3917 67.8091 94.3287 67.8091Z" fill="#495998"/>
<path d="M112.313 31.7968C109.688 34.4713 111.433 38.2886 111.605 38.6435C111.445 38.3146 109.536 34.5528 105.793 34.9545C108.426 32.2609 106.662 28.4367 106.502 28.1078C106.674 28.4627 108.584 32.1921 112.313 31.7968Z" fill="white"/>
<path d="M106.724 34.5025C108.377 34.6146 109.629 35.4707 110.5 36.3614C110.34 35.1256 110.445 33.6123 111.382 32.2476C109.729 32.1331 108.476 31.2771 107.605 30.3863C107.764 31.621 107.66 33.1349 106.724 34.5025ZM111.605 39.0776C111.444 39.0776 111.29 38.9874 111.215 38.8325C111.214 38.8319 111.214 38.8308 111.213 38.8302C111.018 38.4267 109.262 35.0204 105.84 35.3857C105.66 35.4071 105.483 35.3082 105.403 35.1441C105.323 34.9794 105.355 34.7823 105.483 34.6516C107.892 32.1875 106.301 28.6875 106.111 28.2962C106.007 28.0812 106.097 27.8216 106.312 27.7176C106.529 27.613 106.788 27.7031 106.892 27.9182C106.892 27.9182 106.892 27.9182 106.892 27.9187C106.892 27.9187 106.892 27.9187 106.892 27.9193C107.083 28.3141 108.849 31.7279 112.268 31.3655C112.449 31.3447 112.624 31.443 112.704 31.6077C112.783 31.7725 112.751 31.9696 112.623 32.1002C110.212 34.5562 111.805 38.0631 111.996 38.455C112.1 38.6701 112.009 38.9296 111.794 39.0342C111.733 39.0637 111.669 39.0776 111.605 39.0776Z" fill="#495998"/>
<path d="M129.871 42.3325C127.245 45.007 128.99 48.8249 129.162 49.1798C129.003 48.8503 127.094 45.0885 123.351 45.4908C125.983 42.7966 124.219 38.973 124.06 38.6435C124.231 38.9984 126.142 42.7284 129.871 42.3325Z" fill="white"/>
<path d="M124.282 45.0394C125.933 45.151 127.185 46.007 128.056 46.8978C127.897 45.6625 128.001 44.1492 128.939 42.7833C127.287 42.6695 126.035 41.8134 125.164 40.9238C125.323 42.1579 125.218 43.6706 124.282 45.0394ZM129.163 49.6133C129.002 49.6133 128.847 49.5237 128.772 49.3688L128.772 49.3682C128.58 48.9717 126.814 45.5573 123.397 45.9215C123.209 45.9405 123.04 45.8446 122.961 45.6798C122.881 45.5157 122.913 45.3186 123.041 45.1874C125.448 42.7244 123.862 39.2308 123.669 38.8343C123.669 38.8337 123.669 38.8331 123.669 38.8325C123.565 38.6175 123.654 38.358 123.87 38.2533C124.086 38.1487 124.345 38.2395 124.449 38.4545C124.639 38.8458 126.387 42.2591 129.825 41.9019C130.005 41.8828 130.181 41.9793 130.262 42.144C130.341 42.3088 130.309 42.5059 130.18 42.6365C127.767 45.0943 129.363 48.5989 129.553 48.9908C129.657 49.2064 129.567 49.4654 129.351 49.57C129.291 49.5995 129.227 49.6133 129.163 49.6133Z" fill="#495998"/>
<path d="M91.8559 39.7996C91.923 40.8712 91.1091 41.7943 90.0375 41.862C88.9658 41.929 88.0421 41.1146 87.9751 40.0429C87.908 38.9712 88.7219 38.0481 89.7935 37.9805C90.8652 37.9134 91.7889 38.7279 91.8559 39.7996Z" fill="#F37458"/>
<path d="M80.3427 57.7647C80.3988 58.6572 79.7208 59.4259 78.8283 59.482C77.9358 59.5381 77.167 58.8601 77.111 57.9676C77.0555 57.0751 77.7335 56.3063 78.6254 56.2503C79.5179 56.1942 80.2867 56.8722 80.3427 57.7647Z" fill="#F37458"/>
<path d="M109.716 43.9319C109.752 44.5035 109.317 44.9966 108.745 45.0324C108.173 45.0688 107.68 44.6336 107.644 44.0613C107.608 43.4897 108.043 42.9966 108.615 42.9608C109.187 42.925 109.68 43.3596 109.716 43.9319Z" fill="#F37458"/>
<path d="M130.298 32.0424C130.359 33.0141 129.621 33.8499 128.65 33.9112C127.679 33.9719 126.843 33.2343 126.782 32.2632C126.721 31.2921 127.459 30.4563 128.43 30.395C129.401 30.3343 130.237 31.0719 130.298 32.0424Z" fill="#F37458"/>
<path d="M121.21 22.7558C121.248 23.3604 120.789 23.8812 120.184 23.9194C119.58 23.9569 119.059 23.498 119.021 22.8934C118.983 22.2888 119.442 21.7679 120.047 21.7298C120.652 21.6916 121.172 22.1512 121.21 22.7558Z" fill="#F37458"/>
<path d="M230.509 167.374H187.36V139.019H230.509V167.374Z" fill="white"/>
<path d="M187.794 166.94H230.075V139.453H187.794V166.94ZM230.509 167.807H187.36C187.121 167.807 186.927 167.613 186.927 167.374V139.019C186.927 138.78 187.121 138.586 187.36 138.586H230.509C230.748 138.586 230.942 138.78 230.942 139.019V167.374C230.942 167.613 230.748 167.807 230.509 167.807Z" fill="#495998"/>
<path d="M208.935 157.534C208.836 157.534 208.736 157.5 208.656 157.432L187.082 139.352C186.898 139.198 186.874 138.925 187.028 138.741C187.182 138.557 187.455 138.534 187.638 138.687L208.935 156.535L230.231 138.687C230.414 138.534 230.687 138.556 230.841 138.741C230.995 138.925 230.971 139.198 230.787 139.352L209.213 157.432C209.133 157.5 209.033 157.534 208.935 157.534Z" fill="#495998"/>
<path d="M187.36 167.807C187.239 167.807 187.119 167.757 187.032 167.658C186.876 167.477 186.895 167.203 187.076 167.046L203.695 152.62C203.874 152.464 204.149 152.482 204.306 152.663C204.463 152.844 204.444 153.118 204.263 153.275L187.644 167.701C187.562 167.772 187.461 167.807 187.36 167.807Z" fill="#495998"/>
<path d="M230.509 167.807C230.408 167.807 230.307 167.772 230.225 167.701L213.606 153.275C213.425 153.118 213.406 152.844 213.563 152.663C213.72 152.482 213.995 152.464 214.174 152.62L230.793 167.046C230.974 167.203 230.993 167.477 230.837 167.658C230.75 167.757 230.63 167.807 230.509 167.807Z" fill="#495998"/>
<path d="M195.669 139.019C195.669 143.032 192.416 146.285 188.403 146.285C184.39 146.285 181.137 143.032 181.137 139.019C181.137 135.006 184.39 131.753 188.403 131.753C192.416 131.753 195.669 135.006 195.669 139.019Z" fill="#F37458"/>
<path d="M239.447 99.3342C239.192 99.3342 238.937 99.2573 238.718 99.1024L233.358 95.3134C232.788 94.9105 232.653 94.1221 233.056 93.5527C233.458 92.9834 234.246 92.8487 234.816 93.2504L239.447 96.5244L244.082 93.2504C244.652 92.847 245.44 92.9834 245.842 93.5527C246.245 94.1227 246.109 94.9111 245.539 95.3134L240.176 99.1024C239.958 99.2573 239.703 99.3342 239.447 99.3342Z" fill="#495998"/>
<path d="M239.447 106.335C239.191 106.335 238.936 106.258 238.717 106.103L233.357 102.314C232.787 101.912 232.652 101.123 233.055 100.554C233.457 99.9845 234.246 99.8492 234.815 100.252L239.447 103.525L244.081 100.252C244.651 99.8481 245.439 99.9845 245.842 100.554C246.244 101.124 246.109 101.912 245.539 102.314L240.176 106.103C239.957 106.258 239.702 106.335 239.447 106.335Z" fill="#495998"/>
<path d="M239.447 114.227C239.191 114.227 238.936 114.15 238.717 113.995L233.357 110.206C232.787 109.803 232.652 109.015 233.055 108.446C233.457 107.876 234.246 107.741 234.815 108.143L239.447 111.417L244.081 108.143C244.651 107.74 245.439 107.876 245.842 108.446C246.244 109.016 246.109 109.803 245.539 110.206L240.176 113.995C239.957 114.15 239.702 114.227 239.447 114.227Z" fill="#495998"/>
<path d="M244.242 141.741C243.021 141.741 242.031 140.751 242.031 139.53C242.031 138.308 243.021 137.318 244.242 137.318C245.464 137.318 246.454 138.308 246.454 139.53C246.454 140.751 245.464 141.741 244.242 141.741Z" fill="#495998"/>
<path d="M254.926 141.741C253.705 141.741 252.714 140.751 252.714 139.53C252.714 138.308 253.705 137.318 254.926 137.318C256.148 137.318 257.138 138.308 257.138 139.53C257.138 140.751 256.148 141.741 254.926 141.741Z" fill="#495998"/>
<path d="M242.031 150.214C242.031 148.992 243.021 148.002 244.242 148.002C245.464 148.002 246.454 148.992 246.454 150.214C246.454 151.435 245.464 152.426 244.242 152.426C243.021 152.426 242.031 151.435 242.031 150.214Z" fill="#495998"/>
<path d="M242.031 160.898C242.031 159.676 243.021 158.686 244.242 158.686C245.464 158.686 246.454 159.676 246.454 160.898C246.454 162.119 245.464 163.11 244.242 163.11C243.021 163.11 242.031 162.119 242.031 160.898Z" fill="#495998"/>
<path d="M242.031 171.582C242.031 170.361 243.021 169.37 244.242 169.37C245.464 169.37 246.454 170.361 246.454 171.582C246.454 172.803 245.464 173.793 244.242 173.793C243.021 173.793 242.031 172.803 242.031 171.582Z" fill="#495998"/>
<path d="M242.031 182.266C242.031 181.044 243.021 180.054 244.242 180.054C245.464 180.054 246.454 181.044 246.454 182.266C246.454 183.488 245.464 184.478 244.242 184.478C243.021 184.478 242.031 183.488 242.031 182.266Z" fill="#495998"/>
<path d="M254.926 152.426C253.705 152.426 252.714 151.435 252.714 150.214C252.714 148.992 253.705 148.002 254.926 148.002C256.148 148.002 257.138 148.992 257.138 150.214C257.138 151.435 256.148 152.426 254.926 152.426Z" fill="#495998"/>
<path d="M252.714 160.898C252.714 159.676 253.705 158.686 254.926 158.686C256.148 158.686 257.138 159.676 257.138 160.898C257.138 162.119 256.148 163.11 254.926 163.11C253.705 163.11 252.714 162.119 252.714 160.898Z" fill="#495998"/>
<path d="M252.714 171.582C252.714 170.361 253.705 169.37 254.926 169.37C256.148 169.37 257.138 170.361 257.138 171.582C257.138 172.803 256.148 173.793 254.926 173.793C253.705 173.793 252.714 172.803 252.714 171.582Z" fill="#495998"/>
<path d="M252.714 182.266C252.714 181.044 253.705 180.054 254.926 180.054C256.148 180.054 257.138 181.044 257.138 182.266C257.138 183.488 256.148 184.478 254.926 184.478C253.705 184.478 252.714 183.488 252.714 182.266Z" fill="#495998"/>
<path d="M242.031 192.95C242.031 191.729 243.021 190.738 244.242 190.738C245.464 190.738 246.454 191.729 246.454 192.95C246.454 194.171 245.464 195.161 244.242 195.161C243.021 195.161 242.031 194.171 242.031 192.95Z" fill="#495998"/>
<path d="M252.714 192.95C252.714 191.729 253.705 190.738 254.926 190.738C256.148 190.738 257.138 191.729 257.138 192.95C257.138 194.171 256.148 195.161 254.926 195.161C253.705 195.161 252.714 194.171 252.714 192.95Z" fill="#495998"/>
<path d="M26.8176 200.899C26.8176 202.12 25.8272 203.111 24.6059 203.111C23.3844 203.111 22.394 202.12 22.394 200.899C22.394 199.677 23.3844 198.687 24.6059 198.687C25.8272 198.687 26.8176 199.677 26.8176 200.899Z" fill="#495998"/>
<path d="M26.8176 190.215C26.8176 191.436 25.8272 192.426 24.6059 192.426C23.3844 192.426 22.394 191.436 22.394 190.215C22.394 188.993 23.3844 188.003 24.6059 188.003C25.8272 188.003 26.8176 188.993 26.8176 190.215Z" fill="#495998"/>
<path d="M35.2898 203.111C34.0685 203.111 33.0781 202.12 33.0781 200.899C33.0781 199.677 34.0685 198.687 35.2898 198.687C36.5113 198.687 37.5016 199.677 37.5016 200.899C37.5016 202.12 36.5113 203.111 35.2898 203.111Z" fill="#495998"/>
<path d="M24.6059 225.423C23.3844 225.423 22.394 224.433 22.394 223.211C22.394 221.99 23.3844 221 24.6059 221C25.8272 221 26.8176 221.99 26.8176 223.211C26.8176 224.433 25.8272 225.423 24.6059 225.423Z" fill="#495998"/>
<path d="M35.2898 225.423C34.0685 225.423 33.0781 224.433 33.0781 223.211C33.0781 221.99 34.0685 221 35.2898 221C36.5113 221 37.5016 221.99 37.5016 223.211C37.5016 224.433 36.5113 225.423 35.2898 225.423Z" fill="#495998"/>
<path d="M37.5016 190.215C37.5016 191.436 36.5113 192.426 35.2898 192.426C34.0685 192.426 33.0781 191.436 33.0781 190.215C33.0781 188.993 34.0685 188.003 35.2898 188.003C36.5113 188.003 37.5016 188.993 37.5016 190.215Z" fill="#495998"/>
<path d="M24.6059 214.739C23.3844 214.739 22.394 213.749 22.394 212.528C22.394 211.306 23.3844 210.316 24.6059 210.316C25.8272 210.316 26.8176 211.306 26.8176 212.528C26.8176 213.749 25.8272 214.739 24.6059 214.739Z" fill="#495998"/>
<path d="M35.2898 214.739C34.0685 214.739 33.0781 213.749 33.0781 212.528C33.0781 211.306 34.0685 210.316 35.2898 210.316C36.5113 210.316 37.5016 211.306 37.5016 212.528C37.5016 213.749 36.5113 214.739 35.2898 214.739Z" fill="#495998"/>
<path d="M45.9737 225.423C44.7524 225.423 43.7622 224.433 43.7622 223.211C43.7622 221.99 44.7524 221 45.9737 221C47.1951 221 48.1853 221.99 48.1853 223.211C48.1853 224.433 47.1951 225.423 45.9737 225.423Z" fill="#495998"/>
<path d="M45.9737 214.739C44.7524 214.739 43.7622 213.749 43.7622 212.528C43.7622 211.306 44.7524 210.316 45.9737 210.316C47.1951 210.316 48.1853 211.306 48.1853 212.528C48.1853 213.749 47.1951 214.739 45.9737 214.739Z" fill="#495998"/>
<path d="M182.509 192.377C182.22 193.394 181.827 194.4 181.33 195.394C179.301 199.463 175.521 203.301 169.994 206.515C152.4 216.735 123.782 216.735 106.077 206.515C102.088 204.215 99.0015 201.59 96.7992 198.798C94.5622 195.949 93.2501 192.914 92.8571 189.851C92.2444 184.989 93.9611 180.053 98.0131 175.648C98.2096 175.429 98.4119 175.215 98.6258 175.001C100.562 173.03 102.978 171.174 105.874 169.492C123.464 159.267 152.076 159.267 169.781 169.492C173.087 171.4 175.78 173.533 177.856 175.804C178.642 176.66 179.342 177.539 179.949 178.429C182.988 182.88 183.845 187.718 182.509 192.377Z" fill="#232348"/>
<path d="M214.278 29.7956C214.452 28.9147 217.03 15.6565 217.236 14.9166C217.455 14.1519 220.387 14.3964 220.747 16.1258C221.107 17.8616 218.599 30.3609 218.599 30.3609C218.599 30.3609 223.885 17.6044 224.296 16.9165C224.714 16.2351 227.286 17.3408 226.958 18.7686C226.643 20.1506 222.104 31.6921 221.821 32.4123C222.168 31.8014 227.119 22.9604 227.485 22.8702C227.864 22.7806 229.601 23.7194 229.15 25.2043C228.707 26.6962 224.72 35.7944 224.72 35.7944C224.72 35.7944 224.971 46.4486 220.336 52.3L215.976 69.075C212.825 68.8755 206.022 68.1044 201.611 65.0178L207.624 49.7729C207.624 49.7729 204.132 43.6388 203.342 42.1602C202.55 40.681 198.924 34.1418 197.233 31.9493C197.233 31.9493 198.448 30.1233 201.245 31.2551C204.048 32.3869 207.283 38.8487 207.283 38.8487L210.093 29.4355C210.093 29.4355 211.205 16.209 211.436 15.3859C211.662 14.557 213.777 13.9975 214.832 15.0328C215.847 16.042 214.375 28.9338 214.278 29.7956Z" fill="white"/>
<path d="M217.688 69.1409C217.688 69.1409 207.63 100.505 207.052 102.031C206.474 103.545 202.133 110.204 200.347 112.123C198.555 114.048 173.179 141.614 173.179 141.614L177.856 175.804L178.215 178.429L181.33 195.394C179.301 199.463 175.521 203.301 169.994 206.515C152.4 216.735 123.782 216.735 106.077 206.515C102.088 204.215 99.0016 201.59 96.7993 198.798L98.0132 175.648L98.0478 175.001L99.0883 172.325L95.782 160.203C95.782 160.203 91.6086 155.972 91.3427 154.279C91.0768 152.579 87.2329 143.29 87.2329 143.29C87.2329 143.29 50.8923 101.996 50.1698 99.1348C49.4588 96.2793 43.4126 64.1294 43.4126 64.1294C44.1698 64.1929 45.0022 64.2218 45.875 64.2161C50.846 64.1987 57.2333 63.2739 60.5974 62.7247C62.0367 62.482 62.9211 62.3201 62.9211 62.3201C62.9211 62.3201 68.6435 78.1003 68.9383 79.187C69.2389 80.2795 68.4066 81.6205 68.4066 81.6205C68.4066 81.6205 69.921 81.7419 70.4875 82.7766C71.0539 83.817 71.6204 86.9268 71.6204 86.9268L91.6433 105.129C98.1924 105.158 112.395 109.984 112.395 109.984C113.845 108.851 115.805 108.684 115.805 108.684V111.146C115.805 111.146 130.839 126.25 137.608 124.325C144.383 122.406 143.018 109.799 143.018 109.799L141.99 107.395L141.394 106.002C142.377 105.557 144.654 104.609 146.099 104.707C147.972 104.846 150.654 105.129 150.654 105.129C150.654 105.129 178.77 92.8227 180.417 92.1059C182.07 91.395 184.439 92.2851 184.439 92.2851C184.439 92.2851 184.931 90.8516 185.243 90.262C185.556 89.6724 187.833 89.2331 187.833 89.2331L200.798 64.401C201.058 64.6207 201.33 64.823 201.613 65.0195C206.024 68.1062 212.827 68.875 215.977 69.0773C217.035 69.1409 217.688 69.1409 217.688 69.1409Z" fill="#F37458"/>
<path d="M143.017 109.802C143.017 109.802 144.38 122.404 137.609 124.326C130.839 126.249 115.806 111.145 115.806 111.145V108.683V97.3596C116.134 97.3146 116.455 97.244 116.777 97.1602C116.777 97.1602 119.529 113.254 141.988 107.397L143.017 109.802Z" fill="white"/>
<path d="M141.396 106.002L141.988 107.397C119.529 113.254 116.777 97.1602 116.777 97.1602C121.246 105.062 130.196 104.902 131.874 105.108C133.205 105.282 137.648 104.047 139.982 102.709L141.396 106.002Z" fill="#495998"/>
<path d="M139.982 102.709C137.648 104.047 133.205 105.282 131.874 105.108C130.196 104.902 121.246 105.062 116.777 97.1602C116.455 97.2441 116.134 97.3146 115.806 97.3597C114.616 97.5204 113.388 97.392 112.257 96.9805C110.508 96.3441 109.016 95.0389 108.155 93.3927C108.155 93.3927 108.148 93.3799 108.135 93.3603C107.569 92.2418 107.274 90.9493 107.441 89.7019C107.621 88.4355 108.303 87.2199 109.357 86.513C109.833 86.2043 110.373 85.9922 110.926 85.902C110.926 85.902 114.346 85.7667 116.809 89.2326C116.809 89.2326 117.053 86.8731 115.581 83.9217C114.102 80.9702 110.366 79.3373 110.218 76.7975C110.218 76.7975 117.027 76.4697 122.171 71.3773C122.171 71.3773 119.342 70.0715 118.822 69.705C118.307 69.3322 125.888 70.123 131.617 66.3941C133.282 67.8987 134.613 69.8143 135.436 72.0524H135.443C135.443 72.0524 141.043 84.6032 141.75 88.6089C142.464 92.621 142.348 99.9637 141.306 101.623C141.088 101.976 140.612 102.343 139.982 102.709Z" fill="white"/>
<path d="M131.617 66.3941C125.888 70.123 118.307 69.3322 118.821 69.7051C119.342 70.0715 122.171 71.3773 122.171 71.3773C117.027 76.4697 110.218 76.7975 110.218 76.7975C110.366 79.3373 114.102 80.9702 115.581 83.9217C117.053 86.8731 116.809 89.2326 116.809 89.2326C114.346 85.7667 110.926 85.902 110.926 85.902C110.372 85.9922 109.833 86.2043 109.357 86.513C108.303 87.2199 107.62 88.4355 107.441 89.7019C107.274 90.9493 107.569 92.2418 108.135 93.3603C107.698 92.7626 100.632 82.9118 100.87 79.787C101.114 76.5657 103.673 72.5536 103.673 72.5536C103.673 72.5536 102.933 70.2455 103.326 68.2779C103.725 66.3103 112.43 60.1826 117.941 57.9C123.451 55.611 125.316 51.059 125.316 51.059C125.316 51.059 129.141 53.7145 128.267 58.7358C128.267 58.7358 129.778 57.4821 130.17 55.6884C130.17 55.6884 133.481 59.4497 132.549 63.6548C132.549 63.6548 135.443 67.545 135.436 72.0524C134.613 69.8143 133.282 67.8987 131.617 66.3941Z" fill="#495998"/>
<path d="M44.4866 30.2777C44.1525 29.217 40.6416 18.2668 40.976 16.6142C41.3361 14.8848 44.2744 14.6403 44.4866 15.4056C44.6987 16.1513 48.6403 29.1586 48.8397 29.8147C48.6917 29.1395 45.8756 16.5374 46.8975 15.5212C47.9524 14.486 50.0611 15.0455 50.2929 15.8749C50.5177 16.6981 53.0252 29.4355 53.0252 29.4355L55.835 38.8487C55.835 38.8487 56.8321 36.8557 58.2015 34.8944C59.2945 33.3193 58.0211 31.4025 58.5616 30.1684C60.1691 26.4841 61.8662 30.3482 61.8662 30.3482C62.291 31.6921 63.6794 35.28 62.4517 37.3955C61.2494 39.4597 60.1691 41.4267 59.7766 42.1602C58.9858 43.6388 55.4946 49.7729 55.4946 49.7729L60.5997 62.7224C57.2304 63.2756 50.8455 64.2016 45.8756 64.2143L42.7825 52.3C38.1468 46.4486 38.3976 35.7944 38.3976 35.7944C38.3976 35.7944 33.8775 26.8442 33.4338 25.3592C32.9902 23.8673 34.7197 22.9281 35.099 23.0182C35.472 23.1148 41.1302 32.1551 41.3038 32.4378C41.1625 32.0649 36.4816 20.1766 36.1601 18.7686C35.8322 17.3408 38.404 16.2351 38.8219 16.9165C39.2141 17.572 44.0363 29.191 44.4866 30.2777Z" fill="white"/>
<path d="M215.977 69.5085C215.94 69.5085 215.904 69.5039 215.867 69.4946C215.635 69.4345 215.496 69.1975 215.556 68.9663L219.916 52.1908C219.931 52.1324 219.958 52.078 219.996 52.0306C224.479 46.3723 224.29 35.9094 224.287 35.8048C224.286 35.7412 224.298 35.6782 224.323 35.6204C224.363 35.5297 228.304 26.5303 228.735 25.0812C228.848 24.7072 228.787 24.3506 228.553 24.0182C228.288 23.6437 227.87 23.3997 227.649 23.3234C227.333 23.7437 226.227 25.4748 222.393 32.28L222.197 32.6262C222.085 32.8245 221.838 32.9008 221.634 32.8031C221.428 32.7054 221.334 32.4655 221.417 32.2534L221.44 32.1973C223.757 26.298 226.313 19.6472 226.535 18.672C226.651 18.1657 226.153 17.7414 225.934 17.583C225.349 17.1599 224.757 17.0963 224.645 17.1657C224.378 17.6241 221.119 25.4113 219 30.5274C218.914 30.7326 218.688 30.8413 218.473 30.7759C218.259 30.7112 218.13 30.4945 218.174 30.276C219.175 25.2864 220.574 17.4235 220.322 16.2137C220.162 15.4397 219.317 15.1333 218.962 15.038C218.238 14.8432 217.715 14.9796 217.64 15.0651C217.538 15.449 216.606 20.1373 214.882 28.9673L214.704 29.8788C214.659 30.1072 214.444 30.258 214.212 30.2239C213.982 30.1887 213.822 29.9783 213.848 29.7471L213.855 29.6864C214.732 21.8876 215.005 15.9854 214.518 15.3322C214.021 14.8449 213.202 14.842 212.651 14.9906C212.19 15.1154 211.896 15.3461 211.855 15.4998C211.692 16.0784 210.971 24.172 210.525 29.4719C210.522 29.5014 210.517 29.5309 210.508 29.5592L207.698 38.9724C207.647 39.1429 207.498 39.2649 207.321 39.2805C207.14 39.299 206.974 39.2019 206.895 39.0429C206.863 38.9799 203.702 32.7141 201.083 31.6569C199.234 30.9089 198.195 31.5846 197.79 31.9702C199.625 34.4869 203.089 40.7695 203.723 41.9556C204.502 43.4128 207.966 49.4971 208 49.5584C208.065 49.6723 208.076 49.8099 208.027 49.9318L202.014 65.1767C201.926 65.3999 201.675 65.5085 201.453 65.4212C201.23 65.3334 201.121 65.0814 201.209 64.8588L207.144 49.807C206.561 48.7804 203.667 43.6885 202.959 42.3643C201.939 40.4579 198.466 34.2586 196.89 32.2141C196.776 32.0673 196.769 31.8638 196.872 31.7089C196.886 31.6881 198.32 29.6037 201.408 30.8534C203.685 31.7725 206.136 35.8372 207.17 37.7111L209.665 29.3546C209.795 27.7991 210.785 16.0992 211.019 15.2692C211.154 14.7744 211.679 14.3559 212.424 14.1536C213.231 13.9339 214.367 13.9698 215.135 14.7235C215.671 15.2559 215.696 17.9686 215.486 21.3726C216.297 17.2634 216.736 15.0987 216.819 14.801C216.958 14.3143 217.525 14.042 218.357 14.0738C219.524 14.116 220.903 14.749 221.171 16.0374C221.411 17.194 220.533 22.4339 219.822 26.2905C221.426 22.4425 223.646 17.1582 223.924 16.694C224.212 16.2247 224.9 16.1449 225.726 16.483C226.696 16.8796 227.627 17.794 227.381 18.8657C227.201 19.6512 225.746 23.5003 224.383 27.0309C226.971 22.55 227.164 22.5026 227.382 22.4495C227.837 22.3396 228.594 22.772 229.029 23.235C229.6 23.8425 229.791 24.587 229.565 25.3303C229.138 26.7667 225.59 34.8898 225.156 35.8811C225.171 37.0331 225.171 46.8111 220.732 52.4965L216.395 69.1842C216.344 69.379 216.169 69.5085 215.977 69.5085Z" fill="#495998"/>
<path d="M115.806 111.579C115.567 111.579 115.372 111.384 115.372 111.145V97.3596C115.372 97.1429 115.533 96.9596 115.747 96.9302C116.024 96.8926 116.316 96.8325 116.668 96.7406C116.785 96.7099 116.909 96.7302 117.012 96.7966C117.113 96.8619 117.183 96.9671 117.204 97.0868C117.213 97.14 118.186 102.454 123.232 105.703C127.734 108.601 134.008 109.029 141.879 106.977C142.088 106.922 142.303 107.029 142.387 107.227L143.415 109.631C143.51 109.851 143.407 110.106 143.187 110.2C142.969 110.293 142.713 110.192 142.618 109.972L141.736 107.909C133.78 109.921 127.395 109.421 122.749 106.423C118.207 103.491 116.797 99.103 116.448 97.6851C116.376 97.7007 116.307 97.7145 116.239 97.7273V111.145C116.239 111.384 116.045 111.579 115.806 111.579Z" fill="#495998"/>
<path d="M118.183 99.8972C119.033 101.687 120.563 103.984 123.232 105.703C127.64 108.541 133.749 109.011 141.392 107.102L139.772 103.317C137.369 104.558 133.256 105.725 131.818 105.538C131.665 105.519 131.445 105.503 131.17 105.484C128.884 105.32 122.531 104.863 118.183 99.8972ZM132.935 109.118C128.939 109.118 125.532 108.219 122.749 106.423C117.383 102.96 116.389 97.466 116.349 97.2336C116.314 97.0261 116.433 96.8227 116.631 96.7521C116.83 96.6822 117.05 96.7643 117.154 96.9469C121.08 103.89 128.456 104.42 131.232 104.619C131.525 104.64 131.76 104.657 131.926 104.677C133.164 104.84 137.502 103.631 139.766 102.333C139.873 102.272 140.002 102.259 140.119 102.298C140.236 102.338 140.331 102.424 140.38 102.538L141.795 105.83C141.795 105.831 141.796 105.831 141.796 105.832L142.387 107.227C142.436 107.343 142.433 107.475 142.377 107.588C142.322 107.701 142.22 107.784 142.098 107.816C138.768 108.684 135.709 109.118 132.935 109.118Z" fill="#495998"/>
<path d="M116.777 96.7267C116.93 96.7267 117.076 96.8088 117.154 96.9469C121.08 103.89 128.456 104.42 131.232 104.619C131.525 104.64 131.76 104.657 131.926 104.677C133.166 104.842 137.5 103.632 139.765 102.334C140.529 101.89 140.824 101.578 140.937 101.395C141.845 99.9509 142.06 92.825 141.323 88.6846C140.658 84.9147 135.488 73.2229 135.073 72.2876C135.055 72.261 135.04 72.2321 135.029 72.2015C134.296 70.2079 133.102 68.3946 131.567 66.9391C127.473 69.4773 122.617 69.8408 120.222 69.9674C120.9 70.3033 121.731 70.6963 122.353 70.983C122.482 71.0426 122.574 71.1616 122.598 71.3021C122.623 71.442 122.578 71.5848 122.476 71.6853C118.001 76.1159 112.379 77.0171 110.715 77.1911C110.976 78.2517 111.96 79.1887 113.079 80.254C114.109 81.2349 115.276 82.3465 115.968 83.7274C117.48 86.7574 117.25 89.1759 117.24 89.277C117.222 89.4568 117.094 89.6059 116.919 89.6516C116.743 89.6984 116.56 89.6308 116.456 89.484C114.168 86.2644 111.069 86.3303 110.941 86.3349C110.506 86.4094 110.021 86.5985 109.593 86.8765C108.686 87.484 108.04 88.5649 107.87 89.7632C107.726 90.8383 107.957 92.0481 108.522 93.1649C109.35 94.7417 110.759 95.9741 112.405 96.5729C113.466 96.9591 114.622 97.0827 115.748 96.9301C116.024 96.8926 116.316 96.8325 116.668 96.7406C116.704 96.7313 116.741 96.7267 116.777 96.7267ZM132.167 105.558C132.038 105.558 131.921 105.551 131.818 105.538C131.665 105.519 131.445 105.503 131.17 105.484C128.579 105.298 120.763 104.735 116.564 97.659C116.313 97.7168 116.086 97.759 115.864 97.7891C114.6 97.9608 113.301 97.8215 112.108 97.3879C110.262 96.7157 108.681 95.3331 107.77 93.5938C107.105 92.2845 106.843 90.8955 107.011 89.6447C107.216 88.2031 108.003 86.899 109.116 86.1528C109.649 85.806 110.249 85.573 110.856 85.4742C111.036 85.4655 113.901 85.3863 116.342 87.9782C116.246 87.0476 115.965 85.6626 115.193 84.1153C114.569 82.8696 113.508 81.8592 112.482 80.8823C111.142 79.6072 109.878 78.4026 109.786 76.8223C109.779 76.7072 109.819 76.5939 109.896 76.5078C109.973 76.4217 110.082 76.3702 110.197 76.3645C110.262 76.3616 116.512 76.0009 121.413 71.5015C120.536 71.0905 118.976 70.3437 118.572 70.0599C118.42 69.9524 118.329 69.7223 118.382 69.5443C118.488 69.1865 118.742 69.1738 119.811 69.12C122.023 69.0091 127.205 68.7495 131.38 66.0305C131.545 65.9235 131.761 65.9403 131.907 66.0721C133.646 67.6426 134.997 69.6345 135.819 71.8373C135.827 71.8495 135.832 71.8622 135.838 71.8755C136.068 72.3899 141.468 84.521 142.177 88.5337C142.903 92.6123 142.785 100.085 141.673 101.853C141.432 102.245 140.949 102.649 140.2 103.084C140.199 103.084 140.198 103.085 140.198 103.086C138.046 104.319 133.951 105.558 132.167 105.558Z" fill="#495998"/>
<path d="M125.468 51.7445C124.793 53.0393 122.671 56.4046 118.107 58.3005C112.434 60.6502 104.08 66.7369 103.751 68.364C103.385 70.1987 104.079 72.3992 104.086 72.4212C104.125 72.5443 104.108 72.6778 104.038 72.7865C104.014 72.8258 101.535 76.7466 101.302 79.82C101.146 81.8702 104.612 87.469 106.988 90.9695C106.946 90.5187 106.953 90.0736 107.011 89.6447C107.216 88.2031 108.003 86.8991 109.116 86.1528C109.649 85.806 110.249 85.5731 110.856 85.4742C111.036 85.4656 113.901 85.3864 116.342 87.9782C116.246 87.0476 115.965 85.6627 115.193 84.1153C114.569 82.8696 113.508 81.8592 112.482 80.8824C111.142 79.6072 109.878 78.4026 109.786 76.8223C109.779 76.7073 109.819 76.594 109.896 76.5078C109.973 76.4217 110.082 76.3703 110.197 76.3645C110.262 76.361 116.512 76.0009 121.413 71.5015C120.537 71.0906 118.976 70.3438 118.572 70.0599C118.42 69.9524 118.329 69.7224 118.382 69.5443C118.488 69.1865 118.742 69.1738 119.811 69.1201C122.023 69.0091 127.205 68.7495 131.38 66.0305C131.545 65.9236 131.761 65.9403 131.907 66.0721C133.006 67.0652 133.95 68.2264 134.705 69.5033C133.987 66.3525 132.223 63.9438 132.201 63.9132C132.126 63.8126 132.098 63.6837 132.125 63.5612C132.781 60.604 131.18 57.8265 130.332 56.6138C129.732 58.0705 128.6 59.0231 128.543 59.0693C128.403 59.1849 128.207 59.2023 128.049 59.1109C127.892 59.0202 127.808 58.841 127.839 58.6618C128.489 54.9318 126.38 52.5705 125.468 51.7445ZM108.135 93.7938C108.001 93.7938 107.87 93.7319 107.785 93.6163C107.709 93.5123 100.177 83.1696 100.437 79.7541C100.661 76.8032 102.704 73.3033 103.202 72.49C103.029 71.8732 102.554 69.931 102.901 68.1935C103.356 65.9461 112.423 59.7167 117.775 57.5C123.04 55.3121 124.897 50.9382 124.915 50.8937C124.965 50.7729 125.067 50.6804 125.193 50.6428C125.317 50.6058 125.454 50.6278 125.563 50.7023C125.713 50.8075 128.953 53.1116 128.829 57.4878C129.197 57 129.583 56.3456 129.747 55.5959C129.782 55.4358 129.903 55.3098 130.062 55.2688C130.218 55.2277 130.388 55.2792 130.495 55.4017C130.635 55.5601 133.845 59.2681 133.012 63.5571C133.567 64.3554 135.876 67.9195 135.87 72.0524C135.869 72.2628 135.718 72.442 135.512 72.479C135.303 72.5154 135.102 72.3986 135.029 72.2015C134.296 70.2079 133.102 68.3946 131.567 66.9392C127.473 69.4773 122.617 69.8409 120.222 69.9675C120.9 70.3033 121.731 70.6963 122.353 70.983C122.482 71.0426 122.574 71.1617 122.598 71.3021C122.623 71.442 122.578 71.5848 122.476 71.6854C118.001 76.1159 112.379 77.0171 110.715 77.1911C110.976 78.2518 111.96 79.1887 113.079 80.2541C114.109 81.235 115.276 82.3465 115.968 83.7274C117.48 86.7574 117.25 89.1759 117.24 89.2771C117.222 89.4568 117.094 89.606 116.919 89.6516C116.743 89.6985 116.56 89.6308 116.456 89.484C114.168 86.2644 111.069 86.3303 110.941 86.3349C110.506 86.4095 110.021 86.5985 109.593 86.8765C108.686 87.484 108.04 88.5649 107.87 89.7632C107.726 90.8383 107.957 92.0481 108.522 93.1649C108.624 93.366 108.554 93.6123 108.362 93.7302C108.291 93.7736 108.213 93.7938 108.135 93.7938Z" fill="#495998"/>
<path d="M45.8749 64.6478C45.6824 64.6478 45.5067 64.5183 45.4558 64.323L42.3859 52.4965C37.9629 46.8313 37.9464 37.1013 37.9622 35.8938C37.4476 34.8736 33.448 26.9216 33.0183 25.4829C32.7952 24.7332 32.9898 23.9847 33.5661 23.3748C34.0086 22.9066 34.7366 22.4864 35.199 22.5968C35.5756 22.6939 37.561 25.6974 39.2352 28.3222C37.0717 22.7402 35.8971 19.5645 35.7372 18.8651C35.4911 17.794 36.4226 16.879 37.3923 16.483C38.2173 16.1454 38.9062 16.2252 39.1914 16.6899C39.3826 17.0096 40.4967 19.6188 41.6898 22.4529C40.9122 19.6096 40.3988 17.2813 40.5511 16.5281C40.821 15.2316 42.2073 14.6004 43.3813 14.5622C44.1986 14.5304 44.7703 14.8073 44.9044 15.2894C44.998 15.62 45.8315 18.3813 46.7448 21.4003C46.1656 17.7622 46.113 15.6894 46.5922 15.2137C47.3575 14.4634 48.487 14.4247 49.2899 14.6391C50.0396 14.8391 50.5702 15.2576 50.7101 15.7582C50.9373 16.5894 53.3482 28.8309 53.4505 29.3517L55.9482 37.7123C56.3742 36.9406 57.0441 35.7938 57.8459 34.6458C58.3753 33.8828 58.2383 32.9753 58.106 32.0973C57.9921 31.3447 57.8846 30.6337 58.1643 29.995C58.7077 28.7499 59.3354 28.1436 60.0846 28.143C60.0851 28.143 60.0857 28.143 60.0863 28.143C61.3348 28.143 62.1718 29.9661 62.2631 30.1742C62.3192 30.3424 62.3666 30.4863 62.4198 30.647C62.9851 32.3528 64.0371 35.5273 62.8261 37.6134C61.7019 39.5429 60.6152 41.5122 60.1585 42.3648C59.451 43.6885 56.5574 48.7804 55.9742 49.8069L61.0031 62.5635C61.0909 62.786 60.9817 63.038 60.7585 63.1259C60.5372 63.2137 60.2846 63.1045 60.1961 62.8814L55.091 49.9318C55.043 49.8098 55.0528 49.6723 55.1176 49.5584C55.1528 49.4971 58.6152 43.4128 59.3944 41.9556C59.8533 41.0972 60.947 39.1163 62.077 37.1776C63.0915 35.4302 62.0816 32.3834 61.5973 30.9199C61.5423 30.7551 61.4932 30.6071 61.4528 30.4794C61.251 30.0291 60.6262 29.0101 60.0863 29.0101C60.0857 29.0101 60.0851 29.0101 60.0851 29.0101C59.7383 29.0106 59.3273 29.4962 58.9586 30.3418C58.7794 30.7522 58.8684 31.3424 58.9626 31.9678C59.1135 32.9643 59.2846 34.0938 58.5574 35.1412C57.2204 37.0551 56.2326 39.0227 56.2228 39.0429C56.1436 39.2019 55.9765 39.2972 55.7973 39.2805C55.6204 39.2654 55.4702 39.1429 55.4199 38.9724L52.6101 29.5592C51.7338 25.1188 50.0494 16.6281 49.8743 15.9894C49.8315 15.835 49.5332 15.6015 49.0662 15.4767C48.5211 15.331 47.7049 15.3368 47.2015 15.8304C46.8466 16.372 47.3246 20.9344 49.2442 29.6372L49.2627 29.7222C49.313 29.9493 49.1743 30.1754 48.9488 30.2343C48.7251 30.2933 48.4928 30.1638 48.4246 29.9407C48.2471 29.3557 44.283 16.2749 44.0697 15.5241C43.9882 15.4466 43.4327 15.3437 42.7547 15.5293C42.4009 15.6252 41.5604 15.9327 41.4006 16.7027C41.2148 17.6206 42.4992 22.5737 44.8373 29.9499L44.8998 30.1476C44.9697 30.3684 44.8529 30.6054 44.6344 30.6852C44.4171 30.7644 44.1749 30.658 44.0859 30.4436C42.379 26.3234 38.7557 17.6506 38.4499 17.1391C38.3603 17.0992 37.7696 17.1593 37.1835 17.5836C36.9642 17.742 36.4663 18.1662 36.5824 18.6714C36.7079 19.2212 37.6569 21.92 41.4659 31.6615C41.6052 32.017 41.6914 32.2383 41.709 32.2846C41.7883 32.4938 41.6955 32.7291 41.4948 32.8274C41.2949 32.9256 41.0511 32.8557 40.9341 32.6649C40.396 31.7869 35.7729 24.4477 34.9341 23.4569C34.7711 23.5211 34.3324 23.7471 34.0384 24.1621C33.8009 24.4974 33.737 24.8587 33.8492 25.235C34.1913 26.3806 37.227 32.5152 38.7843 35.599C38.8166 35.6626 38.8324 35.7331 38.8309 35.8048C38.8284 35.9094 38.6394 46.3723 43.1223 52.0306C43.1599 52.078 43.1871 52.1324 43.2021 52.1907L46.2951 64.1051C46.3552 64.3368 46.2159 64.5738 45.9841 64.634C45.9477 64.6432 45.9113 64.6478 45.8749 64.6478Z" fill="#495998"/>
<path d="M58.5974 91.3643C58.4922 91.3643 58.387 91.3267 58.3038 91.2499C58.1275 91.088 58.1159 90.814 58.2778 90.6377L66.6569 81.5159C66.8187 81.339 67.0927 81.328 67.269 81.4899C67.4453 81.6517 67.4569 81.9257 67.295 82.102L58.9165 91.2239C58.8309 91.3175 58.7142 91.3643 58.5974 91.3643Z" fill="#495998"/>
<path d="M59.8459 93.6487C59.7089 93.6487 59.5737 93.5834 59.4899 93.462C59.3529 93.2654 59.402 92.9949 59.5991 92.8591L69.0944 86.2765C69.2915 86.1407 69.5614 86.1898 69.6973 86.3857C69.8343 86.5829 69.7851 86.8528 69.588 86.9892L60.0928 93.5712C60.0176 93.6232 59.9315 93.6487 59.8459 93.6487Z" fill="#495998"/>
<path d="M39.8695 34.0961C39.7295 34.0961 39.592 34.0285 39.5087 33.9025C39.3757 33.7031 39.4299 33.4343 39.629 33.3019C42.9599 31.0835 46.8183 29.6419 50.7864 29.1315C51.0263 29.0985 51.2419 29.2684 51.272 29.5066C51.3026 29.7436 51.1344 29.9609 50.8974 29.9916C47.0604 30.4852 43.3304 31.8788 40.1095 34.0233C40.0359 34.073 39.9524 34.0961 39.8695 34.0961Z" fill="#495998"/>
<path d="M45.0953 43.6966C45.0363 43.6966 44.9768 43.6851 44.9195 43.6591C44.7005 43.562 44.6022 43.3059 44.6999 43.0874L48.0825 35.4846C48.1796 35.2655 48.4368 35.1672 48.6548 35.2649C48.8738 35.362 48.9721 35.6181 48.8744 35.8372L45.4918 43.4394C45.4201 43.6013 45.2612 43.6966 45.0953 43.6966Z" fill="#495998"/>
<path d="M45.8154 52.5624C45.6264 52.5624 45.4524 52.4376 45.3987 52.2474C45.3333 52.0168 45.4669 51.7769 45.6969 51.7116L50.6211 50.3127C50.8524 50.248 51.0911 50.3804 51.157 50.6116C51.2223 50.8416 51.0888 51.0815 50.8581 51.1468L45.9339 52.5457C45.8946 52.5566 45.8547 52.5624 45.8154 52.5624Z" fill="#495998"/>
<path d="M216.359 53.1035C216.322 53.1035 216.284 53.0983 216.246 53.0884L210.162 51.4439C209.932 51.3809 209.795 51.1434 209.858 50.9122C209.919 50.6809 210.154 50.5451 210.389 50.6064L216.472 52.2515C216.703 52.3139 216.84 52.552 216.777 52.7832C216.726 52.9763 216.551 53.1035 216.359 53.1035Z" fill="#495998"/>
<path d="M218.06 45.8712C217.881 45.8712 217.712 45.7585 217.651 45.5787C216.557 42.3909 215.163 39.2874 213.508 36.3551C213.391 36.1464 213.464 35.8823 213.673 35.7644C213.881 35.647 214.146 35.7204 214.264 35.9291C215.944 38.9077 217.359 42.0591 218.47 45.2966C218.548 45.5232 218.427 45.77 218.201 45.8475C218.155 45.8637 218.107 45.8712 218.06 45.8712Z" fill="#495998"/>
<path d="M222.782 33.5517C222.679 33.5517 222.577 33.5164 222.494 33.443C219.827 31.0846 216.122 29.9078 212.583 30.3031C212.342 30.3274 212.13 30.1575 212.104 29.9199C212.078 29.6817 212.249 29.4679 212.487 29.4413C216.264 29.0234 220.221 30.2754 223.069 32.7939C223.248 32.9522 223.265 33.2262 223.107 33.406C223.021 33.5025 222.901 33.5517 222.782 33.5517Z" fill="#495998"/>
<path d="M172.885 141.134C172.69 141.134 172.513 141.003 172.464 140.804L168.185 123.375C168.127 123.142 168.27 122.907 168.502 122.85C168.731 122.793 168.969 122.935 169.027 123.168L173.306 140.597C173.364 140.83 173.221 141.065 172.989 141.122C172.954 141.13 172.919 141.134 172.885 141.134Z" fill="#495998"/>
<path d="M174.395 137.226C174.159 137.226 173.965 137.037 173.961 136.8L173.779 125.478C173.775 125.239 173.965 125.042 174.205 125.038C174.208 125.038 174.21 125.038 174.212 125.038C174.449 125.038 174.642 125.228 174.646 125.465L174.828 136.786C174.832 137.026 174.642 137.223 174.402 137.226C174.4 137.226 174.397 137.226 174.395 137.226Z" fill="#495998"/>
<path d="M188.165 100.521C188.045 100.521 187.925 100.472 187.839 100.375L182.263 94.0377C182.105 93.8579 182.122 93.584 182.302 93.4262C182.482 93.2678 182.756 93.2851 182.914 93.4649L188.491 99.8018C188.649 99.9816 188.631 100.256 188.451 100.413C188.369 100.486 188.267 100.521 188.165 100.521Z" fill="#495998"/>
<path d="M187.972 96.8406C187.761 96.8406 187.577 96.6874 187.544 96.4729L186.685 90.8759C186.649 90.6389 186.811 90.4175 187.048 90.3817C187.283 90.3464 187.506 90.5077 187.542 90.7441L188.401 96.3412C188.438 96.5776 188.275 96.799 188.039 96.8354C188.016 96.8388 187.994 96.8406 187.972 96.8406Z" fill="#495998"/>
<path d="M103.541 160.376C103.417 160.376 103.295 160.324 103.208 160.222L89.5068 143.895C89.3531 143.711 89.3773 143.438 89.5606 143.284C89.7438 143.129 90.0178 143.153 90.1716 143.337L103.873 159.664C104.027 159.847 104.003 160.121 103.819 160.275C103.738 160.343 103.639 160.376 103.541 160.376Z" fill="#495998"/>
<path d="M101.039 162.162C100.973 162.162 100.906 162.148 100.843 162.116L96.0883 159.71C95.875 159.602 95.7888 159.341 95.8975 159.127C96.0056 158.914 96.2663 158.828 96.4802 158.936L101.235 161.342C101.448 161.45 101.534 161.711 101.426 161.925C101.349 162.076 101.197 162.162 101.039 162.162Z" fill="#495998"/>
<path d="M129.501 77.5298C129.501 77.5298 129.486 80.3627 130.723 83.2904C131.958 86.2176 134.42 87.347 135.315 86.7806C136.21 86.2141 137.447 84.1632 136.668 82.7072C136.668 82.7072 135.868 81.839 134.791 81.3361C133.713 80.8332 129.501 77.5298 129.501 77.5298Z" fill="#AAEDFF"/>
<path d="M134.373 88.1973C134.253 88.1973 134.134 88.1476 134.048 88.0511C133.89 87.8719 133.906 87.5979 134.086 87.439C135.151 86.4956 135.955 85.2731 136.412 83.9032C136.595 83.3552 136.331 82.7327 135.783 82.4222C133.134 80.9223 130.638 79.1379 128.362 77.1188C128.183 76.9599 128.167 76.6859 128.326 76.5067C128.483 76.3275 128.758 76.3113 128.938 76.4703C131.168 78.4489 133.614 80.198 136.21 81.6679C137.117 82.1812 137.548 83.2367 137.235 84.1771C136.73 85.6916 135.84 87.0442 134.66 88.0881C134.577 88.1615 134.475 88.1973 134.373 88.1973Z" fill="#495998"/>
<path d="M124.973 78.9598C125.335 80.0945 124.828 81.269 123.841 81.5841C122.854 81.8991 121.76 81.2343 121.398 80.0997C121.036 78.965 121.543 77.7905 122.53 77.4754C123.517 77.1604 124.611 77.8251 124.973 78.9598Z" fill="#495998"/>
<path d="M136.219 75.3726C136.581 76.5067 136.074 77.6818 135.087 77.9968C134.1 78.3119 133.006 77.6471 132.645 76.5125C132.283 75.3778 132.79 74.2032 133.776 73.8882C134.764 73.5732 135.857 74.2379 136.219 75.3726Z" fill="#495998"/>
<path d="M131.443 73.5634C132.948 74.1876 134.5 74.5252 136.128 74.5876C136.421 74.5986 136.78 74.3998 136.972 74.1917C137.18 73.9663 137.328 73.5992 137.298 73.2882C137.268 72.9755 137.149 72.653 136.902 72.4449C136.635 72.2195 136.347 72.1316 135.998 72.1183C135.911 72.1148 135.824 72.1085 135.736 72.1033C134.77 72.0171 133.821 71.8119 132.905 71.494C132.795 71.4524 132.685 71.412 132.577 71.3669C132.268 71.2391 131.962 71.183 131.634 71.2877C131.345 71.3796 131.04 71.6183 130.912 71.8981C130.65 72.4651 130.803 73.2986 131.443 73.5634Z" fill="#495998"/>
<path d="M124.163 75.8853C123.297 77.2657 122.228 78.4396 120.937 79.4327C120.704 79.6119 120.297 79.657 120.02 79.5992C119.719 79.5356 119.386 79.3223 119.23 79.0512C119.074 78.7789 118.983 78.4472 119.064 78.1339C119.152 77.7957 119.336 77.5576 119.612 77.3448C119.682 77.2917 119.749 77.2356 119.818 77.1807C120.555 76.5512 121.21 75.8345 121.773 75.0443C121.838 74.9472 121.904 74.8507 121.967 74.7512C122.144 74.468 122.362 74.2449 122.689 74.1403C122.978 74.0484 123.365 74.0663 123.632 74.22C124.174 74.531 124.531 75.2986 124.163 75.8853Z" fill="#495998"/>
<path d="M115.155 95.3995C114.986 95.3995 114.825 95.3001 114.755 95.1348C113.788 92.8458 111.818 90.9684 109.485 90.1135C109.26 90.0308 109.145 89.7817 109.227 89.5568C109.31 89.332 109.558 89.2158 109.783 89.299C112.338 90.2354 114.495 92.2909 115.554 94.7972C115.647 95.0174 115.544 95.2718 115.323 95.3648C115.268 95.3885 115.211 95.3995 115.155 95.3995Z" fill="#495998"/>
<path d="M135.249 90.6967C135.03 90.6967 134.807 90.7435 134.585 90.8371C133.274 91.3892 132.464 93.3169 132.779 95.1336C132.85 95.5452 132.984 95.8053 133.175 95.9082C133.602 96.1377 134.492 95.7492 135.277 95.4053C135.426 95.3406 135.574 95.2758 135.72 95.214C135.876 95.1487 136.022 95.0897 136.161 95.0336C137.325 94.5654 137.568 94.4677 137.316 93.0123C137.144 92.0262 136.671 91.2556 136.018 90.8978C135.773 90.7643 135.514 90.6967 135.249 90.6967ZM133.495 96.844C133.236 96.844 132.99 96.7937 132.764 96.6718C132.326 96.4365 132.044 95.9689 131.925 95.2816C131.538 93.0527 132.559 90.7493 134.249 90.0377C134.979 89.7302 135.754 89.7655 136.433 90.1377C137.321 90.6221 137.953 91.6163 138.17 92.8643C138.525 94.9111 137.798 95.3099 136.484 95.8382C136.35 95.8926 136.207 95.9498 136.056 96.0134C135.914 96.0735 135.77 96.1359 135.625 96.1995C134.898 96.518 134.153 96.844 133.495 96.844Z" fill="#495998"/>
<path d="M124.393 84.6384C124.306 84.6384 124.219 84.6124 124.142 84.5586C123.948 84.4199 123.901 84.1494 124.04 83.954C124.676 83.0586 125.123 82.0164 125.334 80.939C125.38 80.7043 125.608 80.5523 125.843 80.5974C126.078 80.643 126.231 80.8708 126.185 81.106C125.95 82.3031 125.453 83.4615 124.747 84.4557C124.662 84.5748 124.529 84.6384 124.393 84.6384Z" fill="#495998"/>
<path d="M137.118 80.3806C137.112 80.3806 137.105 80.3806 137.099 80.3806C135.976 80.3332 134.88 79.9916 133.928 79.3928C133.726 79.2644 133.665 78.9974 133.793 78.7945C133.92 78.5916 134.189 78.5309 134.39 78.6587C135.214 79.1777 136.164 79.4731 137.135 79.5142C137.375 79.524 137.561 79.7263 137.55 79.965C137.541 80.1985 137.349 80.3806 137.118 80.3806Z" fill="#495998"/>
<path d="M126.806 88.9354C126.806 91.0811 125.066 92.821 122.92 92.821C120.774 92.821 119.034 91.0811 119.034 88.9354C119.034 86.7892 120.774 85.0494 122.92 85.0494C125.066 85.0494 126.806 86.7892 126.806 88.9354Z" fill="#AAEDFF"/>
</svg>
