<svg width="290" height="263" viewBox="0 0 290 263" fill="none" xmlns="http://www.w3.org/2000/svg">
<path d="M290 262.536H148.314C148.314 262.536 145.128 251.181 144.417 245.596C144.31 244.808 144.257 244.143 144.272 243.632C144.302 242.569 144.356 241.507 144.425 240.514C144.616 237.633 144.914 235.349 144.914 235.349C144.914 235.349 140.13 231.741 140.237 228.976L136.31 220.265C136.31 220.265 136.883 219.462 137.937 218.087C143.011 211.477 159.31 191.579 177.221 183.517C178.551 182.921 179.888 182.386 181.233 181.928L185.909 187.338C185.909 187.338 193.345 188.507 196.531 189.676C197.983 190.211 199.687 191.525 201.123 192.809C202.339 193.894 203.355 194.949 203.859 195.484C204.065 195.705 204.18 195.835 204.18 195.835C204.18 195.835 214.213 197.379 219.471 200.512C220.058 200.863 220.64 201.314 221.22 201.849C222.099 202.651 222.955 203.637 223.765 204.699C227.211 209.207 229.878 215.168 229.878 215.168L237.657 221.296L240.759 223.741L249.692 230.779L252.718 233.163L266.778 244.235L269.888 246.688L290 262.536Z" fill="#346EBA"/>
<path d="M63.3196 155.924L64.7865 160.295C65.8412 163.436 69.2569 165.996 72.4048 165.996H75.4848V165.988H131.228C134.369 165.988 136.065 163.436 135.011 160.287L107.212 77.57C109.664 80.3286 111.826 84.5542 113.722 87.435C115.747 90.4993 119.002 96.0618 121.684 100.731C124.412 105.491 127.797 109.824 131.694 113.675C138.625 120.537 146.121 130.005 147.038 134.307C148.207 139.793 153.197 162.274 153.197 162.274L177.221 183.517C159.31 191.579 143.011 211.477 137.937 218.087L117.084 199.236C117.084 199.236 98.447 192.175 86.9238 186.81C75.3927 181.446 46.7224 158.133 45.072 155.588C43.4289 153.036 43.8494 148.306 45.072 144.966C45.072 144.966 34.4507 139.175 34.1294 135.721C33.8165 132.274 34.6643 126.589 37.3159 124.679C37.8586 124.289 38.7906 123.785 39.9831 123.212C42.8561 121.844 47.1887 120.14 50.9251 119.032C51.1622 118.963 51.3992 118.894 51.6284 118.833C52.3769 118.619 53.0953 118.436 53.7602 118.291C54.4557 118.138 55.0977 118.023 55.6627 117.954C56.0676 117.901 56.4346 117.878 56.7553 117.878C57.153 117.878 57.6344 117.909 58.1843 117.977C63.778 118.596 76.2946 122.127 78.4264 122.662C80.7572 123.242 81.4829 132.198 75.8741 133.986C73.6353 134.704 68.3321 134.865 63.8623 134.865C62.9754 134.865 62.1198 134.857 61.3328 134.842C60.5994 134.842 59.9189 134.826 59.3154 134.811C57.6801 134.773 56.6181 134.735 56.6181 134.735L56.2667 134.956L58.085 140.344C59.0633 140.068 60.026 139.816 60.9201 139.61V139.602C61.6 139.45 62.242 139.328 62.8075 139.235C63.4417 139.144 63.9844 139.098 64.4044 139.121C64.6565 139.136 64.97 139.175 65.3292 139.228V139.235C69.5168 139.915 80.0924 143.461 83.0954 144.577C86.3504 145.776 86.641 151.936 83.0954 155.198C81.0779 157.055 75.5684 157.07 71.2129 156.734C70.2731 156.665 69.3868 156.582 68.6071 156.49C67.7744 156.398 67.056 156.306 66.506 156.23C66.0091 156.161 64.3665 156.016 63.3196 155.924Z" fill="white"/>
<path d="M135.011 160.287C136.065 163.436 134.369 165.988 131.228 165.988H75.4848C72.3441 165.988 68.9284 163.436 67.8737 160.287L66.5061 156.23C67.056 156.306 67.7744 156.398 68.6071 156.49L69.8833 160.287C70.571 162.32 72.7797 163.978 74.8122 163.978H130.548C132.581 163.978 133.673 162.32 132.993 160.287L104.43 75.2927L95.1764 47.7613C94.4965 45.7282 92.2878 44.0779 90.2553 44.0779H34.5193C32.4869 44.0779 31.3864 45.7282 32.0741 47.7613L51.7657 106.362C51.0707 105.751 50.2453 105.361 49.3434 105.148L30.0567 47.7613C29.0026 44.6205 30.6909 42.0604 33.8394 42.0604H89.5754C92.7234 42.0604 96.1391 44.6205 97.1938 47.7613L107.212 77.57L135.011 160.287Z" fill="#495998"/>
<path d="M130.548 163.978H74.8122C72.7797 163.978 70.571 162.32 69.8833 160.287L68.6071 156.49C69.3869 156.582 70.2732 156.665 71.213 156.735L72.4049 160.287C72.6191 160.922 73.3297 161.457 73.9638 161.457H129.7C130.342 161.457 130.685 160.929 130.472 160.287L101.771 74.8877L92.6548 47.7613C92.4406 47.1193 91.7451 46.5995 91.1037 46.5995H85.5021C83.9895 46.5995 82.9961 47.57 82.9961 48.9761C82.9961 49.1211 83.0039 49.2739 83.0268 49.4346C83.256 51.0777 82.2169 52.2696 80.5431 52.2696H49.7332C48.8927 52.2696 48.0142 51.9712 47.2345 51.467C46.4553 50.9628 45.7748 50.26 45.3398 49.4346C44.4758 47.7842 42.6347 46.5995 40.9536 46.5995H35.3677C34.7257 46.5995 34.3816 47.1344 34.5879 47.7613L56.5033 112.972L58.1844 117.977C57.6344 117.909 57.1531 117.878 56.7559 117.878C56.4347 117.878 56.0677 117.901 55.6627 117.954L54.3944 114.202V114.195C54.4479 113.729 54.463 113.24 54.4251 112.728C54.3258 111.321 53.8824 109.77 53.0725 108.105C52.7211 107.387 52.2777 106.813 51.7657 106.362L32.0741 47.7613C31.3864 45.7283 32.4869 44.0779 34.5193 44.0779H90.2553C92.2878 44.0779 94.4965 45.7283 95.1764 47.7613L104.43 75.2927L132.993 160.287C133.673 162.32 132.581 163.978 130.548 163.978Z" fill="white"/>
<path d="M130.472 160.287C130.685 160.929 130.342 161.456 129.7 161.456H73.9638C73.3296 161.456 72.619 160.922 72.4049 160.287L71.2129 156.734C75.5685 157.07 81.078 157.055 83.0954 155.198C86.641 151.936 86.3504 145.776 83.0954 144.577C80.0924 143.461 69.5168 139.915 65.3292 139.235V139.228L63.8623 134.865C68.3321 134.865 73.6353 134.704 75.8741 133.986C81.4829 132.198 80.7573 123.242 78.4264 122.662C76.2947 122.127 63.778 118.596 58.1843 117.977L56.5032 112.972L34.5879 47.7613C34.3815 47.1343 34.7257 46.5994 35.3676 46.5994H40.9535C42.6346 46.5994 44.4758 47.7841 45.3392 49.4345C45.7748 50.26 46.4553 50.9628 47.2344 51.467C48.0142 51.9712 48.8927 52.2696 49.7332 52.2696H80.5431C82.2163 52.2696 83.256 51.0777 83.0268 49.4345C83.0039 49.2739 82.9961 49.1211 82.9961 48.9761C82.9961 47.57 83.9895 46.5994 85.5021 46.5994H91.1036C91.7451 46.5994 92.4406 47.1193 92.6548 47.7613L101.771 74.8877L130.472 160.287Z" fill="#346EBA"/>
<path d="M75.4848 165.988V165.996H72.4049C69.2569 165.996 65.8412 163.436 64.7865 160.295L63.3196 155.924C64.3665 156.016 66.0091 156.161 66.506 156.23L67.8737 160.287C68.9284 163.436 72.3441 165.988 75.4848 165.988Z" fill="white"/>
<path d="M63.8623 134.865L65.3292 139.228C64.97 139.175 64.6566 139.136 64.4045 139.121C63.9845 139.098 63.4418 139.144 62.8076 139.236L61.3329 134.842C62.1199 134.857 62.9755 134.865 63.8623 134.865Z" fill="white"/>
<path d="M61.3328 134.842L62.8075 139.235C62.242 139.328 61.6 139.45 60.9201 139.602L59.3154 134.811C59.9189 134.826 60.5994 134.842 61.3328 134.842Z" fill="white"/>
<path d="M60.9201 139.602V139.61C60.0261 139.816 59.0634 140.068 58.0851 140.344L56.2668 134.956L56.6182 134.735C56.6182 134.735 57.6801 134.773 59.3155 134.811L60.9201 139.602Z" fill="white"/>
<path d="M54.3944 114.202L55.6627 117.954C55.0977 118.023 54.4557 118.138 53.7602 118.291L53.3553 117.076V117.068C53.9209 116.228 54.2722 115.265 54.3944 114.202Z" fill="white"/>
<path d="M47.3187 104.911C48.0215 104.918 48.7019 104.987 49.3433 105.148C50.2452 105.361 51.0707 105.751 51.7657 106.362C52.2777 106.813 52.7211 107.387 53.0725 108.105C53.8824 109.77 54.3258 111.322 54.4251 112.728C54.463 113.24 54.4479 113.729 54.3944 114.195V114.202C54.2722 115.265 53.9209 116.228 53.3553 117.068V117.076C52.9046 117.741 52.3312 118.329 51.6285 118.833C51.3992 118.894 51.1622 118.963 50.9251 119.032C47.1887 120.14 42.8561 121.844 39.9831 123.212C39.9831 123.212 37.0716 120.82 36.0096 116.816C35.2299 113.882 35.6733 110.397 37.6143 108.174C38.3171 107.364 39.219 106.729 40.3267 106.34C42.0613 105.736 44.1629 105.125 46.1876 104.956C46.5696 104.926 46.9439 104.911 47.3187 104.911Z" fill="white"/>
<path d="M53.3553 117.076L53.7602 118.291C53.0954 118.436 52.377 118.619 51.6285 118.833C52.3313 118.329 52.9046 117.741 53.3553 117.076Z" fill="white"/>
<path d="M30.0567 47.7613L49.3434 105.148C48.7019 104.987 48.0215 104.918 47.3187 104.911C47.3873 102.794 47.1737 97.4679 43.4445 96.5666C43.4217 96.5588 43.391 96.551 43.3681 96.551L26.9695 47.7613C25.9152 44.6206 27.6115 42.0605 30.7522 42.0605H33.8394C30.6909 42.0605 29.0026 44.6206 30.0567 47.7613Z" fill="#495998"/>
<path d="M43.4445 96.5666C47.1737 97.4679 47.3873 102.794 47.3187 104.911C46.9439 104.911 46.5696 104.926 46.1876 104.956C44.1629 105.125 42.0613 105.736 40.3267 106.34C39.219 106.729 38.3171 107.364 37.6143 108.173H37.6065C33.488 101.381 38.7069 95.4962 43.3681 96.5509C43.391 96.5509 43.4217 96.5588 43.4445 96.5666Z" fill="white"/>
<path d="M203.859 195.484C194.919 202.72 186.039 210.033 177.229 217.43C166.18 226.698 155.245 236.09 144.417 245.596C144.31 244.808 144.257 244.143 144.272 243.632C144.302 242.569 144.356 241.507 144.425 240.514C148.627 236.838 152.838 233.186 157.071 229.548C170.375 218.117 183.831 206.861 197.44 195.797C198.671 194.796 199.893 193.802 201.123 192.809C202.339 193.894 203.355 194.949 203.859 195.484Z" fill="#7AD6EF"/>
<path d="M223.765 204.699C211.027 216.558 198.197 228.318 185.306 240.002C176.977 247.552 168.617 255.063 160.227 262.536H154.496C158.202 259.243 161.908 255.934 165.599 252.626C178.643 240.934 191.61 229.166 204.501 217.315C210.087 212.18 215.657 207.03 221.22 201.849C222.099 202.651 222.955 203.637 223.765 204.699Z" fill="#7AD6EF"/>
<path d="M240.759 223.741C228.678 232.483 216.506 241.072 204.226 249.516C197.853 253.894 191.45 258.234 185.023 262.536H178.154C180.484 260.985 182.815 259.426 185.138 257.867C198.365 248.996 211.47 239.948 224.46 230.74C228.877 227.607 233.271 224.459 237.657 221.296L240.759 223.741Z" fill="#7AD6EF"/>
<path d="M252.718 233.163C244.083 241.492 235.449 249.813 226.813 258.134C225.293 259.602 223.765 261.069 222.244 262.536H216.743C224.781 254.788 232.812 247.048 240.851 239.299L249.692 230.779L252.718 233.163Z" fill="#7AD6EF"/>
<path d="M269.888 246.688C262.804 251.777 255.859 257.065 249.065 262.536H243.036C250.754 256.186 258.678 250.088 266.778 244.235L269.888 246.688Z" fill="#7AD6EF"/>
<path d="M137.937 218.644C137.803 218.644 137.67 218.597 137.563 218.5L116.788 199.72C115.304 199.155 97.6668 192.427 86.6885 187.316C75.3231 182.029 46.3315 158.554 44.6041 155.892C42.8756 153.206 43.2683 148.587 44.3905 145.226C42.2119 144.005 33.8863 139.13 33.5745 135.772C33.2521 132.231 34.0993 126.309 36.9902 124.226C37.534 123.835 38.4593 123.325 39.7416 122.709C42.9319 121.19 47.259 119.537 50.7667 118.497C51.0105 118.427 51.2509 118.357 51.4835 118.295C52.247 118.076 52.9755 117.891 53.6409 117.746C54.3698 117.586 55.028 117.47 55.5958 117.4C56.486 117.283 57.2501 117.298 58.2535 117.424C62.9392 117.942 72.2275 120.43 76.6912 121.625C77.5535 121.856 78.2044 122.031 78.562 122.121C79.9636 122.47 80.6558 124.641 80.7205 126.638C80.8142 129.555 79.6462 133.369 76.0437 134.518C74.1713 135.118 70.0729 135.423 63.8623 135.423C62.9721 135.423 62.1126 135.415 61.3217 135.4C61.3195 135.4 61.3173 135.4 61.3145 135.4C60.5899 135.4 59.9078 135.384 59.3015 135.369C58.2401 135.344 57.4197 135.319 56.9729 135.305L58.4448 139.665C59.2642 139.44 60.0238 139.246 60.7087 139.087C60.7372 139.074 60.7667 139.065 60.7974 139.058C61.4506 138.911 62.0964 138.786 62.7189 138.685C63.4451 138.58 64.0045 138.539 64.4351 138.564C64.6917 138.58 65.0096 138.616 65.4123 138.677C65.4458 138.682 65.4781 138.689 65.5093 138.701C69.7717 139.417 80.0634 142.856 83.2895 144.054C84.6889 144.57 85.699 145.912 86.0604 147.738C86.5178 150.049 85.8953 153.38 83.473 155.609C81.7233 157.22 77.5842 157.784 71.17 157.291C70.2598 157.224 69.3506 157.138 68.5419 157.044C67.7069 156.952 66.9841 156.859 66.4296 156.782C66.0587 156.731 64.9728 156.631 64.1194 156.554L65.3158 160.117C66.3002 163.051 69.4811 165.438 72.4049 165.438H75.3939C75.4235 165.433 75.4536 165.43 75.4848 165.43H131.228C132.505 165.43 133.548 164.959 134.165 164.101C134.84 163.163 134.953 161.871 134.481 160.464L106.682 77.7473C106.598 77.4963 106.702 77.2208 106.932 77.0875C107.161 76.9553 107.451 77.0011 107.628 77.1991C109.343 79.1278 110.93 81.776 112.329 84.1124C112.981 85.2017 113.597 86.2308 114.188 87.1288C115.842 89.6309 118.527 94.1147 122.168 100.453C124.818 105.078 128.155 109.394 132.086 113.279C138.869 119.995 146.606 129.606 147.583 134.191C148.684 139.355 153.23 159.85 153.702 161.976L177.59 183.099C177.821 183.303 177.843 183.656 177.639 183.886C177.435 184.118 177.083 184.139 176.852 183.935L152.828 162.692C152.74 162.614 152.678 162.51 152.652 162.395C152.602 162.17 147.649 139.849 146.492 134.423C145.594 130.209 138.063 120.766 131.302 114.072C127.299 110.116 123.9 105.72 121.2 101.008C117.571 94.6903 114.898 90.2266 113.257 87.7423C112.652 86.8242 112.03 85.7851 111.372 84.6858C110.575 83.3561 109.717 81.9232 108.816 80.5936L135.54 160.109C136.119 161.841 135.948 163.533 135.07 164.753C134.238 165.909 132.873 166.545 131.228 166.545H75.5757C75.5462 166.55 75.5155 166.553 75.4848 166.553H72.4049C69.0388 166.553 65.3839 163.825 64.2583 160.473L62.7908 156.102C62.7312 155.924 62.7652 155.727 62.8812 155.579C62.9978 155.432 63.179 155.348 63.3681 155.369C64.6102 155.477 66.0983 155.611 66.5825 155.678C67.1285 155.753 67.8413 155.844 68.6685 155.935C69.4644 156.029 70.3568 156.113 71.2537 156.178C77.1787 156.636 81.247 156.141 82.7178 154.788C84.8216 152.851 85.3632 149.961 84.9661 147.954C84.6822 146.519 83.9298 145.479 82.9024 145.1C80.0813 144.052 69.4097 140.464 65.24 139.787C65.2121 139.782 65.1842 139.775 65.158 139.767C64.8311 139.719 64.5729 139.69 64.371 139.677C64.0168 139.658 63.531 139.694 62.8879 139.788C62.324 139.879 61.7294 139.994 61.1276 140.127C61.1014 140.138 61.0741 140.147 61.0456 140.154C60.2162 140.345 59.2708 140.59 58.2362 140.881C57.9501 140.961 57.6517 140.803 57.5569 140.522L55.738 135.135C55.6555 134.89 55.7514 134.621 55.9695 134.484L56.3214 134.263C56.4162 134.203 56.5295 134.17 56.6382 134.178C56.6399 134.178 57.6991 134.216 59.3283 134.254C59.929 134.269 60.6044 134.284 61.3329 134.284C62.1271 134.299 62.9794 134.307 63.8623 134.307C69.871 134.307 73.966 134.012 75.704 133.455C78.7142 132.496 79.6869 129.202 79.6055 126.674C79.5425 124.716 78.8743 123.348 78.2914 123.203C77.93 123.112 77.273 122.936 76.4023 122.703C72.3117 121.607 62.7317 119.041 58.123 118.532C57.2027 118.417 56.5468 118.4 55.7358 118.507C55.197 118.573 54.5745 118.683 53.8796 118.835C53.2365 118.976 52.5304 119.156 51.7813 119.369C51.547 119.432 51.3139 119.5 51.0802 119.568C47.6801 120.575 43.3157 122.243 40.2229 123.715C39.0014 124.303 38.1319 124.78 37.6411 125.131C35.1356 126.938 34.396 132.488 34.685 135.67C34.9259 138.26 42.4573 142.906 45.3392 144.477C45.5813 144.609 45.6906 144.899 45.5958 145.158C44.4111 148.393 44.0123 152.911 45.5411 155.287C47.24 157.905 75.8998 181.068 87.1586 186.305C98.5319 191.599 117.095 198.643 117.281 198.713C117.346 198.739 117.406 198.775 117.458 198.822L138.311 217.672C138.54 217.88 138.558 218.232 138.351 218.46C138.24 218.582 138.089 218.644 137.937 218.644Z" fill="#495998"/>
<path d="M67.3209 156.9L68.4024 160.109C69.3852 163.043 72.5621 165.43 75.4848 165.43H131.228C132.505 165.43 133.548 164.959 134.165 164.101C134.84 163.163 134.953 161.871 134.481 160.465L96.665 47.9386C95.68 45.0048 92.4997 42.6182 89.5748 42.6182H33.8394C32.561 42.6182 31.518 43.0906 30.9011 43.9479C30.2257 44.8871 30.1136 46.1784 30.5854 47.5833L49.7761 104.684C50.1108 104.779 50.4293 104.897 50.7316 105.036L31.5453 47.9386C31.1482 46.764 31.2653 45.6072 31.8694 44.7661C32.4455 43.9629 33.3865 43.5201 34.5193 43.5201H90.2553C92.5108 43.5201 94.9555 45.3434 95.7051 47.5839L133.522 160.109C133.917 161.291 133.796 162.453 133.19 163.295C132.614 164.095 131.675 164.536 130.548 164.536H74.8121C72.5621 164.536 70.1142 162.71 69.355 160.466L68.1921 157.004C67.882 156.969 67.5903 156.934 67.3209 156.9ZM131.228 166.545H75.4848C72.1198 166.545 68.4682 163.818 67.3449 160.464L65.9773 156.408C65.9159 156.225 65.9533 156.023 66.0766 155.874C66.1998 155.726 66.3906 155.649 66.5824 155.678C67.1285 155.753 67.8413 155.844 68.6684 155.935C68.8843 155.959 69.0667 156.106 69.1358 156.312L70.412 160.109C71.0188 161.904 73.034 163.42 74.8121 163.42H130.548C131.307 163.42 131.923 163.144 132.284 162.643C132.684 162.087 132.748 161.314 132.465 160.464L94.6476 47.9386C94.0486 46.1482 92.0373 44.6356 90.2553 44.6356H34.5193C33.7557 44.6356 33.1366 44.9128 32.7757 45.4165C32.3786 45.9697 32.3173 46.7389 32.6023 47.5822L52.2944 106.185C52.3747 106.424 52.2849 106.687 52.0746 106.827C51.8655 106.967 51.5872 106.949 51.3975 106.781C50.8052 106.26 50.0706 105.893 49.2145 105.69C49.0271 105.646 48.8759 105.508 48.8146 105.325L29.5279 47.9386C28.9473 46.209 29.1174 44.5173 29.9953 43.297C30.8275 42.1402 32.1923 41.5027 33.8394 41.5027H89.5748C92.942 41.5027 96.5964 44.2307 97.722 47.5833L135.539 160.109C135.539 160.109 135.539 160.109 135.539 160.11C136.119 161.841 135.948 163.533 135.07 164.753C134.238 165.909 132.873 166.545 131.228 166.545Z" fill="#495998"/>
<path d="M64.1194 156.554L65.3153 160.117C66.196 162.74 68.8319 164.926 71.4701 165.36C69.5921 164.251 68.0165 162.47 67.3449 160.464L66.09 156.742C65.5908 156.688 64.7843 156.614 64.1194 156.554ZM75.4848 166.553H72.4049C69.0388 166.553 65.3839 163.825 64.2583 160.473L62.7903 156.102C62.7312 155.924 62.7652 155.727 62.8812 155.579C62.9978 155.432 63.1796 155.349 63.3681 155.369C64.6102 155.477 66.0983 155.611 66.5825 155.678C66.7922 155.707 66.9673 155.852 67.0348 156.052L68.4024 160.109C69.3852 163.043 72.5622 165.43 75.4848 165.43C75.7927 165.43 76.0426 165.68 76.0426 165.988V165.996C76.0426 166.304 75.7927 166.553 75.4848 166.553Z" fill="#495998"/>
<path d="M62.1126 135.412L63.1902 138.623C63.6911 138.565 64.101 138.544 64.4351 138.564C64.4624 138.566 64.4903 138.567 64.5193 138.57L63.4613 135.422C62.9994 135.421 62.5482 135.418 62.1126 135.412ZM62.8076 139.794C62.5711 139.794 62.3564 139.643 62.2788 139.413L60.8036 135.019C60.7461 134.847 60.7757 134.658 60.8833 134.512C60.9904 134.366 61.1404 134.274 61.3435 134.284C62.1271 134.299 62.9794 134.307 63.8623 134.307C64.1021 134.307 64.3146 134.46 64.391 134.687L65.8579 139.05C65.9199 139.235 65.8814 139.438 65.7564 139.586C65.6321 139.736 65.4402 139.807 65.2466 139.78C64.8774 139.724 64.5907 139.691 64.371 139.677C64.0168 139.658 63.531 139.695 62.8879 139.788C62.8606 139.792 62.8338 139.794 62.8076 139.794Z" fill="#495998"/>
<path d="M60.0963 135.387L61.2905 138.951C61.5532 138.896 61.8136 138.844 62.0719 138.797L60.9307 135.398C60.6429 135.396 60.364 135.392 60.0963 135.387ZM60.9196 140.16C60.6847 140.16 60.4689 140.011 60.3914 139.779L58.7867 134.988C58.7287 134.816 58.7588 134.626 58.867 134.479C58.9752 134.333 59.1409 134.256 59.3294 134.254C59.929 134.269 60.6044 134.284 61.3328 134.284C61.5721 134.284 61.7852 134.437 61.8616 134.664L63.3363 139.058C63.3887 139.213 63.3698 139.384 63.285 139.524C63.2002 139.664 63.0585 139.76 62.8968 139.787C62.2972 139.884 61.6731 140.004 61.0428 140.146C61.0015 140.156 60.9603 140.16 60.9196 140.16Z" fill="#495998"/>
<path d="M56.9729 135.305L58.4448 139.665C59.0667 139.494 59.6534 139.341 60.1995 139.208L58.9105 135.359C58.0382 135.338 57.3633 135.317 56.9729 135.305ZM58.085 140.901C57.8513 140.901 57.6349 140.754 57.5568 140.522L55.738 135.135C55.6554 134.89 55.7514 134.621 55.9695 134.484L56.3214 134.263C56.4157 134.203 56.5255 134.168 56.6382 134.178C56.6399 134.178 57.6991 134.216 59.3283 134.254C59.5631 134.259 59.7695 134.411 59.8442 134.635L61.4489 139.425C61.4678 139.483 61.4779 139.542 61.4779 139.602V139.61C61.4779 139.87 61.2988 140.095 61.0456 140.154C60.2162 140.345 59.2708 140.59 58.2362 140.881C58.186 140.895 58.1352 140.901 58.085 140.901Z" fill="#495998"/>
<path d="M53.9671 117.148L54.1322 117.643C54.4066 117.587 54.6699 117.539 54.9197 117.498L54.468 116.161C54.328 116.504 54.1612 116.833 53.9671 117.148ZM53.7602 118.848C53.5242 118.848 53.3084 118.698 53.2309 118.467L52.8259 117.252C52.8075 117.195 52.7975 117.136 52.7975 117.076C52.7975 116.965 52.8304 116.849 52.8923 116.757C53.4099 115.987 53.7289 115.106 53.8405 114.139C53.87 113.88 54.0759 113.675 54.3358 113.648C54.5974 113.62 54.8394 113.777 54.9231 114.024L56.1909 117.776C56.245 117.935 56.2243 118.11 56.1345 118.252C56.0453 118.393 55.8969 118.488 55.7302 118.508C55.1969 118.573 54.5745 118.683 53.8795 118.835C53.8399 118.844 53.7992 118.848 53.7602 118.848Z" fill="#495998"/>
<path d="M47.3154 105.468C46.9551 105.468 46.6009 105.483 46.2328 105.512C44.613 105.647 42.7406 106.09 40.5102 106.866C39.5336 107.21 38.7008 107.773 38.0354 108.539C36.3365 110.486 35.7531 113.677 36.5484 116.673C37.3678 119.762 39.3685 121.874 40.0807 122.549C43.2332 121.076 47.3817 119.501 50.7668 118.497C50.9754 118.437 51.1817 118.377 51.3831 118.321C51.9693 117.888 52.4662 117.38 52.8611 116.81C52.8706 116.792 52.8807 116.774 52.8924 116.757C53.4066 115.992 53.7251 115.118 53.8383 114.159C53.8389 114.149 53.8394 114.139 53.8406 114.132C53.8924 113.675 53.9019 113.217 53.869 112.769C53.7725 111.408 53.3358 109.922 52.5711 108.349C52.2666 107.726 51.8711 107.199 51.397 106.781C50.8052 106.26 50.0707 105.893 49.2145 105.69C48.6473 105.549 48.0276 105.476 47.3154 105.468ZM39.9831 123.769C39.8565 123.769 39.731 123.727 39.6289 123.642C39.5045 123.54 36.5657 121.089 35.4703 116.959C34.5824 113.616 35.2589 110.024 37.1938 107.806C37.9863 106.893 38.9786 106.222 40.1415 105.814C42.464 105.005 44.4262 104.543 46.1418 104.401C46.5423 104.368 46.9272 104.353 47.3187 104.353C47.3204 104.353 47.3226 104.353 47.3243 104.353C48.1263 104.362 48.8313 104.445 49.4789 104.607C50.5074 104.851 51.4032 105.301 52.1344 105.944C52.7195 106.459 53.2036 107.104 53.5734 107.859C54.4017 109.563 54.8752 111.187 54.9812 112.689C55.0191 113.197 55.0091 113.719 54.951 114.238C54.9505 114.248 54.9494 114.257 54.9488 114.266C54.8189 115.391 54.4502 116.421 53.8523 117.328C53.8417 117.349 53.83 117.37 53.8171 117.389C53.3252 118.113 52.6983 118.752 51.9537 119.286C51.899 119.325 51.8377 119.354 51.773 119.372C51.5471 119.432 51.3139 119.5 51.0802 119.568C47.6801 120.575 43.3157 122.243 40.2229 123.715C40.1465 123.752 40.0645 123.769 39.9831 123.769Z" fill="#495998"/>
<path d="M51.6284 119.391C51.4187 119.391 51.2213 119.272 51.1259 119.076C51.0082 118.832 51.083 118.538 51.3033 118.38C51.9408 117.923 52.4757 117.378 52.8934 116.763C53.0133 116.587 53.2203 116.492 53.4317 116.524C53.6419 116.553 53.8171 116.698 53.8846 116.9L54.2895 118.114C54.3397 118.264 54.3235 118.428 54.2454 118.566C54.1668 118.704 54.034 118.802 53.8795 118.835C53.2364 118.976 52.5303 119.156 51.7813 119.369C51.7305 119.384 51.6792 119.391 51.6284 119.391Z" fill="#495998"/>
<path d="M43.7992 96.0836C44.912 96.3976 45.7274 97.0658 46.3236 97.913L29.5279 47.9386C28.9473 46.209 29.1174 44.5174 29.9953 43.297C30.1755 43.0466 30.3802 42.8207 30.6072 42.6204C29.3969 42.655 28.4096 43.1241 27.8156 43.9496C27.1402 44.8899 27.027 46.18 27.4983 47.5833L43.7992 96.0836ZM47.8859 104.372C48.1018 104.385 48.3109 104.404 48.5134 104.429L47.7638 102.198C47.8603 102.998 47.8876 103.751 47.8859 104.372ZM49.3433 105.705C49.2987 105.705 49.253 105.7 49.2078 105.689C48.6461 105.548 48.0259 105.476 47.3125 105.468C47.1625 105.467 47.0197 105.405 46.916 105.296C46.8122 105.188 46.7559 105.042 46.7609 104.892C46.8284 102.819 46.6276 97.9102 43.3134 97.1087C43.2989 97.1048 43.3134 97.1065 43.3352 97.1082C43.1093 97.0948 42.9118 96.9453 42.8393 96.7289L26.4411 47.9386C25.8609 46.2113 26.032 44.5201 26.9104 43.2987C27.7431 42.1402 29.1074 41.5027 30.7522 41.5027H33.8394C34.1473 41.5027 34.3971 41.7526 34.3971 42.0604C34.3971 42.3689 34.1473 42.6182 33.8394 42.6182C32.561 42.6182 31.518 43.0906 30.9011 43.9479C30.2257 44.8871 30.1136 46.1784 30.5854 47.5833L49.8721 104.97C49.9373 105.163 49.8916 105.376 49.7527 105.526C49.6462 105.642 49.4967 105.705 49.3433 105.705Z" fill="#495998"/>
<path d="M42.2576 96.9855C40.624 96.9855 38.9864 97.8617 37.8926 99.381C36.3231 101.56 36.2746 104.462 37.7292 107.255C38.4186 106.619 39.2273 106.135 40.1415 105.814C42.464 105.005 44.4262 104.543 46.1418 104.401C46.3549 104.384 46.5629 104.371 46.7704 104.363C46.7788 102.084 46.3711 97.8478 43.3135 97.1087C43.3079 97.1071 43.3029 97.106 43.2973 97.1043C43.28 97.102 43.2621 97.0993 43.2449 97.0954C42.9191 97.0212 42.5884 96.9855 42.2576 96.9855ZM37.6143 108.731C37.4191 108.731 37.2306 108.629 37.1296 108.463C35.0826 105.086 35.0297 101.448 36.9874 98.729C38.5563 96.551 41.0897 95.4829 43.4529 95.9988C43.4992 96.0044 43.5466 96.0144 43.594 96.0289C47.6868 97.0351 47.9523 102.586 47.8759 104.929C47.8664 105.23 47.6193 105.468 47.3187 105.468C46.9567 105.468 46.602 105.483 46.2327 105.512C44.613 105.647 42.7412 106.09 40.5102 106.866C39.5335 107.21 38.7008 107.773 38.0354 108.539C37.9294 108.662 37.7755 108.731 37.6143 108.731Z" fill="#495998"/>
<path d="M45.0721 145.524C44.8428 145.524 44.6275 145.381 44.5467 145.153C44.4435 144.863 44.5952 144.544 44.8852 144.441L57.8982 139.818C58.1894 139.715 58.5078 139.867 58.611 140.157C58.7137 140.447 58.5619 140.767 58.2719 140.869L45.2589 145.492C45.197 145.514 45.134 145.524 45.0721 145.524Z" fill="#495998"/>
<path d="M47.3287 141.945C47.1553 141.945 46.9846 141.864 46.8753 141.713C46.6957 141.463 46.7526 141.115 47.0024 140.934L55.941 134.503C56.1909 134.323 56.5389 134.38 56.7191 134.631C56.8992 134.881 56.8424 135.229 56.5925 135.409L47.6539 141.84C47.5552 141.91 47.4414 141.945 47.3287 141.945Z" fill="#495998"/>
<path d="M59.3149 162.014C59.2017 162.014 59.0874 161.98 58.9886 161.909C58.7388 161.728 58.683 161.38 58.8637 161.13L62.8678 155.597C63.048 155.348 63.3971 155.293 63.6464 155.472C63.8958 155.653 63.9521 156.002 63.7714 156.251L59.7673 161.783C59.6585 161.934 59.4878 162.014 59.3149 162.014Z" fill="#495998"/>
<path d="M61.3317 152.495C61.0774 152.495 60.8482 152.32 60.789 152.062C60.75 151.892 59.8593 147.824 61.5983 141.245C61.677 140.947 61.9826 140.769 62.2799 140.848C62.5783 140.927 62.7557 141.232 62.677 141.53C61.0138 147.819 61.8677 151.776 61.8767 151.815C61.9442 152.115 61.7556 152.413 61.4556 152.482C61.4143 152.491 61.3725 152.495 61.3317 152.495Z" fill="#495998"/>
<path d="M55.0565 131.607C54.82 131.607 54.6002 131.455 54.5249 131.217C52.9247 126.149 53.917 120.296 53.9593 120.049C54.0129 119.746 54.3024 119.546 54.6047 119.596C54.9081 119.648 55.1111 119.937 55.0587 120.241C55.0486 120.299 54.0726 126.078 55.5886 130.881C55.6817 131.175 55.5183 131.488 55.2249 131.581C55.1686 131.599 55.1122 131.607 55.0565 131.607Z" fill="#495998"/>
<path d="M45.8791 118.327C44.473 118.327 43.0273 118.094 41.9525 117.361C40.9452 116.675 40.3785 115.65 40.2686 114.314C39.775 108.314 43.9783 107.222 44.0207 107.212C44.3196 107.137 44.6214 107.322 44.6944 107.622C44.7675 107.921 44.5834 108.223 44.2845 108.296C44.1517 108.33 40.9681 109.206 41.3802 114.222C41.4622 115.22 41.8543 115.945 42.5794 116.438C44.5343 117.771 48.268 117.06 49.7432 116.705C47.6171 111.74 48.7504 106.912 48.8012 106.702C48.8737 106.402 49.1732 106.218 49.4744 106.291C49.7739 106.364 49.9574 106.665 49.8855 106.964C49.8732 107.014 48.7058 112.031 51.0272 116.833C51.0986 116.98 51.1014 117.151 51.0355 117.3C50.9703 117.45 50.8426 117.563 50.6858 117.61C50.5369 117.655 48.2652 118.327 45.8791 118.327Z" fill="#495998"/>
<path d="M75.5607 132.319C73.5372 132.319 64.762 132.044 64.1339 127.299C63.4384 122.042 68.1961 120.887 68.2441 120.876C68.5436 120.808 68.8436 120.995 68.9128 121.295C68.9814 121.595 68.794 121.895 68.4939 121.963C68.3394 122 64.6789 122.916 65.24 127.153C65.6789 130.47 72.2186 131.189 75.3526 131.205C75.1903 127.084 76.8597 123.723 76.9345 123.576C77.0733 123.301 77.408 123.191 77.683 123.329C77.9579 123.468 78.0689 123.804 77.9306 124.078C77.9128 124.113 76.1647 127.645 76.5011 131.711C76.5133 131.864 76.4631 132.015 76.3605 132.13C76.2579 132.243 76.1134 132.31 75.96 132.315C75.9165 132.316 75.7771 132.319 75.5607 132.319Z" fill="#495998"/>
<path d="M82.1054 153.912C82.0898 153.912 82.0736 153.911 82.0574 153.909C81.793 153.887 75.5456 153.312 73.0786 150.012C72.1885 148.822 71.8968 147.431 72.2124 145.879C72.2732 145.577 72.5655 145.383 72.87 145.443C73.1718 145.505 73.3664 145.799 73.3056 146.101C73.0524 147.346 73.2705 148.407 73.9716 149.345C75.7101 151.669 79.8727 152.482 81.493 152.716C81.3647 149.744 82.6642 146.591 82.7239 146.448C82.8427 146.163 83.169 146.029 83.4529 146.148C83.7374 146.267 83.8718 146.593 83.753 146.877C83.739 146.912 82.2933 150.426 82.6587 153.283C82.6804 153.45 82.6246 153.619 82.5081 153.74C82.4026 153.85 82.2565 153.912 82.1054 153.912Z" fill="#495998"/>
<path d="M131.6 189.387C131.488 189.387 131.376 189.353 131.278 189.284C131.027 189.106 130.966 188.758 131.145 188.506L143.182 171.512C143.36 171.26 143.708 171.202 143.96 171.379C144.211 171.557 144.271 171.905 144.093 172.157L132.056 189.151C131.946 189.305 131.775 189.387 131.6 189.387Z" fill="#495998"/>
<path d="M143.637 227.745C143.524 227.745 143.411 227.711 143.312 227.64C143.062 227.46 143.005 227.112 143.185 226.862C143.377 226.595 162.621 200.067 182.704 190.871C182.984 190.742 183.315 190.866 183.443 191.146C183.571 191.426 183.449 191.757 183.168 191.885C163.356 200.957 144.281 227.248 144.09 227.513C143.981 227.664 143.81 227.745 143.637 227.745Z" fill="#495998"/>
<path d="M201.907 240.875C201.057 240.875 200.293 240.69 199.637 240.284C192.25 235.723 203.223 202.227 204.499 198.423C204.597 198.131 204.917 197.975 205.205 198.071C205.497 198.17 205.655 198.485 205.557 198.777C202.17 208.883 194.607 235.867 200.222 239.335C200.728 239.647 201.327 239.792 202.003 239.792C208.817 239.794 223.474 225.089 229.039 218.834C229.245 218.604 229.598 218.583 229.827 218.788C230.057 218.993 230.078 219.345 229.873 219.576C229.03 220.523 210.809 240.875 201.907 240.875Z" fill="#495998"/>
<path d="M125.593 117.211H79.3093L76.6957 109.432L74.8618 103.984L71.2018 93.0868L60.3512 60.8022H106.635L116.515 90.1987L120.175 101.088L122.582 108.248L125.593 117.211Z" fill="#7AD6EF"/>
<path d="M166.764 239.732H120.481L115.629 225.298L101.523 183.324H147.814L160.942 222.401L166.764 239.732Z" fill="white"/>
<path d="M148.54 201.747H132.057L129.344 193.685L126.517 185.264H143L145.605 193.013L148.54 201.747Z" fill="#346EBA"/>
<path d="M97.6907 89.342H72.1226L68.1336 77.4673L63.5259 63.7739H89.094L93.4646 76.7796L97.6907 89.342Z" fill="#346EBA"/>
<path d="M146.224 178.609H99.9407L95.0888 164.174L92.7351 157.175L80.9826 122.2H127.266L138.621 155.998L140.975 162.998L146.224 178.609Z" fill="white"/>
<path d="M105.343 56.9587H59.0595L54.2153 42.5318L41.5838 4.94402L40.1091 0.557846H86.3928L97.7476 34.3556L99.5207 39.6359L105.343 56.9587Z" fill="white"/>
<path d="M116.844 212.208L113.963 203.627H130.445L133.104 211.536L135.985 220.109H119.503L116.844 212.208Z" fill="#AAEDFF"/>
<path d="M155.631 233.886L156.204 235.598H121.046L120.473 233.886H155.631Z" fill="#AAEDFF"/>
<path d="M135.664 174.475H100.506L99.9335 172.763H135.091L135.664 174.475Z" fill="#AAEDFF"/>
<path d="M98.3439 41.9433H55.965L55.3917 40.2243H97.7705L98.3439 41.9433Z" fill="#AAEDFF"/>
<path d="M92.9565 47.392H57.7989L57.2183 45.6725H92.3759L92.9565 47.392Z" fill="#AAEDFF"/>
<path d="M133.838 169.034H98.6802L98.0996 167.315H133.257L133.838 169.034Z" fill="#AAEDFF"/>
<path d="M139.225 163.586H96.8463L96.2729 161.867H138.645L139.225 163.586Z" fill="#AAEDFF"/>
<path d="M154.378 230.158H119.22L118.639 228.438H153.797L154.378 230.158Z" fill="#AAEDFF"/>
<path d="M94.7832 52.8324H59.625L59.0522 51.1206H94.2098L94.7832 52.8324Z" fill="#AAEDFF"/>
<path d="M159.765 224.709H117.386L116.813 222.99H159.192L159.765 224.709Z" fill="#AAEDFF"/>
<path d="M138.621 155.683H92.2325L86.4949 138.611L80.9826 122.201H127.371L132.365 137.056L138.621 155.683Z" fill="#F37458"/>
<path d="M149.174 203.627L154.714 220.109H138.232L132.692 203.627H149.174Z" fill="#7AD6EF"/>
<path d="M135.022 195.397C135.595 195.229 136.344 194.732 136.711 193.349C135.634 192.211 134.717 191.691 134.113 191.454C133.777 191.317 133.517 191.263 133.356 191.24C133.356 191.24 133.356 191.24 133.349 191.24C133.265 191.232 133.173 191.225 133.089 191.225C131.92 191.225 131.286 192.18 131.683 193.349C132.073 194.518 133.341 195.466 134.51 195.466C134.694 195.466 134.862 195.443 135.022 195.397ZM141.594 195.451C142.931 195.611 143.688 194.602 143.267 193.349C142.877 192.18 141.601 191.225 140.44 191.225C140.256 191.225 140.089 191.248 139.928 191.294C139.355 191.462 138.606 191.959 138.239 193.341C139.317 194.48 140.234 195.007 140.837 195.244C141.173 195.374 141.433 195.428 141.594 195.451ZM144.612 193.349C145.254 195.259 144.223 196.81 142.312 196.81C142.167 196.81 142.022 196.803 141.869 196.78C141.861 196.78 141.854 196.78 141.846 196.78C141.479 196.727 141.09 196.62 140.692 196.467C140.004 196.192 139.019 195.664 137.903 194.617C137.391 195.955 136.512 196.49 135.802 196.696C135.535 196.773 135.259 196.81 134.969 196.81C133.051 196.81 130.98 195.259 130.338 193.349C129.696 191.439 130.728 189.88 132.638 189.88C132.784 189.88 132.936 189.888 133.081 189.91C133.089 189.91 133.097 189.91 133.104 189.91C133.471 189.964 133.861 190.071 134.258 190.224C134.946 190.499 135.932 191.034 137.047 192.073C137.559 190.736 138.438 190.201 139.149 189.995C139.416 189.918 139.691 189.88 139.981 189.88C141.892 189.88 143.971 191.439 144.612 193.349Z" fill="white"/>
<path d="M122.521 213.919C123.094 213.752 123.843 213.255 124.21 211.871C123.132 210.733 122.215 210.213 121.62 209.977C121.283 209.839 121.016 209.785 120.855 209.763C120.855 209.763 120.855 209.763 120.848 209.763C120.763 209.755 120.672 209.748 120.588 209.748C119.419 209.748 118.784 210.703 119.182 211.871C119.571 213.041 120.84 213.988 122.017 213.988C122.192 213.988 122.36 213.965 122.521 213.919ZM129.1 213.973C130.43 214.134 131.194 213.125 130.773 211.871C130.376 210.703 129.108 209.748 127.939 209.748C127.755 209.748 127.587 209.77 127.427 209.816C126.854 209.984 126.105 210.481 125.746 211.864C126.816 213.003 127.733 213.53 128.336 213.767C128.672 213.897 128.932 213.95 129.092 213.973H129.1ZM132.111 211.871C132.753 213.782 131.721 215.333 129.811 215.333C129.666 215.333 129.521 215.326 129.368 215.303C129.36 215.303 129.352 215.303 129.345 215.303C128.978 215.249 128.596 215.142 128.191 214.989C127.503 214.714 126.517 214.187 125.41 213.14C124.89 214.477 124.011 215.012 123.301 215.226C123.033 215.295 122.758 215.333 122.467 215.333C120.557 215.333 118.479 213.782 117.837 211.871C117.195 209.961 118.227 208.402 120.137 208.402C120.282 208.402 120.435 208.418 120.588 208.433C120.596 208.433 120.603 208.433 120.603 208.441C120.97 208.487 121.36 208.593 121.757 208.746C122.445 209.021 123.431 209.556 124.546 210.595C125.058 209.258 125.944 208.724 126.647 208.517C126.915 208.441 127.19 208.402 127.488 208.402C129.398 208.402 131.469 209.961 132.111 211.871Z" fill="#346EBA"/>
<path d="M124.271 185.264L129.811 201.747H113.329L107.788 185.264H124.271Z" fill="#7AD6EF"/>
<path d="M120.42 107.063L121 108.783H78.6216L78.0482 107.063H120.42Z" fill="white"/>
<path d="M118.593 101.615L119.167 103.334H76.7877L76.2144 101.615H118.593Z" fill="white"/>
<path d="M114.933 90.7258L115.506 92.4375H73.1272L72.5544 90.7258H114.933Z" fill="white"/>
<path d="M109.539 96.1739L110.119 97.8857H74.9611L74.3804 96.1739H109.539Z" fill="white"/>
<path d="M101.576 112.511L102.157 114.231H80.4556L79.8749 112.511H101.576Z" fill="white"/>
<path d="M96.9841 33.6517H51.4377L40.3835 0.776966H85.9299L96.9841 33.6517Z" fill="#7AD6EF"/>
<path d="M100.342 178.051H145.448L126.865 122.759H81.7585L100.342 178.051ZM146.224 179.166H99.9407C99.7015 179.166 99.4884 179.014 99.4125 178.787L80.4539 122.378C80.397 122.208 80.4249 122.021 80.5297 121.875C80.6346 121.73 80.803 121.643 80.9826 121.643H127.266C127.506 121.643 127.719 121.796 127.795 122.023L146.753 178.431C146.811 178.601 146.782 178.789 146.677 178.934C146.572 179.08 146.404 179.166 146.224 179.166Z" fill="#495998"/>
<path d="M120.882 239.174H165.989L147.413 183.881H102.298L120.882 239.174ZM166.764 240.29H120.481C120.241 240.29 120.029 240.137 119.952 239.91L100.994 183.501C100.937 183.331 100.965 183.144 101.07 182.998C101.175 182.853 101.344 182.766 101.523 182.766H147.814C148.053 182.766 148.266 182.919 148.343 183.146L167.293 239.555C167.351 239.725 167.322 239.911 167.217 240.058C167.112 240.203 166.944 240.29 166.764 240.29Z" fill="#495998"/>
<path d="M79.7104 116.653H124.817L106.234 61.3599H61.1271L79.7104 116.653ZM125.593 117.769H79.3094C79.0695 117.769 78.857 117.616 78.7806 117.389L59.8225 60.9801C59.765 60.81 59.7929 60.6226 59.8978 60.477C60.0026 60.3308 60.1716 60.2444 60.3507 60.2444H106.634C106.874 60.2444 107.087 60.3978 107.164 60.6248L126.122 117.033C126.179 117.204 126.151 117.391 126.045 117.537C125.941 117.682 125.773 117.769 125.593 117.769Z" fill="#495998"/>
<path d="M59.461 56.4009H104.567L85.9918 1.11559H40.885L59.461 56.4009ZM105.343 57.5164H59.06C58.8202 57.5164 58.6071 57.3636 58.5313 57.1366L39.5804 0.735748C39.5235 0.565636 39.5514 0.378227 39.6562 0.232651C39.7611 0.0865211 39.9295 7.24792e-05 40.1091 7.24792e-05H86.3929C86.6327 7.24792e-05 86.8452 0.153446 86.9216 0.380451L105.872 56.7813C105.929 56.9514 105.901 57.1388 105.796 57.2844C105.691 57.4305 105.523 57.5164 105.343 57.5164Z" fill="#495998"/>
<path d="M125.252 65.6156L134.841 53.7332L144.423 65.6156L140.3 65.6156L140.301 79.222L129.381 79.222L129.381 65.6156L125.252 65.6156Z" fill="#82D9F1"/>
<path d="M164.333 65.6156L173.921 53.7332L183.503 65.6156L179.381 65.6156L179.381 79.222L168.462 79.222L168.462 65.6156L164.333 65.6156Z" fill="#82D9F1"/>
<path d="M144.754 79.999L154.343 68.116L163.924 79.999L159.802 79.999L159.802 93.6055L148.883 93.6055L148.883 79.999L144.754 79.999Z" fill="#82D9F1"/>
<path d="M87.5859 216.443C87.9825 216.443 88.3796 216.563 88.7187 216.803L97.0455 222.69C97.9306 223.315 98.1409 224.54 97.5151 225.424C96.8893 226.309 95.6656 226.519 94.7804 225.894L87.5859 220.808L80.3875 225.894C79.5018 226.52 78.2781 226.309 77.6529 225.424C77.0276 224.539 77.2379 223.315 78.1231 222.69L86.4537 216.803C86.7934 216.563 87.1899 216.443 87.5859 216.443Z" fill="#495998"/>
<path d="M87.5877 205.568C87.9842 205.568 88.3808 205.688 88.7199 205.928L97.0472 211.815C97.9318 212.44 98.1421 213.665 97.5163 214.549C96.8911 215.434 95.6668 215.643 94.7816 215.019L87.5871 209.933L80.3887 215.019C79.5036 215.645 78.2793 215.433 77.6541 214.549C77.0288 213.664 77.2391 212.44 78.1242 211.815L86.4554 205.928C86.7946 205.688 87.1911 205.568 87.5877 205.568Z" fill="#495998"/>
<path d="M87.5877 193.309C87.9842 193.309 88.3808 193.429 88.7199 193.669L97.0472 199.556C97.9318 200.181 98.1421 201.406 97.5163 202.29C96.8911 203.175 95.6668 203.385 94.7816 202.76L87.5871 197.674L80.3887 202.76C79.5036 203.386 78.2793 203.174 77.6541 202.29C77.0288 201.405 77.2391 200.181 78.1242 199.556L86.4554 193.669C86.7946 193.429 87.1911 193.309 87.5877 193.309Z" fill="#495998"/>
<path d="M32.3987 196.598C31.107 196.598 30.0601 195.551 30.0601 194.259C30.0601 192.968 31.107 191.921 32.3987 191.921C33.6905 191.921 34.7374 192.968 34.7374 194.259C34.7374 195.551 33.6905 196.598 32.3987 196.598Z" fill="#346EBA"/>
<path d="M43.6955 196.598C42.4037 196.598 41.3568 195.551 41.3568 194.259C41.3568 192.968 42.4037 191.921 43.6955 191.921C44.9867 191.921 46.0336 192.968 46.0336 194.259C46.0336 195.551 44.9867 196.598 43.6955 196.598Z" fill="#346EBA"/>
<path d="M54.9918 196.598C53.7005 196.598 52.6531 195.551 52.6531 194.259C52.6531 192.968 53.7005 191.921 54.9918 191.921C56.2835 191.921 57.3304 192.968 57.3304 194.259C57.3304 195.551 56.2835 196.598 54.9918 196.598Z" fill="#346EBA"/>
<path d="M32.3987 185.301C31.107 185.301 30.0601 184.254 30.0601 182.963C30.0601 181.671 31.107 180.624 32.3987 180.624C33.6905 180.624 34.7374 181.671 34.7374 182.963C34.7374 184.254 33.6905 185.301 32.3987 185.301Z" fill="#346EBA"/>
<path d="M43.6955 185.301C42.4037 185.301 41.3568 184.254 41.3568 182.963C41.3568 181.671 42.4037 180.624 43.6955 180.624C44.9867 180.624 46.0336 181.671 46.0336 182.963C46.0336 184.254 44.9867 185.301 43.6955 185.301Z" fill="#346EBA"/>
<path d="M54.9918 185.301C53.7005 185.301 52.6531 184.254 52.6531 182.963C52.6531 181.671 53.7005 180.624 54.9918 180.624C56.2835 180.624 57.3304 181.671 57.3304 182.963C57.3304 184.254 56.2835 185.301 54.9918 185.301Z" fill="#346EBA"/>
<path d="M66.2885 196.598C64.9967 196.598 63.9498 195.551 63.9498 194.259C63.9498 192.968 64.9967 191.921 66.2885 191.921C67.5797 191.921 68.6266 192.968 68.6266 194.259C68.6266 195.551 67.5797 196.598 66.2885 196.598Z" fill="#346EBA"/>
<path d="M66.2885 185.301C64.9967 185.301 63.9498 184.254 63.9498 182.963C63.9498 181.671 64.9967 180.624 66.2885 180.624C67.5797 180.624 68.6266 181.671 68.6266 182.963C68.6266 184.254 67.5797 185.301 66.2885 185.301Z" fill="#346EBA"/>
<path d="M126.077 35.1047C126.077 33.7688 127.16 32.6862 128.496 32.6862C129.831 32.6862 130.914 33.7688 130.914 35.1047C130.914 36.4405 129.831 37.5231 128.496 37.5231C127.16 37.5231 126.077 36.4405 126.077 35.1047Z" fill="#F37458"/>
<path d="M126.077 46.7874C126.077 45.4516 127.16 44.369 128.496 44.369C129.831 44.369 130.914 45.4516 130.914 46.7874C130.914 48.1227 129.831 49.2059 128.496 49.2059C127.16 49.2059 126.077 48.1227 126.077 46.7874Z" fill="#F37458"/>
<path d="M116.813 32.6862C118.149 32.6862 119.231 33.7688 119.231 35.1047C119.231 36.4405 118.149 37.5231 116.813 37.5231C115.478 37.5231 114.394 36.4405 114.394 35.1047C114.394 33.7688 115.478 32.6862 116.813 32.6862Z" fill="#F37458"/>
<path d="M128.496 8.2883C129.831 8.2883 130.914 9.37092 130.914 10.7067C130.914 12.042 129.831 13.1252 128.496 13.1252C127.16 13.1252 126.077 12.042 126.077 10.7067C126.077 9.37092 127.16 8.2883 128.496 8.2883Z" fill="#F37458"/>
<path d="M116.813 8.2883C118.149 8.2883 119.231 9.37092 119.231 10.7067C119.231 12.042 118.149 13.1252 116.813 13.1252C115.478 13.1252 114.394 12.042 114.394 10.7067C114.394 9.37092 115.478 8.2883 116.813 8.2883Z" fill="#F37458"/>
<path d="M114.394 46.7874C114.394 45.4516 115.478 44.369 116.813 44.369C118.149 44.369 119.231 45.4516 119.231 46.7874C119.231 48.1227 118.149 49.2059 116.813 49.2059C115.478 49.2059 114.394 48.1227 114.394 46.7874Z" fill="#F37458"/>
<path d="M128.496 19.9705C129.831 19.9705 130.914 21.0537 130.914 22.3889C130.914 23.7247 129.831 24.8073 128.496 24.8073C127.16 24.8073 126.077 23.7247 126.077 22.3889C126.077 21.0537 127.16 19.9705 128.496 19.9705Z" fill="#F37458"/>
<path d="M116.813 19.9705C118.149 19.9705 119.231 21.0537 119.231 22.3889C119.231 23.7247 118.149 24.8073 116.813 24.8073C115.478 24.8073 114.394 23.7247 114.394 22.3889C114.394 21.0537 115.478 19.9705 116.813 19.9705Z" fill="#F37458"/>
<path d="M105.131 8.2883C106.466 8.2883 107.549 9.37092 107.549 10.7067C107.549 12.042 106.466 13.1252 105.131 13.1252C103.795 13.1252 102.712 12.042 102.712 10.7067C102.712 9.37092 103.795 8.2883 105.131 8.2883Z" fill="#F37458"/>
<path d="M105.131 19.9705C106.466 19.9705 107.549 21.0537 107.549 22.3889C107.549 23.7247 106.466 24.8073 105.131 24.8073C103.795 24.8073 102.712 23.7247 102.712 22.3889C102.712 21.0537 103.795 19.9705 105.131 19.9705Z" fill="#F37458"/>
<path d="M185.622 109.21C181.232 110.78 181.116 116 181.116 116.491C181.116 116.036 181.018 110.789 176.61 109.21C181.018 107.622 181.116 102.385 181.116 101.93C181.116 102.42 181.232 107.631 185.622 109.21Z" fill="#0F1630"/>
<path d="M177.935 109.209C179.689 110.222 180.621 111.827 181.116 113.278C181.61 111.827 182.542 110.222 184.296 109.209C182.542 108.194 181.61 106.589 181.116 105.139C180.621 106.589 179.689 108.194 177.935 109.209ZM181.116 117.048C180.808 117.048 180.558 116.799 180.558 116.49C180.558 115.95 180.442 111.175 176.422 109.735C176.2 109.655 176.052 109.446 176.052 109.21C176.052 108.976 176.199 108.765 176.421 108.686C180.442 107.236 180.558 102.469 180.558 101.93C180.558 101.622 180.808 101.372 181.116 101.372C181.424 101.372 181.674 101.622 181.674 101.93C181.674 102.469 181.79 107.239 185.81 108.686C186.031 108.765 186.179 108.975 186.179 109.21C186.179 109.446 186.031 109.656 185.81 109.735C181.79 111.173 181.674 115.95 181.674 116.49C181.674 116.799 181.424 117.048 181.116 117.048Z" fill="#ABFFF2"/>
<path d="M172.855 126.538C168.466 128.108 168.349 133.328 168.349 133.819C168.349 133.363 168.251 128.117 163.844 126.538C168.251 124.95 168.349 119.713 168.349 119.258C168.349 119.749 168.466 124.959 172.855 126.538Z" fill="#0F1630"/>
<path d="M165.169 126.537C166.922 127.549 167.854 129.155 168.35 130.606C168.844 129.155 169.775 127.549 171.53 126.537C169.776 125.523 168.844 123.917 168.35 122.467C167.854 123.917 166.922 125.522 165.169 126.537ZM168.35 134.376C168.041 134.376 167.792 134.126 167.792 133.819C167.792 133.279 167.676 128.503 163.656 127.063C163.434 126.984 163.286 126.774 163.286 126.539C163.286 126.303 163.433 126.093 163.655 126.013C167.676 124.564 167.792 119.797 167.792 119.258C167.792 118.949 168.041 118.7 168.35 118.7C168.658 118.7 168.907 118.949 168.907 119.258C168.907 119.797 169.023 124.567 173.044 126.013C173.265 126.093 173.413 126.303 173.413 126.539C173.413 126.774 173.264 126.984 173.043 127.063C169.023 128.501 168.907 133.279 168.907 133.819C168.907 134.126 168.658 134.376 168.35 134.376Z" fill="#ABFFF2"/>
<path d="M156.918 109.21C152.529 110.78 152.413 116 152.413 116.491C152.413 116.036 152.315 110.789 147.907 109.21C152.315 107.622 152.413 102.385 152.413 101.93C152.413 102.42 152.529 107.631 156.918 109.21Z" fill="#0F1630"/>
<path d="M149.232 109.209C150.986 110.222 151.918 111.827 152.413 113.278C152.907 111.827 153.839 110.222 155.594 109.209C153.838 108.194 152.907 106.589 152.413 105.139C151.918 106.589 150.986 108.194 149.232 109.209ZM152.413 117.048C152.104 117.048 151.855 116.799 151.855 116.49C151.855 115.95 151.739 111.175 147.72 109.735C147.498 109.655 147.349 109.446 147.349 109.21C147.349 108.976 147.497 108.765 147.719 108.686C151.739 107.237 151.855 102.469 151.855 101.93C151.855 101.622 152.104 101.372 152.413 101.372C152.721 101.372 152.97 101.622 152.97 101.93C152.97 102.469 153.087 107.239 157.108 108.686C157.329 108.765 157.477 108.975 157.477 109.21C157.477 109.446 157.328 109.656 157.107 109.735C153.087 111.174 152.97 115.95 152.97 116.49C152.97 116.799 152.721 117.048 152.413 117.048Z" fill="#ABFFF2"/>
<path d="M0.557556 25.7918C4.94726 24.2217 5.06339 19.0022 5.06339 18.5114C5.06339 18.9666 5.16144 24.2128 9.56905 25.7918C5.16144 27.3798 5.06339 32.6176 5.06339 33.0722C5.06339 32.5814 4.94726 27.3714 0.557556 25.7918Z" fill="#0F1630"/>
<path d="M1.88287 25.7929C3.63741 26.8075 4.56903 28.4133 5.06359 29.8634C5.55821 28.4133 6.49044 26.808 8.24458 25.7929C6.49044 24.78 5.55821 23.1748 5.06359 21.7235C4.56881 23.1754 3.63741 24.7806 1.88287 25.7929ZM5.06337 33.6299C4.75532 33.6299 4.50561 33.3801 4.50561 33.0722C4.50561 32.5328 4.38949 27.7629 0.368902 26.3166C0.147305 26.2369 -0.000445197 26.0266 1.00786e-06 25.7912C0.00022411 25.5559 0.148143 25.3456 0.369739 25.267C4.38949 23.8285 4.50561 19.0519 4.50561 18.5114C4.50561 18.2035 4.75532 17.9536 5.06337 17.9536C5.37147 17.9536 5.62112 18.2035 5.62112 18.5114C5.62112 19.0513 5.73708 23.8268 9.75728 25.267C9.97859 25.3456 10.1266 25.5559 10.1268 25.7912C10.127 26.0266 9.97926 26.2369 9.75789 26.3166C5.73708 27.7651 5.62112 32.5334 5.62112 33.0722C5.62112 33.3801 5.37147 33.6299 5.06337 33.6299Z" fill="#ABFFF2"/>
<path d="M13.3241 8.46402C17.7136 6.89394 17.8297 1.67444 17.8297 1.18362C17.8297 1.63875 17.9278 6.88501 22.3353 8.46402C17.9278 10.052 17.8297 15.2893 17.8297 15.7444C17.8297 15.2536 17.7136 10.043 13.3241 8.46402Z" fill="#0F1630"/>
<path d="M14.6496 8.4651C16.4035 9.47965 17.3353 11.0849 17.8299 12.5356C18.3244 11.0855 19.2563 9.48022 21.0108 8.46455C19.2567 7.45222 18.3244 5.84699 17.8299 4.39571C17.3351 5.84755 16.4037 7.45277 14.6496 8.4651ZM17.8297 16.3021C17.5216 16.3021 17.2719 16.0523 17.2719 15.7444C17.2719 15.205 17.1558 10.4351 13.1351 8.98884C12.9136 8.90908 12.7659 8.69881 12.7663 8.46343C12.7665 8.22806 12.9144 8.01835 13.136 7.93915C17.1558 6.5007 17.2719 1.72351 17.2719 1.1836C17.2719 0.875719 17.5216 0.625844 17.8297 0.625844C18.1378 0.625844 18.3874 0.875719 18.3874 1.1836C18.3874 1.72351 18.5033 6.49846 22.5235 7.93915C22.7449 8.01835 22.8929 8.22806 22.893 8.46343C22.8933 8.69881 22.7458 8.90908 22.5242 8.98884C18.5033 10.4373 18.3874 15.2056 18.3874 15.7444C18.3874 16.0523 18.1378 16.3021 17.8297 16.3021Z" fill="#ABFFF2"/>
<path d="M29.2607 25.7918C33.6503 24.2217 33.7663 19.0022 33.7663 18.5114C33.7663 18.9666 33.8645 24.2128 38.2719 25.7918C33.8645 27.3798 33.7663 32.6176 33.7663 33.0722C33.7663 32.5814 33.6503 27.3714 29.2607 25.7918Z" fill="#0F1630"/>
<path d="M30.586 25.7929C32.3401 26.8075 33.2721 28.4133 33.7663 29.8634C34.261 28.4133 35.1931 26.808 36.9472 25.7929C35.1931 24.78 34.261 23.1748 33.7663 21.7235C33.2716 23.1754 32.3401 24.7806 30.586 25.7929ZM33.7663 33.6299C33.4584 33.6299 33.2086 33.3801 33.2086 33.0722C33.2086 32.5328 33.0926 27.7629 29.0717 26.3166C28.8503 26.2369 28.7024 26.0266 28.703 25.7912C28.703 25.5559 28.8508 25.3456 29.0728 25.267C33.0925 23.8285 33.2086 19.0519 33.2086 18.5114C33.2086 18.2035 33.4584 17.9536 33.7663 17.9536C34.0742 17.9536 34.3241 18.2035 34.3241 18.5114C34.3241 19.0513 34.4401 23.8268 38.4598 25.267C38.6813 25.3456 38.8296 25.5559 38.8296 25.7912C38.8296 26.0266 38.6824 26.2369 38.461 26.3166C34.4401 27.7651 34.3241 32.5334 34.3241 33.0722C34.3241 33.3801 34.0742 33.6299 33.7663 33.6299Z" fill="#ABFFF2"/>
<g clip-path="url(#clip0_70_473)">
<path d="M116.485 132.845L103.035 136.88C102.69 136.983 102.327 136.787 102.223 136.442C102.12 136.098 102.315 135.734 102.66 135.631L113.632 132.339L112.929 129.998C112.83 129.665 112.587 129.4 112.265 129.27C111.941 129.139 111.581 129.165 111.28 129.334L100.337 135.489C99.8701 135.751 99.6511 136.294 99.8051 136.807L103.477 149.047C103.657 149.647 104.293 149.99 104.894 149.81L120.197 145.219C120.798 145.039 121.14 144.403 120.959 143.802L117.901 133.607C117.721 133.007 117.085 132.664 116.485 132.845ZM116.708 140.735C116.125 140.91 115.508 140.577 115.332 139.993C115.157 139.409 115.49 138.792 116.073 138.617C116.657 138.441 117.275 138.774 117.45 139.358C117.625 139.942 117.293 140.559 116.708 140.735Z" fill="white"/>
</g>
<g clip-path="url(#clip1_70_473)">
<path d="M68.4355 5.39383C69.9802 5.25252 71.3512 6.39372 71.4925 7.93841C71.6338 9.4831 70.4926 10.8541 68.9479 10.9954C67.4032 11.1368 66.0322 9.99555 65.8909 8.45086C65.7496 6.90617 66.8908 5.53514 68.4355 5.39383Z" fill="white"/>
<path d="M59.5935 16.7936L59.6576 17.4938C59.7368 18.36 60.5586 18.9718 61.4928 18.6888C62.133 15.4002 64.8753 12.7801 68.3758 12.4599L73.054 12.0319C73.2489 12.0141 73.4247 11.916 73.5362 11.763C74.129 10.9545 75.0422 10.4379 76.0433 10.3463L78.1439 10.1542C78.5979 10.1126 78.9698 10.5066 78.9034 10.9576L78.4615 13.9429C79.0294 14.4371 79.5172 15.0061 79.9173 15.6404C81.3195 15.5121 82.2488 16.4352 82.3495 17.5361L82.5394 19.6114C82.661 20.9408 81.6762 21.5203 80.6523 22.3938C80.3035 23.36 79.7734 24.2352 79.0737 24.9991C78.979 25.1015 78.8247 25.3135 78.8489 25.5782L78.9999 27.2295C79.0602 27.888 78.5737 28.4724 77.9153 28.5327L75.4016 28.7626C74.747 28.8225 74.1672 28.4288 74.0796 27.4714L69.7851 27.8643C69.8727 28.8217 69.374 29.314 68.7193 29.3739L66.2057 29.6039C65.5472 29.6641 64.9628 29.1777 64.9026 28.5192C64.8057 27.461 64.8597 26.7291 64.0516 26.039C62.5697 24.7702 61.5685 22.9466 61.3782 20.8667C61.3565 20.6293 61.3496 20.3939 61.3495 20.1599C61.3364 20.1613 61.3233 20.1664 61.3102 20.1676C59.776 20.308 58.3993 19.1755 58.2572 17.6219L58.1931 16.9217C58.1087 15.9987 59.5087 15.8668 59.5935 16.7936ZM77.4481 17.9845C77.8348 17.9491 78.1196 17.6069 78.0843 17.2202C78.0489 16.8334 77.7067 16.5487 77.32 16.5841C76.9333 16.6195 76.6485 16.9615 76.6839 17.3483C76.7192 17.735 77.0614 18.0199 77.4481 17.9845ZM68.7602 16.6611L71.9446 16.3698C72.8676 16.2853 72.7433 14.8846 71.8165 14.9694L68.6321 15.2607C67.7091 15.3451 67.8334 16.7459 68.7602 16.6611Z" fill="white"/>
</g>
<g clip-path="url(#clip2_70_473)">
<path d="M78.877 70.5454C75.6313 71.3988 73.6919 74.7221 74.5454 77.9677C75.3988 81.2134 78.7221 83.1528 81.9677 82.2993C85.2133 81.4459 87.1527 78.1226 86.2993 74.877C85.4458 71.6313 82.1226 69.6919 78.877 70.5454ZM82.7197 78.2954C82.5454 78.6748 82.2669 78.9729 81.9055 79.1817C81.7483 79.2722 81.6945 79.3821 81.7506 79.5561C81.8036 79.7283 81.8415 79.9019 81.8849 80.0767C81.9256 80.2315 81.8674 80.3347 81.7163 80.3796C81.6178 80.4081 81.5193 80.4366 81.4201 80.4626C81.333 80.4855 81.246 80.5084 81.1583 80.5289C80.9932 80.5697 80.891 80.4958 80.849 80.3361C80.8135 80.211 80.7798 80.0828 80.7467 79.9571C80.6706 79.6772 80.6583 79.67 80.3784 79.6971C80.0204 79.7318 79.6614 79.7434 79.307 79.6737C79.0285 79.6177 78.986 79.5642 78.9874 79.2845C78.9898 79.0771 78.9921 78.8696 79.0023 78.6626C79.009 78.5109 79.0335 78.4372 79.1085 78.4175C79.1521 78.4061 79.2134 78.4132 79.2985 78.4322C79.6945 78.522 80.0913 78.5263 80.4933 78.4723C80.5606 78.4623 80.6271 78.45 80.6924 78.4328C80.8738 78.3851 81.0415 78.3049 81.1935 78.1847C81.5768 77.8823 81.5128 77.3638 81.0688 77.16C80.9187 77.0908 80.7563 77.0534 80.5916 77.0268C80.168 76.9598 79.7408 76.9377 79.3262 76.8166C78.6542 76.621 78.1613 76.2412 78.0191 75.5235C77.8576 74.7127 78.1789 74.0956 78.8418 73.6368C79.1154 73.4485 79.1185 73.4503 79.0358 73.1359C79.0078 73.0295 78.9774 72.9237 78.9537 72.8136C78.8986 72.5747 78.9265 72.5234 79.1616 72.4538C79.1882 72.4468 79.2172 72.4392 79.2438 72.4322C79.2898 72.4201 79.3357 72.408 79.3817 72.3959C79.401 72.3908 79.4204 72.3858 79.4373 72.3813C79.8871 72.263 79.8922 72.2824 80.0225 72.7678C80.119 73.1251 80.119 73.1251 80.4892 73.0873C80.7739 73.059 81.0537 73.0707 81.3344 73.1158C81.4882 73.14 81.5668 73.2228 81.5621 73.3818C81.5565 73.616 81.5539 73.852 81.5427 74.085C81.5336 74.2271 81.5083 74.2983 81.4309 74.3187C81.3874 74.3301 81.3298 74.3272 81.2531 74.3111C80.8604 74.2334 80.4735 74.2472 80.0914 74.3477C80.043 74.3604 79.9929 74.3762 79.9452 74.3913C79.8334 74.4285 79.726 74.4722 79.6316 74.5462C79.2976 74.8098 79.3465 75.2417 79.7356 75.4135C79.932 75.5015 80.1424 75.5444 80.3544 75.574C80.7244 75.6241 81.0931 75.6693 81.4557 75.7602C82.5984 76.0544 83.2019 77.2481 82.7197 78.2954Z" fill="white"/>
</g>
<defs>
<clipPath id="clip0_70_473">
<rect width="20.8596" height="20.8596" fill="white" transform="translate(97 131.994) rotate(-16.6992)"/>
</clipPath>
<clipPath id="clip1_70_473">
<rect width="24" height="24" fill="white" transform="matrix(-0.995842 0.0911025 0.0911025 0.995842 81.1324 4.23227)"/>
</clipPath>
<clipPath id="clip2_70_473">
<rect width="12.1535" height="12.1535" fill="white" transform="translate(73 72.0908) rotate(-14.7327)"/>
</clipPath>
</defs>
</svg>
